<?xml version="1.0" encoding="UTF-8"?><svg id="Layer_2" xmlns="http://www.w3.org/2000/svg" viewBox="0 0 397.73 854.42"><g id="Layer_2-2"><g><path d="m265.75,735.61c2.09-.65,4.2-1.25,6.31-1.8.19-.05.11-.34-.08-.29-2.12.55-4.22,1.15-6.31,1.8-.18.06-.11.35.08.29h0Z"/><path d="m301.29,680.6c3.83-.45,7.67-.81,11.52-1.06.19-.01.19-.31,0-.3-3.85.26-7.69.61-11.52,1.06-.19.02-.19.32,0,.3h0Z"/><path d="m332.33,645.17c5.73.21,11.45.41,17.18.59.19,0,.19-.29,0-.3-5.73-.18-11.45-.37-17.18-.59-.19,0-.19.29,0,.3h0Z"/><path d="m315.99,477.89c2.11-3.79,4.21-7.58,6.29-11.38.09-.17-.17-.32-.26-.15-2.09,3.8-4.18,7.6-6.29,11.38-.09.17.17.32.26.15h0Z"/><path d="m237.09,425.82c3.48-7.74,6.98-15.48,10.48-23.22.08-.17-.18-.33-.26-.15-3.51,7.73-7,15.47-10.48,23.22-.08.17.18.33.26.15h0Z"/><path d="m241.21,356.55c9.06-1.56,18.12-3.12,27.18-4.69.19-.03.11-.32-.08-.29-9.06,1.57-18.12,3.13-27.18,4.69-.19.03-.11.32.08.29h0Z"/><path d="m270.1,334.34c8.48.73,16.96,1.45,25.44,2.17.19.02.19-.28,0-.3-8.48-.72-16.96-1.45-25.44-2.17-.19-.02-.19.28,0,.3h0Z"/><path d="m328.97,285.38c6.64-1.31,13.28-2.61,19.93-3.91.19-.04.11-.33-.08-.29-6.64,1.3-13.28,2.6-19.93,3.91-.19.04-.11.33.08.29h0Z"/><g><g><g><path d="m251.96,148.71c-.11,1.83-1.41,3.06-1.96,3.5l-.92.74,1.1.14c.24.11,1.16.51,1.99.88.92.41,1.28.57,1.44.63h0c.08.04,1.42.74,2.62,1.38,1.04.55,1.54.81,1.8.94,1.59,4.89,6.18,8.44,11.6,8.44,2.85,0,5.48-.99,7.56-2.64l13.38.65-.09-.6c-.41-2.73-.03-4.73,1.13-5.96.99-1.05,2.75-1.79,3.59-2.14.52-.22.87-.37.75-.81-.05-.2-.22-.43-.7-.36-1.49.2-2.96-.23-4.04-1.16-.87-.76-1.38-1.75-1.39-2.73-.02-1.58,1.26-3.15,3.1-3.81l-.29-.96c-2.48.61-5.05-.25-6.56-2.18-1.6-2.05-1.72-4.93-.36-7.21.14-.19.27-.38.39-.58l-.83-.56c-.14.19-.27.39-.39.58-1.02,1.37-2.48,2.35-4.09,2.72-1.54.35-3.1.12-4.27-.64-1.88-1.22-2.82-3.77-2.35-6.35l-.96-.27c-1.17,3.1-3.87,5.25-6.85,5.46-2.67.19-4.69-1.21-5.43-1.82l-.83-.68.02,1.08c0,.2.03,4.96-4.05,7.5-2.99,1.86-6.1,1.2-7.36.8-.19-.08-.38-.15-.58-.21l-.34.94c.08.03.28.11.57.21,2.25.92,3.75,2.99,3.62,5.09h-.02Zm7.47,4.44c0-5.62,4.57-10.2,10.2-10.2s10.2,4.57,10.2,10.2-4.57,10.2-10.2,10.2-10.2-4.57-10.2-10.2Zm-2.85-10.42c3.45-2.15,4.27-5.71,4.46-7.41,1.12.74,3.03,1.66,5.38,1.48,2.66-.19,5.1-1.72,6.66-4.06.22,2.11,1.25,3.99,2.89,5.05,1.4.91,3.23,1.19,5.04.78,1.06-.24,2.06-.71,2.93-1.36-.46,2.09-.01,4.32,1.34,6.04,1.29,1.64,3.23,2.62,5.3,2.74-1.11.96-1.78,2.27-1.77,3.6.01,1.26.65,2.53,1.74,3.47.78.68,1.74,1.13,2.77,1.33-.84.43-1.77.99-2.44,1.7-1.29,1.36-1.78,3.45-1.47,6.19l-11.15-.54c2.2-2.21,3.56-5.25,3.56-8.61,0-6.73-5.47-12.2-12.2-12.2s-12.2,5.47-12.2,12.2c0,.84.09,1.65.25,2.44-.3-.16-.64-.33-.99-.52-1.92-1-2.48-1.3-2.68-1.39h0s-.71-.32-1.45-.65c-.61-.27-1.04-.46-1.35-.6.72-.73,1.64-1.99,1.74-3.68.1-1.72-.68-3.41-2.02-4.66,1.62.1,3.65-.13,5.65-1.37v.03Z"/><circle cx="269.53" cy="153.35" r="6.03"/><path d="m317.81,103.48c.15-.23.08-.54-.15-.69-.23-.15-.54-.08-.69.15l-4.42,6.78-4.72-6.63c-.16-.23-.47-.28-.7-.12-.22.16-.28.47-.12.7l5.57,7.83,5.22-8.01h.01Z"/><path d="m295.46,174.41c-1.88,1.93-4.21,2.53-5.43,2.71l.29,1.98c1.47-.22,4.28-.94,6.57-3.29,2.61-2.69,3.15-6,3.14-8.33.92,1.07,1.83,2.44,2.5,4.14,1.61,4.08.94,7.79.4,9.64l-.85,2.91,2.42-1.83c2-1.52,3.64-1.6,4.43-1.52,2.83.31,5.83,3.49,6.62,8.46-1.57-.94-3.91-1.86-6.66-1.45-4.69.7-8.47,5.04-8.99,10.32l1.99.2c.43-4.38,3.5-7.97,7.3-8.54,3.55-.53,6.37,1.84,6.89,2.32l1.74,1.58-.07-2.35c-.19-6.64-3.89-12.03-8.61-12.54-.78-.08-2.14-.06-3.79.67.33-2.26.33-5.33-.96-8.62-1.32-3.34-3.45-5.56-5.01-6.84l-2.29-1.87.69,2.88c.05.23,1.3,5.64-2.32,9.36h0Z"/><path d="m303.1,186.63c-.02-.28-.28-.49-.54-.46l-10.13.78,4.59-7.08c.15-.23.08-.54-.15-.69-.23-.15-.54-.08-.69.15l-5.69,8.78,12.15-.94c.28-.02.48-.26.46-.54h0Z"/><path d="m301.28,134.93c4.79,1.26,9.08,3.69,12.4,7.02,8.59,8.62,8.39,17.93,7.9,21.53-.07.55.31,1.05.86,1.12h.13c.49,0,.92-.36.99-.87.52-3.89.75-13.95-8.47-23.21-3.57-3.58-8.17-6.19-13.31-7.55-.53-.14-1.08.18-1.22.71-.14.53.18,1.08.71,1.22v.03Z"/><path d="m349.57,227.84l2.08-.38c2.38-.44,4.34-1.39,5.82-2.84,2.11-2.06,2.61-4.49,2.97-6.27.19-.93.39-1.9.73-2.04.74-.31,2.73,2.08,4.17,3.82,2.8,3.37,6.28,7.56,10.78,7.98.25.02.5.03.74.03,4.67,0,9.53-4.06,14.82-12.39l-1.59-1.2c-1.46,1.65-3.81,2.15-5.72,1.21-1.36-.67-2.26-1.95-2.54-3.4.45.36.96.66,1.51.86,1.28.47,2.61.4,3.65-.2,1.32-.75,1.97-3.09,2.01-5.14l8.73.35-8.44-3.26c-11.33-4.37-21.91-9.71-31.67-15.95.64-.45,1.25-.94,1.72-1.33,1.82-1.52,2.56-4.06,1.94-6.63l-.49-2.02-1.27,1.65c-1.45,1.88-3.76,2.82-5.47,2.23-1.04-.35-1.97-1.32-2.48-2.58-.48-1.19-.56-2.52-.26-3.8,1.23,1.29,3.42,2.96,6.29,2.86,4.22-.11,7.89-3.82,8.36-8.45l.26-2.58-1.93,1.73c-2.24,2.01-5.6,2.15-7.67.32-.77-.69-1.2-1.85-1.2-3.27,0-2.1.87-4.38,2.23-5.92l9.19-1.97-7.74-1.3c-4.6-.77-28-5.67-37.13-26.13-2.36-5.29-3.51-11.07-3.42-17.19l19.69-12.41-6.56.76c-4.77.55-5.98-.46-6.28-.93-.66-1.02.15-3.26.69-4.74.64-1.76,1.24-3.41-.13-4.36-1.46-1.01-2.95.34-4.67,1.9-.81.74-2.71,2.46-3.31,2.46h-.01c-.8-.62-.79-4.98-.78-6.84,0-3.51.01-5.45-1.76-5.78-1.71-.32-2.36,1.41-3.24,3.83-.84,2.29-2.25,6.12-4.07,6.46-1.77.33-4.39-2.47-5.97-4.14-1.65-1.76-2.85-3.04-4.26-2.04-1.33.93-.64,2.45.17,4.21.85,1.86,2.14,4.68,1.3,6.28-.66,1.25-2.78,1.97-6.12,2.1l-4.26.16,15.24,11.33-2.27,15.88-13.45.55c-1.22-2.75-4.76-9.06-12.15-11.15-6.63-1.88-15.57-.08-19.08,6.17-.97,1.73-1.48,3.69-1.51,5.83-2.17.32-4.24.96-6.19,1.91-5.35,2.6-9.06,6.68-10.73,11.81-1.84,5.63-.55,10.68.56,13.49-18.91,3.46-25.33,1.95-27.35.03l-.08-.07c-2.35-2.26-4.45-3.11-6.25-2.51-1.22.41-1.85,1.33-2.34,2.07-.44.65-.69.99-1.13,1.12-.54.15-1.22,0-2.03-.49-.97-.57-1.25-1.32-1.68-2.59-.37-1.11-.79-2.36-1.97-3.37-2.12-1.81-5.55-1.77-8.06-1.12-3.11.8-5.43,2.53-6.22,4.63-.74,1.97,0,3.77.61,5.21.56,1.35.79,2.04.47,2.57h0c-.15.25-.3.32-1.12.56-.85.25-2,.58-3.33,1.6-2.75,2.11-5.53,6.66-3.56,9.72.53.82,1.35,1.43,2.38,1.81-.17.21-.34.42-.49.64-1.13,1.66-1.54,3.64-1.12,5.43.75,3.22,4.09,5.56,7.67,5.34,1.07-.07,2.1-.37,3.01-.87-.22,3.12.2,6.15,2.36,7.16,2.12.99,4.51-.62,6.62-2.04,2.17-1.46,4-3.33,5.47-5.55l1.14-.03s.03.1.05.15l6.94,11.36,8.63-10.36,9.42,10.27,6.97-10.72,6.87,7.29,7.47-9.01c.07-.09.12-.19.16-.29l14.53-.41-10.43,6.57c-.1-.08-.2-.14-.33-.18l-5.87-1.86-2.24,6.66c-.08.23-.05.47.03.68l-3.23,2.04-9.83-3.78-1.41,9.45-8.14-2.23.79,7.88c0,.12.05.23.1.33l-.83.52c-4.64-3.57-7.13-4.47-8.73-3.21-1.25.98-1.05,2.7-.9,4.08v.08c-.93-.69-2.25-1.55-3.94-1.59h-.1c-2.51,0-4.7,1.74-5.82,3.24-1.01,1.35-1.36,2.73-1,3.86.52,1.62,2.22,2.16,3.66,2.48-.36.16-.74.31-1.05.44-2.73,1.12-5.54,2.29-5.57,4.64-.03,2.78,4.05,4.47,6.83,4.72,1.18.11,2.26,0,3.22-.27-.65.61-1.35.96-1.98,1.28-.95.48-2.13,1.07-2.27,2.49-.2,2.13,2.26,3.65,3.96,4.15,1.6.47,3.1.23,4.33-.23-.42,5.94,1.42,10.7,4.87,12.07.72.29,1.57.44,2.44.44,1.69,0,3.44-.58,4.45-1.88,1.4-1.81.78-4,.28-5.77-.17-.62-.54-1.9-.37-2.17.41-.44,2.86.12,3.78.33,1.91.43,3.72.84,4.49-.67.68-1.33-.39-2.46-1.25-3.37-.11-.11-.24-.25-.37-.39.54-.03,1.18-.02,1.65-.02,2.28.03,4.62.05,5.45-1.73.66-1.41-.16-2.93-1.4-4.37l42.11-20.29c.68,1.24,1.61,2.84,2.72,4.73,5.51,9.4,15.77,26.9,15.11,36.55-.82,12.01-9.22,30.41-44.56,49.8-.16.08-.29.16-.43.24-1.28-2.22-1.85-5.71-2.23-8.13-.41-2.54-.61-3.81-1.52-4.43-.4-.27-.88-.37-1.34-.27h0c-1.32.28-1.45,1.53-1.66,3.41-.29,2.66-.78,7.1-3.48,11.1-1.45,2.15-3.44,3.97-5.91,5.42l-2.65,1.55,2.85,1.14c1.82.73,3.42,1.68,4.76,2.85-14.45,9.39-54.27,38.69-57.61,78.07-2.01,23.69,6.07,46.94,21.26,65.86.07.25.24.45.45.58,2.82,3.47,5.89,6.79,9.18,9.93,0,0,.02.02.03.03,12.74,12.18,28.81,21.77,47.16,27.35,2.89,1.43,43.34,22.26,47.27,68.16,2.73,31.83-13.64,63.06-41.7,79.58l-.21.15c-11.86,10.03-39.59,37.73-41.03,78.24-1.81,50.97,38.56,99.09,96.17,114.91.6,18.17,1.41,18.21,2.53,18.25h.05c1.01,0,1.29-1.04,1.62-2.25.31-1.13.82-3.01,1.69-3.25.94-.27,2.54,1.34,3.71,2.52,1.46,1.46,2.72,2.73,4.02,2.07,1.16-.58.95-1.93.73-3.35-.24-1.52-.53-3.42.35-5.12.92-1.77,2.78-2.61,4.27-3.28,1.45-.65,2.82-1.27,2.75-2.69-.07-1.51-1.67-2.03-3.37-2.58-1.54-.5-3.29-1.07-3.77-2.25-.77-1.9,1.87-5.09,3.45-6.99,1.49-1.79,2.31-2.78,1.54-3.71-.44-.53-.89-1.09-6.52,1.87-3.53,1.86-7.72,4.43-11.83,7.27-1.79-.83-5.83-3.17-7.75-8.01-1.47-3.7-1-7.12-.6-8.83l.51-2.15-1.95,1.03c-1.91,1.02-4.08,1.27-6.11.71-1.91-.52-3.49-1.72-4.32-3.3-1.34-2.53-.79-5.86,1.37-8.3l3.07-3.47-4.23,1.9c-2.91,1.3-6.1,1.32-8.77.04-1.94-.93-3.35-2.46-3.78-4.09-.74-2.84,1.27-6.51,4.68-8.53l-.88-1.79c-2,.79-4.58.64-6.75-.4-1.49-.72-2.53-1.74-2.86-2.82-.79-2.57,1.62-5.36,1.72-5.48l1.22-1.39-1.83-.26c-2.42-.34-4.41-2.1-4.95-4.38-.73-3.08,1.56-5.39,1.66-5.49l1.76-1.74-2.47.02c-4.33.02-7.47-2.2-8.02-4.38-.25-.99.23-2.07.67-2.79,1.53-2.51,4.99-4.88,8.23-5.63l3.95-.92-3.92-1.02c-4.01-1.04-10.91-6.85-10.19-12.4.63-4.83,4.86-8.79,10.06-9.42l1.77-.21-1.1-1.4c-2.92-3.7-2.93-8.95-.04-12.22,2.39-2.71,7.42-.48,10.74.99,1.07.47,1.99.88,2.7,1.08l3.66,1.02-2.69-2.69c-3.98-3.98-4.83-5.6-4.53-8.68.28-2.87,2.61-5.19,5.55-5.53l1.48-.17-.72-1.31c-2.19-3.99-1.73-8.9,1.11-11.66,1.66-1.62,4.12-2.45,6.76-2.29,2.54.16,4.95,1.24,6.81,3.01.34.42.71.83,1.12,1.22l1.47-1.34c-.34-.43-.7-.83-1.09-1.2-1.33-1.7-2.07-3.71-2-5.6.04-1.21.42-2.23,1.02-2.74,1.36-1.14,5.26-.74,8.27,2.49l5.11,5.49-3.49-6.64c-2.54-4.83-1.27-10.92,2.94-14.17,3.92-3.03,9.5-3.02,13.58,0l1.26-1.55c-2.38-2.11-3.79-5.11-3.88-8.22-.08-2.74.88-5.31,2.63-7.04,2.99-2.96,8.16-3.43,12.31-1.12l1.05-1.7c-2.54-1.73-4.21-4.38-4.59-7.28-.3-2.33.27-4.53,1.57-6.03,2.09-2.41,6.13-3.09,9.81-1.65l.9-1.78c-1.95-1.24-3.28-3.12-3.64-5.16-.26-1.43,0-2.76.69-3.67,1.02-1.33,3.16-1.94,5.47-1.55l1.64.28-.53-1.58c-1.36-4.08-.19-8.55,2.91-11.13,2.65-2.21,6.46-1.13,10.15-.09,1.34.38,2.6.74,3.83.95l2.26.39-1.25-1.92c-.92-1.41-2.26-2.6-3.55-3.77-2.52-2.26-4.01-3.77-3.41-5.67.95-2.97,4.36-4.89,7.93-4.46l4.22.51-3.55-2.34c-1.81-1.19-5.09-3.88-6.68-8.49-2.46-7.14,1.09-13.39,1.83-14.57l1.84-2.94-3.12,1.51c-4.21,2.04-8.4,1.48-9.68-.32-.58-.82-.72-2.18-.39-3.65.64-2.8,2.83-5.46,5.84-7.11l2.12-1.16-2.32-.68c-6.59-1.92-9.07-4.41-8.93-5.32.11-.72,2.11-1.8,5.6-2.38.04,0,.07-.03.11-.04.07-.02.13-.04.19-.07s.11-.06.15-.1c.05-.04.1-.08.14-.13s.07-.1.11-.15c.03-.06.06-.11.08-.17s.03-.12.04-.19c0-.04.02-.07.02-.11,0-.03-.01-.06-.02-.09v-.09s-.03-.07-.04-.1c-.02-.06-.04-.12-.07-.18s-.07-.12-.11-.17c-.03-.04-.07-.08-.11-.12-.06-.05-.12-.09-.19-.13-.04-.02-.09-.04-.13-.06-.07-.03-.15-.04-.22-.05-.03,0-.06-.02-.1-.02-3.43-.05-6.4-2.29-7.07-5.32-.38-1.69.02-3.56,1.08-5.14,1.2-1.77,3.03-2.94,5.17-3.3l9.55-1.59-9.67-.39c-.06,0-6.02-.3-8.48-4.93-2.22-4.19-.69-9.72,3.57-12.87l3.69-2.73-4.49.95c-5.47,1.16-11.09-1.33-13.36-5.9-2.62-5.26.48-10.72.61-10.95l1.46-2.51-2.7,1.08c-2.93,1.18-6.24.62-8.24-1.39-2.66-2.66-2.64-7.39.05-10.54l-1.4-1.42c-4.26,3.51-10.45,3.4-14.08-.25-2.94-2.95-3.63-7.66-1.73-11.73l1.13-2.41-2.44,1.07c-1.08.47-4.88,1.88-8.46.03-4.12-2.13-6.07-7.45-4.64-12.67l1.2-4.38-2.93,3.47c-1.61,1.91-3.96,3.05-6.44,3.14-2.29.07-4.44-.73-5.9-2.23-2.47-2.53-2.79-6.72-.88-9.97.25-.33.48-.67.7-1.02l-1.64-1.13c-.26.33-.49.68-.71,1.03-1.45,1.89-3.46,3.2-5.75,3.74-2.2.51-4.4.21-6.04-.82-2.48-1.57-4.35-5.57-4.18-8.91.08-1.59.67-3.72,3.02-4.88l-.89-1.79c-4.26,2.11-15.74,3.46-18-.07-1.73-2.7-.51-6.56.09-8.1l1.08-2.74-2.52,1.52c-5.08,3.06-10.93,1.1-13.2-2.66-1.26-2.08-1.5-4.75-.66-7.32.87-2.68,2.82-4.87,5.37-6.07.14-.06.28-.12.42-.19l-.8-1.83c-.15.06-.29.13-.44.19-5.92,2.54-10.83,1.39-11.56-.13-.77-1.6,1.56-6.38,7.68-9.38l1.19-.58-.89-.98c-3.81-4.22-4.14-8.59-.91-12,3.14-3.31,6.12-3.15,9.29-2.98.63.03,1.25.07,1.87.07l1.59.02-.67-1.44c-.3-.65-.65-1.21-.98-1.75-.86-1.39-1.48-2.4-.96-4.12.47-1.55,2.38-2.82,4.75-3.16l1.49-.21-.77-1.29c-.98-1.64-1.29-3.58-.85-5.32.35-1.39,1.16-2.54,2.21-3.17,1.59-.95,3.88-.78,5.82.42l2.65,1.64-1.2-2.88c-1.6-3.84-.1-8.37,3.42-10.31,4.14-2.28,10.96,2.72,11.03,2.77l1.54,1.14.06-1.91c.04-1.53,1.46-6.02,4.38-7.07,1.58-.57,3.41-.44,5.01.35,1.71.85,2.98,2.32,3.55,4.15l1.92-.58c-1.21-4.23.01-8.7,3.12-11.4,3.29-2.85,8.05-3.28,12.04-1.3.71.55,1.47,1.03,2.28,1.44l1.07-1.68c-.72-.57-1.48-1.05-2.27-1.46-2-1.59-3.46-3.78-4.15-6.26-.83-3.01-.44-6.12,1.08-8.54,2.81-4.46,8.91-6.13,14.19-3.9l2.91,1.23-1.68-2.68c-2.38-3.82-1.55-8.88,1.9-11.53,2.6-1.99,3.9-1.46,5.88-.66.74.3,1.58.64,2.55.87l1.41.32-.19-1.43c-.73-5.33-.68-6.1-.15-7.35,1.41-3.31,6.25-4.96,9.89-4.41l.44-1.94c-4.23-1.3-6.44-4.21-6.17-5.72.11-.59.67-1.26,1.51-1.8,2.01-1.29,4.99-1.6,7.97-.84l.67-1.88c-4.58-2.11-7.34-6.97-6.71-11.82.56-4.36,3.72-8.05,8.05-9.4l1.58-.49-1.17-1.17c-.85-.85-2.82-3.2-2.88-6.66-.08-4.95,3.84-7.85,4.29-8.17l-1.11-1.66c-2.89,1.84-6.64,1.7-9.11-.36-3.1-2.57-2.59-6.75-2.56-6.93l.58-4.4-2.41,3.73c-.89,1.37-2.4,2.11-3.76,1.83-.12-.02-.56-.18-1.17-1.12-1.04-1.61-1.77-4.27-1.79-6.17,2.21.67,4.68.76,7.13.13l1.39-.35-.81-1.18c-.4-.58-1.27-2.04-.86-3.09.25-.65,1.03-1.2,2.12-1.52,1.74-.5,3.79-.29,4.87.51,2.2,1.62,2.34,7.17-1.25,13.66l-1.02,1.85h-.05Zm36.44-16.53c-.52.3-1.26.32-1.97.06-.94-.34-1.69-1.11-2.06-2.1l-.61-1.66,5.65.22c-.02,1.55-.53,3.21-1.01,3.48h0Zm-48.12-33.13c2.72,2.31,5.51,4.54,8.39,6.69.39,2.01.69,5.83.76,8.27.11,3.78-.85,7.87-1.61,10.04l-7.34-.29c.72-3,1.17-7.81,1.3-11.67.14-4.07-.61-9.23-1.51-13.04h0Zm11.15,14.9c-.04-1.45-.2-4.22-.49-6.55,3,2.16,6.09,4.22,9.27,6.19.2,1.37.33,3.84.15,5.88-.21,2.46-.48,4.09-.73,5.05l-9.73-.39c.84-2.61,1.63-6.63,1.53-10.18h0Zm10.92.96c2.22,1.33,4.47,2.62,6.77,3.87.16,1.04.31,2.75.24,3.93-.07,1.02-.13,1.71-.19,2.19l-7.51-.3c.28-1.21.51-2.86.69-4.96.11-1.34.11-3.15,0-4.73h0Zm8.92,5c3.73,1.96,7.55,3.8,11.47,5.52l-11.57-.46c.06-.55.12-1.24.18-2.14.04-.64.01-1.78-.09-2.92h.01Zm-13.58-27.1c2.17,1.93,5.37,2.29,8.09,1.11-1.05,2.52-3.32,4.31-5.84,4.37-3.51.05-5.69-3.35-5.71-3.38l-.93-1.5-.81,1.57c-1.14,2.23-1.28,4.78-.39,7,.74,1.82,2.08,3.18,3.69,3.73,1.92.65,4.19.14,6.04-1.26-.15,1.04-.63,1.98-1.38,2.6-.85.7-1.68,1.32-2.25,1.69-8.25-5.43-15.9-11.51-22.9-18.24-.86-.83-1.72-1.67-2.56-2.52l24.48-5.25c-.88,1.62-1.4,3.5-1.39,5.32,0,2,.67,3.69,1.88,4.76h-.02Zm-19.64-17.97c-.08-.75-.24-1.55-.43-2.34,1.66,1.11,3.33,2.09,4.98,2.97.09.59.21,1.53.37,3.11.11,1.11.07,2.97,0,4.13l-5.17,1.11c.34-2.67.5-6.79.26-8.98h-.01Zm6.94,7.44c.08-1.58.02-3.41-.03-3.9-.07-.71-.14-1.31-.2-1.82,3.52,1.68,6.87,2.88,9.65,3.7l-9.42,2.02h0Zm-26.99-43.92c.05,1.07.13,2.14.26,3.19-1.29.45-3.57,1.04-5.27.93-1.5-.1-3.3-1.05-4.36-1.72l.49-3.45c1.2.56,2.84,1.11,4.03,1.36.52.11,1.06.16,1.6.16,1.17,0,2.33-.22,3.26-.47h-.01Zm-9.68,4.55c1.24.71,2.92,1.46,4.54,1.57.17.01.34.02.52.02,1.67,0,3.7-.46,5.17-.93.19,1.17.41,2.34.7,3.48-1.37.64-3.85,1.57-5.82,1.44-2-.14-4.36-1.4-5.59-2.18l.48-3.39h0Zm-8.76-18.13c2.4-.57,3.99-1.63,4.83-3.21.92-1.75.69-3.75.12-5.6,1.9,1.77,4.15,3.28,6.54,2.83,2.77-.52,4.37-3.43,5.51-6.24.01,3.81.24,7.48,2.67,8.41,2.03.79,4.12-.91,6-2.6-.66,1.98-1.18,4.32.03,6.19.75,1.17,2.02,1.92,3.84,2.26l-11.12,7.01-.02.8c-.02.55,0,1.1,0,1.65-1.16.35-2.95.73-4.39.42-1.62-.34-3.41-1.08-4.14-1.49l.4-2.81-10.26-7.63h0Zm-54.31,53.89c-.79-1.49-3.19-6.84-1.19-12.98,1.42-4.34,4.6-7.81,9.19-10.05,2.03-.99,4.23-1.59,6.54-1.78l1.48-.13-.11-1.48c-.16-2.12.21-4,1.1-5.58,2.74-4.9,10.26-6.28,15.64-4.75,7.19,2.04,10.07,8.96,10.57,10.33l.38,1.02,18.09-.74.58-4.09c1.54.89,3.74,1.89,5.75,2.03.18,0,.35.02.53.02,2.09,0,4.42-.8,5.98-1.5.51,1.69,1.11,3.35,1.83,4.96,3.21,7.2,8.06,12.59,13.28,16.62.5,1.19.99,2.93,1.16,4.5.28,2.53-.03,7.1-.35,9.21l-8.92,1.91,1.87,1.94c1.48,1.54,3.01,3.07,4.54,4.54,1.41,1.36,2.86,2.69,4.33,3.99,1.05,3.17,2.43,10.03,2.25,15.35-.14,3.98-.64,9-1.34,11.66l-13.64-.54-.09,1.47c-.24,3.95-1.99,6.21-2.86,6.32-.27.03-.76-.11-1.37-.62-1.12-.92-2.39-2.85-2.89-5.69-.02-.51-.08-1.03-.2-1.54l-2.96.45c.04.46.09.91.16,1.36,0,1.12-.35,2.23-1.03,3.15-.82,1.12-2,1.81-3.22,1.91-1.14.09-2.32-.34-3.28-1.18-1.04-.92-1.67-2.18-1.77-3.57,0-.06,0-.12-.01-.18l-2.99.18c0,.06,0,.13.01.19.08,1.75-.55,3.47-1.75,4.73-1.09,1.15-2.5,1.78-3.88,1.77-1.42-.03-2.89-.8-3.93-2.06-1.19-1.44-1.69-3.33-1.37-5.19l.5-2.87-52.11,25.11c.88-1.7,1.5-3.52.79-4.46-1.05-1.38-3.47-.64-6.02.13-.43.13-.96.29-1.43.42.32-.34.67-.7.95-.97,1.43-1.44,2.38-2.39,1.73-3.38-.65-.99-1.84-.48-3.49.23-.39.17-.94.4-1.39.57.51-1.14,2.02-3.13,4.19-3.44,2.69-.38,4.79,2.11,4.87,2.22l2.69,3.26-.94-4.12c-.52-2.29-.19-4.58.89-6.13.53-.76,1.2-1.26,1.8-1.33,1.16-.15,2.76,1.12,3.82,3.03l1.15,2.08.68-2.28c.86-2.87,1.95-4.56,3.08-4.77,1.22-.22,3.64,1.65,4.81,2.54,1.14.88,1.77,1.37,2.48.78.25-.21.61-.68.18-1.54-1.35-2.74-.39-6.13,2.2-7.7,2.52-1.54,5.83-.94,7.7,1.38l1.52,1.88.26-2.4c.44-4.17,3.77-6.73,6.64-6.5,2,.16,3.95,1.69,4.95,3.92l.64,1.41,1.02-1.16c3.67-4.18,4.09-10.12.98-13.84-1.1-1.31-2.46-2.1-3.76-2.58,2.71-1.48,4.61-4.03,4.95-6.95.46-3.91-2.07-6.78-2.86-7.57l-1.08-1.08-.56,1.42c-2.08,5.26-7,7.46-10.36,6.48-3-.87-4.44-3.95-4.81-4.88l-1.97-4.92.04,5.3c.01,1.95-.78,3.75-2.19,4.95-1.06.9-2.33,1.32-3.39,1.13-1.84-.32-3.77-2.61-3.67-5.73l-2-.13c-.37,3.85-3.43,6.31-6.03,6.17-2.9-.14-4.61-3.3-4.63-3.33l-1.29-2.43-.55,2.57c.18-2.8.17-6.3-.5-8.3-.55-1.65-1.79-3.65-2.82-5.05,1.63-.27,3.36-.57,5.2-.93l1.99-.38-.94-1.79h-.02Zm-15.95,9.28c-.26-1.26-.87-3.3-1.44-4.81,2.8-.2,6.11-.58,10.02-1.2.98,1.27,2.4,3.43,2.99,5.18.9,2.68.5,8.38.17,10.72-.41.5-.9.93-1.45,1.26-1.03.61-2.16.8-3.1.51-1.44-.44-2.58-2.04-2.83-3.99l-.42-3.24-1.46,2.92c-.66,1.31-1.6,2.27-2.63,2.9.32-3.03.58-8.19.16-10.26h0Zm-2.49-4.73c.55,1.41,1.24,3.61,1.51,4.94.43,2.14.09,7.86-.23,10.57-1.29.48-2.62.49-3.67,0-2.29-1.09-2.65-4.31-2.65-4.34h-.66c.16-1.04.27-2.42.26-4.29,0-2.47-.64-5.11-1.31-6.91,1.81.16,4.03.2,6.75.04h0Zm-17.78-4.68c.17-.05,1.09-.22,3.22,1.83l.09.09c1.09,1.03,2.88,2.11,6.59,2.59.64,1.58,1.43,4.37,1.43,7.03,0,1.92-.12,3.29-.28,4.31h-.32c-.13,1.65-.96,3.14-2.28,4.08-1.11.79-2.43,1.1-3.55.82-1.02-.26-1.98-1.05-2.59-2.14.25-.31.48-.71.68-1.19,1.3-3.16,1.29-9.47,0-12.5-.89-2.08-2.18-3.58-3.36-4.62.13-.16.25-.26.37-.3h.01Zm-21.57-1.54c.42-1.13,2.09-2.24,4.16-2.77,2.19-.57,4.35-.37,5.36.5.54.47.78,1.16,1.07,2.04.46,1.36,1.02,3.05,3,4.22,1.55.92,3.03,1.19,4.39.79,1.38-.4,2.11-1.34,2.64-2.11,1.07.96,2.22,2.32,3.02,4.19,1.2,2.79,1.2,8.81,0,11.73-.07.17-.14.32-.22.46-.26-.89-.32-1.89-.07-2.94l.83-3.44-2.51,2.49c-4.92,4.9-6.14,4.68-6.12,4.72-.22-.33,0-1.79.14-2.66.31-2.01.63-4.09-.79-5.07-1.84-1.27-4.75.79-7.56,2.77-.82.58-1.96,1.39-2.7,1.77.17-.56.56-1.39,1.15-2.14,1.32-1.68,3.23-2.33,4.37-2.72.85-.29,1.73-.59,1.63-1.54-.07-.64-1.24-1.96-4.03-2.87.4-.54.64-1.26.64-2.05,0-1.67-1.08-3.03-2.4-3.03s-2.4,1.36-2.4,3.03c0,.45.08.87.22,1.25-.75-.08-1.56-.12-2.43-.14.08-1.25-.4-2.46-.83-3.48-.56-1.34-.87-2.21-.57-3.01h0Zm19.56,30.44l12.04-.34-7.06,8.48-4.98-8.14Zm22.5,8.23l-7.92-8.64,13.8-.39-5.88,9.03Zm14.02-3.19l-5.57-5.91,10.72-.3-5.15,6.21Zm6.9.34l2.79.88-3.92,2.47,1.13-3.35Zm-8.83,8.2l-7.13,4.49,1.02-6.84,6.11,2.35h0Zm-14.99,4.81l5.12,1.4-4.69,2.95-.44-4.36h.01Zm8.41,27.81c-2.17-.02-4.4-.05-5.06,1.72-.37,1,.05,1.91.63,2.68-2.15-.48-4.65-.9-6.11.68-1.33,1.43-.79,3.34-.32,5.02.35,1.23.71,2.5.23,3.12-.55.71-2.24.95-3.4.49-2.23-.89-3.82-5.55-2.62-11.82l.82-4.25-3.27,2.83c-.23.2-2.3,1.92-4.38,1.3-.69-.2-1.28-.59-1.6-.88.13-.07.28-.15.41-.21.75-.38,1.79-.9,2.78-1.86,1.37-1.33,2.28-3.12,2.68-5.3l.8-4.33-3.28,2.94c-.56.5-2.61,2.12-5.29,1.87-1.99-.19-3.81-1.22-4.08-1.66.42-.59,2.62-1.5,3.69-1.94,2.45-1.01,4.56-1.88,4.31-3.78-.21-1.6-1.9-1.96-3.26-2.26-.57-.12-1.75-.38-1.94-.55-.02-.16.16-.78.85-1.54.92-1.03,2.17-1.68,3.16-1.67.93.02,1.73.63,2.51,1.22.88.67,2.08,1.58,3.4.83,1.42-.8,1.22-2.52,1.06-3.89-.04-.34-.1-.84-.1-1.2.65.19,2.25.92,5.72,3.68l.83.66,52.47-33.06-74.76,2.11-.42.7c-1.3,2.16-2.99,3.95-5.02,5.32-.84.57-3.08,2.08-3.67,1.81-.47-.22-1.32-2.91.18-9.22l-2.9-.76c-.55,1.92-2.21,3.3-4.12,3.42-2.08.13-4.13-1.22-4.55-3.02-.23-.98.02-2.1.68-3.06.67-.99,1.71-1.72,2.89-2.05.26-.05.52-.1.78-.16l-.58-2.94c-.28.04-.56.1-.83.17-2.06.34-3.67-.09-4.11-.78-.72-1.13.78-4.12,2.86-5.71.88-.67,1.63-.89,2.35-1.1.86-.25,1.92-.57,2.7-1.67,4.47-.02,7.08.9,8.33,1.62-1.32.47-3.31,1.31-4.79,3.2-1.11,1.42-2.42,4.09-1.17,5.22,1.16,1.04,2.86-.16,5.44-1.98,1.37-.97,4.58-3.24,5.27-2.76.39.27.09,2.19-.05,3.12-.3,1.95-.58,3.79.73,4.62,1.36.85,3.38-.07,6.78-3.18.34,2.96,2.41,5.28,4.76,5.88,1.7.43,3.6.02,5.2-1.13.87-.62,1.59-1.42,2.12-2.33.56,1.05,1.44,2.11,2.78,2.75,2.56,1.22,6.3.45,8.74-2.4.75,1.68,2.04,2.94,3.62,3.42,1.47.45,3.18.19,4.7-.7,1.28-.75,2.31-1.89,2.97-3.25,1.05,1.19,2.76,2.6,5.1,2.71,2.82.13,5.43-1.56,6.91-4.16.92,2,2.58,3.48,4.54,3.82,1.64.29,3.52-.3,5.02-1.58,1.11-.94,1.93-2.15,2.41-3.52.99,1.37,2.51,2.83,4.68,3.46,4.46,1.29,9.51-1.37,12.09-6.17.74,1.08,1.57,2.78,1.34,4.77-.4,3.38-3.53,6.12-7.46,6.51l.15,1.99c.71-.04,4.37-.09,6.57,2.54,2.22,2.64,2.13,6.77-.06,10.08-1.42-2.13-3.55-3.5-5.84-3.68-3.76-.29-7.21,2.47-8.41,6.41-2.55-1.93-6.09-2.19-8.91-.48-2.68,1.63-4.06,4.72-3.7,7.76-1.83-1.33-3.68-2.39-5.28-2.1-1.62.29-2.93,1.69-3.98,4.25-1.39-1.65-3.1-2.53-4.66-2.33-1.18.15-2.32.92-3.19,2.17-.98,1.4-1.49,3.17-1.5,5.08-1.17-.76-2.78-1.41-4.65-1.14-2.86.4-5.02,2.78-5.82,4.82-.39.99-.37,1.76.04,2.27.66.81,1.78.53,3.11,0-1.28,1.31-2.18,2.38-1.6,3.4.66,1.17,2.22.7,4.58-.02,1.05-.32,3.18-.97,3.78-.86-.05.74-1.01,2.84-2.38,4.84l-2.57,1.24,1.58,1.5c1.3,1.23,1.83,1.97,2.04,2.36-.64.12-1.81.1-2.5.1l.02-.04Zm66.95,18.09c.72-10.57-9.44-27.91-15.51-38.27-1.06-1.81-1.96-3.35-2.61-4.52l4.46-2.15c.2,1.8.92,3.51,2.09,4.94,1.62,1.96,3.87,3.1,6.19,3.15,2.23.06,4.44-.94,6.11-2.7.59-.62,1.08-1.31,1.48-2.06.27.32.56.62.88.9,1.56,1.37,3.55,2.07,5.49,1.93,2.09-.16,4.06-1.3,5.4-3.12.06-.08.11-.15.16-.23.66,1.22,1.48,2.26,2.43,3.04,1.18.96,2.47,1.42,3.63,1.27,1.89-.23,3.57-2.05,4.57-4.67,5.22,8.13,10.79,20.23,12.53,32.75l.08.6c.76,5.41,1.92,13.77-.37,23.16l-.41-.22c-1.85,3.47-5.43,4.47-7.7,3.42-2.36-1.1-2.84-4.25-2.86-4.38l-1.98.29c.06.39.58,3.5,2.94,5.27.12,1.7.67,5.68,1.7,7.33.63,1.01,1.53,2.09,2.38,2.85-.76,1.47-1.54,2.9-2.3,4.26h-.16c-1.71.42-10.75,2.25-20.62-3.22-7.97-4.42-11.57-10.83-12.85-13.69,3.21-5.97,4.52-11.36,4.84-15.91v-.02Zm32.06,26.71c-.51-.51-1.1-1.21-1.62-2.05-.64-1.03-1.07-3.58-1.29-5.27.54.14,1.1.22,1.66.22,1.79,0,3.63-.7,5.16-1.94-.36,1.06-.75,2.13-1.2,3.2-.83,1.94-1.75,3.91-2.71,5.84h0Zm-11.37,18.32c-3.17.55-10.98,1.2-19.41-3.47-8.93-4.95-12.38-12.4-13.22-14.56-.07-.18-.2-.31-.34-.42.63-.73,1.23-1.46,1.81-2.18,1.57,3.29,5.45,9.64,13.45,14.08,5.93,3.29,11.61,4.1,15.76,4.1,1.59,0,2.95-.12,4.02-.26-.67.92-1.36,1.83-2.06,2.72h-.01Zm3.73-5.06c-2,.47-10.83,2.09-20.48-3.26-8.39-4.65-11.95-11.52-13.04-14.12,1.15-1.56,2.17-3.08,3.07-4.58,1.77,3.44,5.65,9.21,13.08,13.33,5.93,3.29,11.61,4.1,15.76,4.1,1.94,0,3.54-.18,4.69-.36-1.11,1.87-2.16,3.53-3.08,4.89h0Zm-80.14,13.22c1.69-2.51,2.63-5.17,3.18-7.5.55,2.59,1.4,5.29,3,7.11,1.69,1.93,3.7,3.59,5.98,4.96-1.78,1.36-3.37,2.94-4.75,4.7-1.63,2.08-2.59,4.39-3.18,6.57-.87-2.43-2.18-5.06-4.16-7.29-1.31-1.47-2.87-2.71-4.68-3.72,1.84-1.39,3.38-3,4.61-4.82h0Zm-1.38,11.52c2.13,2.84,3.58,6.81,4.33,11.82.1.67.28,1.91,1.6,1.91h0l1.32-.08.18-1.29c.06-.42.11-.95.16-1.56.26-2.83.69-7.58,3.55-11.23,1.68-2.14,3.71-3.97,6.05-5.44l2.29-1.44-2.44-1.18c-2.25-1.09-4.23-2.46-5.93-4.08,15.04-8.27,25.34-16.43,32.33-24.06,1.12,2.71,4.9,10.18,13.96,15.2,5.93,3.29,11.6,4.1,15.75,4.1,1.05,0,1.99-.05,2.83-.13-13.19,15.69-30.88,26.44-46.72,36.08-6.09,3.7-11.88,7.24-17.11,10.83l-.53-.28c-.22.42-.49.81-.78,1.18-1.08.76-2.13,1.53-3.16,2.29-.25.09-.51.17-.77.23-1.61.37-3.16.13-4.27-.68-1.83-1.32-2.51-4.18-1.65-6.84,0-.04.03-.08.04-.13l-1.9-.63s-.03.08-.04.13c-.56,1.6-1.75,2.91-3.3,3.59-1.44.63-3,.66-4.3.07-2.42-1.1-3.64-4.15-2.78-6.94l-1.91-.59c-1.07,3.48.33,7.28,3.22,9-.43,4.92,2.13,9.01,6.27,9.86.29.06.59.09.9.09.92,0,1.87-.26,2.81-.68-.44.42-.88.85-1.29,1.28-.21-.09-.45-.12-.69-.05-1.58.48-9.93,2.66-18.69-2.2-6.54-3.63-9.6-9.07-10.85-12.02,11.85-12.69,24.79-21.8,31.52-26.14h0Zm-8.01,30.65c1.49.33,3.12.17,4.63-.49.76-.34,1.46-.79,2.08-1.33.26,2.05,1.23,3.87,2.79,5,.46.33.98.58,1.52.78-1.97,1.94-4.6,3.51-6.3,3.17-2.95-.6-4.82-3.51-4.72-7.13h0Zm-1.4,21.6c-.03.08-.08.19-.13.31-2.72.67-10.12,1.86-17.86-2.43-7.92-4.39-10.74-11.46-11.42-13.53-.14-.42-.53-.67-.95-.67.67-.89,1.36-1.76,2.05-2.62,1.14,2.96,4.39,9.51,12.02,13.74,4.73,2.62,9.37,3.35,13.03,3.35,1.66,0,3.11-.15,4.29-.34-.37.72-.72,1.45-1.04,2.19h0Zm2.33-4.47c-2.87.68-10.1,1.71-17.65-2.48-7.92-4.39-10.74-11.46-11.42-13.53-.03-.09-.08-.15-.13-.22,1.08-1.29,2.18-2.55,3.3-3.79,1.56,3.32,4.88,8.57,11.35,12.16,4.74,2.63,9.37,3.35,13.03,3.35,2.1,0,3.86-.24,5.16-.49-1.37,1.61-2.58,3.27-3.64,5h0Zm-49.6,28.33c1.23-14.53,7.68-27.68,15.95-38.9v.03c.73,2.24,3.8,9.91,12.35,14.65,4.74,2.63,9.37,3.35,13.03,3.35,2,0,3.69-.22,4.97-.45-2.29,6.58-7.08,24.16-1.02,42.87,1.43,4.42,3.3,8.38,5.52,11.98-.49,2.85-2.71,12.04-11.56,20.45-7.23,6.87-14.68,9.24-18.42,10.05-14.88-18.38-22.79-40.99-20.84-64.02h.02Zm27.8,71.78c4.2-1.05,11.41-3.69,18.39-10.32,7.43-7.05,10.4-14.52,11.58-18.97.71.75,1.43,1.49,2.18,2.2-.82,3.69-3.43,11.81-11.33,19.31-7.29,6.92-14.79,9.28-18.5,10.06-.79-.75-1.55-1.52-2.31-2.29h0Zm17.01-11.76c-7.37,7-14.97,9.33-18.63,10.09-1.35-1.43-2.65-2.89-3.91-4.37,4.2-1.05,11.4-3.7,18.37-10.32,7.77-7.37,10.66-15.19,11.73-19.55,1.17,1.69,2.43,3.3,3.77,4.83-.82,3.69-3.43,11.82-11.33,19.31h0Zm31.27,40.64c-2.85-.86-5.64-1.83-8.37-2.89,1.46-.14,2.86-.68,3.97-1.61,1.53.69,3.07,1.05,4.54,1.05,2.85,0,5.39-1.27,6.83-3.67,1.64-2.73.13-7.35-1.41-10.08.23-.63.4-1.29.48-2,.29-2.6-.6-5.24-2.43-7.24l-1.47,1.35c1.45,1.57,2.15,3.64,1.92,5.67-.18,1.64-.94,3.02-2.07,3.8-1.86,1.28-4.78.97-7-.73-.04-.03-.07-.06-.11-.08l-1.23,1.58s.07.06.1.08c1.33,1.06,2.16,2.62,2.28,4.31.12,1.57-.38,3.05-1.37,4.08-1.85,1.92-5.12,2.05-7.47.31l-.77,1.03c-11.52-5.09-21.85-11.88-30.65-19.9,4.23-1.1,11.28-3.78,18.1-10.25,7.54-7.16,10.5-14.91,11.63-19.21,5.06,4.56,10.88,8.51,17.21,12.27.59,2.42-.36,5.01-2.43,6.24-1.98,1.17-4.58.88-6.47-.71l-1.29,1.53c1.48,1.25,3.31,1.9,5.11,1.9,1.28,0,2.54-.33,3.67-.99,2.33-1.38,3.63-3.99,3.58-6.69,4.36,2.53,8.94,4.99,13.66,7.53,11.16,6,23.1,12.43,34.47,21.09-.98,3.95-3.72,11.56-11.17,18.62-7.68,7.29-15.61,9.52-19.08,10.18-11.13-10.8-21.69-16.06-22.58-16.49l-.22-.09h.04Zm-1.95-10.59c-.06-.83-.25-1.64-.56-2.4,2.02.44,4.06.14,5.64-.96.46-.32.88-.71,1.24-1.16,1.17,2.5,1.78,5.49.89,6.97-1.56,2.58-4.92,3.37-8.29,2.07.81-1.3,1.2-2.88,1.08-4.52h0Zm31.92,34.92c4.11-.96,11.6-3.56,18.84-10.43,7.98-7.57,10.82-15.63,11.82-19.91.73.64,1.45,1.3,2.18,1.97-.48,2.8-2.66,12.04-11.57,20.49-7.92,7.51-16.09,9.65-19.38,10.24-.62-.8-1.25-1.59-1.89-2.36h0Zm17.46-11.88c-7.56,7.18-15.38,9.46-18.92,10.15-1.33-1.53-2.67-2.97-4.02-4.34,4.13-.98,11.57-3.58,18.77-10.41,7.3-6.93,10.3-14.26,11.52-18.73,1.38,1.09,2.76,2.21,4.12,3.37-.65,3.31-3.08,12-11.47,19.96h0Zm-41.2,140.65c28.98-17.12,45.87-49.43,43.05-82.36-1.5-17.53-8.14-31.52-16.08-42.28,3.96-.85,11.82-3.35,19.41-10.56,8.25-7.84,11.02-16.38,11.9-20.32,5.96,5.74,11.62,12.34,16.73,20.12,7.62,11.6,11.24,32.16,13.64,45.77.66,3.73,1.23,6.98,1.77,9.34-.2.57-.28,1.31-.38,2.19-.29,2.66-.78,7.1-3.48,11.1-1.45,2.15-3.44,3.97-5.91,5.42l-2.65,1.55,2.85,1.14c2.44.97,4.47,2.35,6.02,4.1,1.44,1.62,2.61,3.7,3.51,6.2-7.71,16.79-17.04,32.86-27.77,47.76-11.29,15.68-21.74,26.75-30.67,35.67-3.32.02-14.12-.5-25.83-7.27-10.37-5.99-15.39-13.64-17.19-16.92,4.22-4.59,8.13-8.17,11.06-10.66h.02Zm93.29-49.48c-.87-2.43-2.18-5.06-4.16-7.28-1.31-1.47-2.87-2.71-4.68-3.72,1.84-1.39,3.38-3,4.61-4.82,1.69-2.51,2.63-5.17,3.18-7.5.55,2.59,1.4,5.29,3,7.11,1.69,1.93,3.7,3.59,5.98,4.96-1.78,1.36-3.37,2.94-4.75,4.7-1.63,2.08-2.59,4.39-3.18,6.57v-.02Zm-72.5,95.39c-2.93.08-11.29-.39-22.78-7.03-11.45-6.62-16.4-15.27-17.66-17.81.63-.85,1.26-1.68,1.89-2.49,2.14,3.72,7.41,11.2,17.61,17.1,10,5.78,19.06,6.71,23.85,6.71h.64c-1.22,1.2-2.4,2.37-3.55,3.53h0Zm5.71-5.66c-2.43.25-13.22.87-25.64-6.31-10.52-6.08-15.54-13.86-17.27-17.06,1.32-1.64,2.65-3.2,3.94-4.66,2.15,3.72,7.41,11.2,17.6,17.09,9.93,5.74,19.68,7.27,24.84,7.52-1.19,1.17-2.35,2.31-3.47,3.42h0Zm-50.47,1.27c.27.08.55.14.83.18-1.06,1.99-3.9,4.29-5.44,4.12-1.64-.15-3.46-.71-4.27-1.62.93-2.24,1.92-4.42,2.96-6.52,1.5,1.85,4.02,3.26,5.91,3.83h0Zm-15.89,34.46c.39-10.92,2.75-20.88,6.22-29.79,1.3.96,3.17,1.47,4.89,1.63.09,0,.19.01.29.01,2.67,0,6.49-3.17,7.5-6.1,2.43-.35,4.7-1.9,5.89-4.25l-1.78-.91c-1.25,2.47-4.07,3.76-6.54,3.03-1.89-.57-4.54-2.22-5.44-3.94,2.44-4.64,5.12-8.91,7.88-12.8,1.88,3.44,7.14,11.47,17.97,17.73,9.9,5.72,17.68,7.03,21.84,7.26-8.26,8.46-14.66,16.33-18.71,27.22l-1.52-.42c-.52,1.89-1.75,3.41-3.38,4.17-1.21.57-2.47.64-3.48.19-1.73-.78-2.79-3.11-2.53-5.57,0-.04,0-.08.01-.12l-1.99-.22s0,.08,0,.12c-.19,1.55-.99,2.94-2.21,3.82-1.05.76-2.28,1.05-3.39.81-2.17-.48-3.7-2.86-3.48-5.43l-1.99-.18c-.29,3.27,1.57,6.35,4.33,7.35.53,4.39,3.41,7.47,7.07,7.47h.13c2.8-.06,5.54-3.41,6.89-5.91.51-.11,1.01-.28,1.51-.51,1.18-.56,2.2-1.41,2.99-2.47-.51,1.64-1,3.32-1.41,5.11-.56,2.43-1,4.91-1.32,7.41-2.37,1.92-9.28,6.41-17.59,6.41h-.04c-7.98-.01-15.39-4.61-17.89-6.48-.61-4.85-.87-9.74-.7-14.67v.03Zm32.09,5.26c-1.3,2.01-3.15,3.81-4.57,3.84h-.09c-2.46,0-4.44-2.09-5-5.13,1.26-.03,2.53-.47,3.63-1.27.58-.42,1.09-.92,1.52-1.48.62,1.66,1.75,2.99,3.22,3.66.41.18.84.31,1.28.38h.01Zm10.72,70.59c-1.74,1.63-4.59,1.26-7.06-.8.83-.78,1.42-1.84,1.71-3.08.17-.74.23-1.51.17-2.27,1.53.85,3.19,1.14,4.68.72.41-.12.8-.3,1.18-.52.42,2.42.29,5.05-.67,5.95h0Zm1.65-12.08c.03.9-.12,1.78-.48,2.58-.49,1.1-1.3,1.88-2.23,2.15-1.75.5-4.07-.65-5.54-2.74-.02-.03-.05-.07-.07-.1l-1.64,1.14s.05.07.07.1c.96,1.4,1.3,3.08.94,4.62-.27,1.17-.91,2.08-1.81,2.57-1.12.61-2.55.52-3.84-.12-6.84-7.26-12.66-15.19-17.31-23.58.91.38,1.88.59,2.86.59.5,0,1-.05,1.5-.16,3.7-.8,6.26-4.53,5.82-8.49l-1.99.22c.33,2.95-1.54,5.72-4.25,6.31-2.25.49-4.63-.6-5.92-2.71l-.19.12c-2.18-4.38-4.04-8.87-5.56-13.46,3.03,1.95,7.68,4.05,13.64,4.06h.05c8.91,0,14.96-4.71,17.27-6.88.72,11.14,3.65,22.6,8.68,33.78h0Zm-8.83-40.87c-2.08,1.75-8.47,6.44-17.12,6.44h-.04c-7.64-.01-13.78-3.56-16.1-5.29-.52-2.23-.97-4.48-1.32-6.74,3.59,2.31,10.36,5.82,17.54,5.83h.04c7.55,0,13.92-3.38,17.32-5.73-.16,1.82-.27,3.65-.31,5.49h0Zm-17.16,8.44h.04c7.58,0,13.84-3.46,17.11-5.87,0,.67.03,1.35.05,2.02-.18.04-.36.12-.5.27-1.1,1.19-7.08,7.09-16.67,7.09h-.04c-7.15-.01-12.24-3.28-14.66-5.26-.26-.89-.49-1.78-.73-2.68,3.25,1.97,8.76,4.4,15.39,4.42h.01Zm13.84,45.14c.58-.03,1.14-.13,1.68-.33,1.93,1.78,4.13,2.72,6.15,2.72,1.51,0,2.91-.51,4.04-1.56,2.12-1.98,1.64-6.51,1.01-9.02.24-.35.46-.72.63-1.13.04-.09.06-.18.1-.27.49,1.02.99,2.03,1.52,3.04,8.03,15.31,20.03,28.5,34.51,38.12-19.35-7.16-36.26-18.14-49.64-31.57h0Zm77.4,28.06s-.04.04-.05.07c-1.99,2.39-4.99,6.01-3.77,9.02.83,2.04,3.15,2.79,5.01,3.4.69.22,1.7.55,1.95.74-.24.22-.98.56-1.54.81-1.68.76-3.98,1.8-5.22,4.18-1.19,2.28-.81,4.73-.55,6.35.05.3.1.66.13.95-.44-.34-1.05-.95-1.49-1.4-1.68-1.69-3.6-3.6-5.66-3.03-1.35.37-2.08,1.66-2.56,2.95-.26-2.42-.57-6.86-.82-14.99l.18-.49c6.48-4.49,11.64-7.3,14.4-8.56h-.01Zm.14-600.82c.74,1.14,1.56,1.81,2.45,1.99,1.37.28,2.81-.05,4.03-.86.22,1.85.98,4.33,3.25,6.22,2.01,1.67,4.68,2.35,7.28,2.01-1.13,1.64-2.12,3.88-2.07,6.66.05,3.11,1.38,5.47,2.47,6.9-4.34,1.89-7.44,5.88-8.03,10.53-.55,4.32,1.16,8.64,4.35,11.56-2.01.08-3.89.6-5.37,1.55-1.33.85-2.19,1.96-2.4,3.12-.38,2.07,1.15,4.44,3.72,6.18-3.29.64-6.49,2.5-7.75,5.48-.7,1.64-.7,2.92-.2,6.85-.28-.11-.55-.22-.83-.33-2.14-.87-4.35-1.77-7.85.92-3.62,2.78-4.92,7.69-3.43,11.98-5.58-1.32-11.46.79-14.38,5.43-1.82,2.89-2.3,6.58-1.32,10.13.44,1.59,1.15,3.07,2.09,4.4-3.71-.63-7.55.31-10.44,2.82-2.6,2.25-4.1,5.53-4.26,9.01-.63-.58-1.34-1.08-2.13-1.47-2.09-1.03-4.49-1.19-6.58-.44-3.08,1.11-4.84,4.66-5.45,7.22-2.48-1.52-7.84-4.22-11.84-2.02-3.74,2.07-5.67,6.45-4.93,10.65-2.03-.63-4.16-.46-5.81.51-1.53.91-2.64,2.47-3.13,4.39-.46,1.83-.29,3.81.45,5.61-2.54.7-4.46,2.3-5.06,4.28-.77,2.58.26,4.26,1.18,5.74.01.02.02.04.03.05h-.03c-3.31-.18-7.08-.39-10.85,3.6-3.72,3.92-3.67,8.99.06,13.73-6.08,3.41-8.84,8.63-7.48,11.46,1.02,2.11,4.6,3.27,9.08,2.58-.95,1.16-1.69,2.5-2.17,3.96-1.02,3.13-.71,6.4.85,8.97,2.72,4.5,8.64,6.23,13.79,4.37-.53,2.2-.77,5.21.79,7.65,2.47,3.87,10.75,3.54,16.42,2.18-.5.99-.8,2.13-.87,3.38-.21,4.05,2.03,8.76,5.1,10.71,2.08,1.32,4.84,1.71,7.56,1.08,1.39-.32,2.68-.88,3.85-1.64-.46,3.08.41,6.25,2.55,8.45,1.86,1.9,4.55,2.93,7.4,2.83,2.04-.07,4-.73,5.67-1.85-.37,5.12,1.98,9.92,6.15,12.07,3,1.55,6.07,1.25,8.11.73-1.21,4.3-.15,8.89,2.89,11.95,3.46,3.47,8.81,4.29,13.4,2.41-1.19,3.44-.51,7.27,2.03,9.81,2.07,2.07,5.18,2.95,8.22,2.44-.91,2.42-1.83,6.6.27,10.8,2.27,4.55,7.09,7.3,12.37,7.3h.13c-3.25,3.81-4.1,9.1-1.88,13.3,1.61,3.04,4.36,4.54,6.59,5.28-1.21.73-2.26,1.71-3.05,2.88-1.37,2.03-1.87,4.47-1.38,6.69.58,2.61,2.45,4.76,4.91,5.93-1.67.65-3.1,1.61-3.31,3.03-.41,2.77,3.86,5.29,8.31,6.88-2.57,1.9-4.34,4.46-4.98,7.23-.47,2.05-.21,3.96.7,5.26,1.68,2.37,5.63,3.07,9.66,1.93-1.29,2.97-2.76,8.17-.79,13.89,1.22,3.55,3.33,6.08,5.19,7.75-3.33.57-6.17,2.75-7.13,5.76-1.05,3.27,1.62,5.66,3.97,7.77.41.37.82.74,1.22,1.11-.21-.06-.41-.12-.62-.17-3.99-1.13-8.52-2.4-11.97.47-3.36,2.79-4.84,7.41-3.92,11.85-2.48-.03-4.65.83-5.88,2.45-1.03,1.35-1.42,3.26-1.06,5.24.25,1.39.84,2.71,1.7,3.88-3.27-.23-6.4.85-8.31,3.05-1.67,1.93-2.42,4.7-2.04,7.6.25,1.95,1,3.81,2.13,5.42-3.82-.66-7.69.38-10.33,3-2.14,2.12-3.31,5.22-3.22,8.51.06,2.11.63,4.17,1.64,6.01-4.01-1.21-8.44-.5-11.83,2.11-4.08,3.15-5.82,8.32-4.75,13.23-3.1-1.79-6.42-1.79-8.14-.35-1.04.87-1.68,2.4-1.74,4.2-.04,1.06.12,2.14.44,3.19-1.45-.68-3.01-1.1-4.63-1.2-3.19-.19-6.21.84-8.28,2.86-3.18,3.1-3.96,8.33-2.05,12.85-3.22.92-5.64,3.71-5.96,7.06-.27,2.78.32,4.67,2.07,6.95-3.74-1.58-8.54-3.1-11.47.2-3.19,3.6-3.51,9.14-.95,13.46-5.36,1.29-9.55,5.65-10.22,10.87-.75,5.76,4.58,11.18,9.07,13.55-2.84,1.26-5.46,3.37-6.85,5.65-.92,1.51-1.24,3-.91,4.32.74,2.95,4.05,5.25,8.07,5.78-.79,1.32-1.57,3.37-1,5.78.61,2.57,2.56,4.65,5.07,5.53-.88,1.39-1.93,3.72-1.2,6.11.49,1.61,1.91,3.08,3.9,4.04,1.4.67,2.96,1.04,4.48,1.09-2.26,2.47-3.32,5.61-2.61,8.33.58,2.23,2.35,4.2,4.85,5.39,2.35,1.13,5.04,1.42,7.66.89-1.25,2.64-1.29,5.63,0,8.08,1.09,2.06,3.12,3.62,5.56,4.29,1.91.52,3.92.47,5.81-.13-.25,2.1-.22,5.05,1.02,8.17.52,1.32,1.18,2.46,1.9,3.47-15.43-9.47-28.23-23.02-36.59-38.96-10.59-20.19-14.01-41.69-9.64-60.54,4.23-18.23,14.19-28.01,27.98-41.55,10.09-9.92,22.66-22.25,36.5-41.48,10.16-14.11,19.07-29.27,26.56-45.09.14.71.27,1.43.39,2.18.1.67.28,1.91,1.6,1.91h0l1.32-.08.18-1.29c.06-.43.11-.96.17-1.56.26-2.83.69-7.57,3.55-11.22,1.68-2.14,3.71-3.97,6.05-5.44l2.3-1.44-2.44-1.18c-2.86-1.38-5.29-3.2-7.24-5.42-1.78-2.03-2.47-6.3-2.92-9.12-.36-2.24-.56-3.49-1.23-4.18-.52-2.28-1.08-5.48-1.73-9.16-2.44-13.85-6.13-34.78-14.09-46.89-8.36-12.73-18.09-22.37-28.27-30.2,0-.06.02-.14.03-.19.08-.55-.31-1.05-.85-1.13-.26-.04-.5.04-.7.17-11.25-8.43-22.98-14.75-33.96-20.66-21.87-11.77-40.76-21.93-47.93-44.06-6.91-21.32.96-41.13,1.88-43.31,5.32-12.66,20.22-21.72,37.47-32.21,18.38-11.18,39.21-23.84,53.02-44.02,3.06-4.47,7.58-12.33,10.77-19.84,5.48-12.87,3.78-25.06,2.86-31.61l-.08-.6c-2.28-16.43-10.17-29.79-13.84-35.28l3.88.15c-.14,1.91.05,5.04,2.06,7.98,1.02,1.49,2.41,2.68,4.03,3.5-.19,2.37.69,5.89,2.08,8.05l.04-.04Zm14.92-14.36c-1.59-1.17-4.25-1.5-6.61-.82-1.72.5-2.94,1.46-3.43,2.71s-.19,2.56.33,3.67c-3.89.53-7.66-.94-9.67-3.87-1.7-2.48-1.82-5.19-1.71-6.77l48.71,1.93-.56,1.73c-1.05,3.25.41,6.81,3.4,8.28,1.31.65,2.77.81,4.16.56-4.15,5.62-7.95,8.31-11.34,8-3.67-.34-6.86-4.18-9.42-7.27-2.45-2.94-4.38-5.27-6.48-4.39-1.32.55-1.61,1.98-1.92,3.49-.34,1.69-.74,3.6-2.41,5.24-.74.72-1.64,1.3-2.7,1.71,2.79-6.15,2.72-11.91-.35-14.18v-.02Z"/><path d="m304.1,232.94c.75,0,1.48-.15,2.13-.43.87,1.84,2.39,3.27,4.23,3.93.74.27,1.49.4,2.22.4.89,0,1.76-.2,2.51-.59,2.17-1.13,3.27-5.49,3.1-8.13.73-.06,1.43-.24,2.05-.56,2.22-1.16,3.31-5.69,3.09-8.3l-1.99.17c.2,2.33-.9,5.77-2.03,6.36-.88.46-2.01.49-3.12.08-1.21-.44-2.24-1.33-2.9-2.5,2.09-1.89,2.95-5,2.07-7.94l-1.92.58c.77,2.56-.27,5.38-2.41,6.55-1.19.65-2.67.76-4.07.31-1.56-.5-2.82-1.6-3.55-3.09l-1.8.87c.95,1.96,2.68,3.46,4.74,4.12.42.13.85.22,1.28.28-.07,2.24-1.05,5.01-2.04,5.53-.87.46-2.01.49-3.12.09-1.42-.51-2.58-1.65-3.21-3.12l-1.84.78c.84,1.99,2.43,3.53,4.37,4.23.74.27,1.49.4,2.22.4v-.02Zm7.62-8.47c.9,1.52,2.27,2.7,3.89,3.28.43.15.86.25,1.29.31l-.61.05c.2,2.33-.9,5.77-2.03,6.36-.87.46-2.01.49-3.12.09-1.42-.51-2.58-1.65-3.21-3.12l-.41.17c1.37-1.5,2.13-4.36,2.2-6.55.7-.09,1.37-.3,2-.59h0Z"/><path d="m278.74,299.85c-1,1.77-1.28,3.84-.75,5.72.47,1.68,1.53,3.04,2.9,3.74.5.25,1.1.36,1.75.36,2.23,0,5.08-1.27,6.66-2.55.47.56,1.02,1.02,1.65,1.34.5.25,1.1.36,1.75.36,2.29,0,5.25-1.34,6.8-2.66l-1.29-1.53c-1.78,1.51-5.22,2.62-6.35,2.04-.88-.45-1.56-1.36-1.88-2.5-.35-1.24-.21-2.59.36-3.81.5.11,1,.16,1.51.16,2.3,0,4.62-1.1,6.16-3.09l-1.58-1.23c-1.64,2.11-4.53,2.9-6.73,1.83-1.21-.59-2.17-1.73-2.62-3.13-.5-1.56-.34-3.23.46-4.68l-1.76-.96c-1.04,1.91-1.26,4.19-.61,6.25.13.42.31.82.51,1.2-1.87,1.24-4.68,2.05-5.68,1.54-.88-.45-1.56-1.36-1.88-2.5-.41-1.45-.16-3.06.68-4.42l-1.7-1.05c-1.13,1.83-1.46,4.03-.91,6.01.43,1.53,1.35,2.79,2.55,3.53v.03Zm2.11.57c1.94,0,4.35-.96,5.99-2.06.48.52,1.03.96,1.64,1.3-.72,1.61-.88,3.41-.42,5.06.12.42.27.82.46,1.2l-.36-.43c-1.78,1.51-5.22,2.62-6.35,2.04-.88-.45-1.56-1.36-1.88-2.5-.41-1.45-.16-3.06.68-4.42l-.41-.25c.21.03.42.06.65.06h0Z"/><path d="m317.35,567.94c1.37,1.08,2.97,1.66,4.52,1.66.21,0,.42-.02.63-.05.25,2.42,1.44,4.65,3.3,6.12,1.37,1.08,2.97,1.66,4.52,1.66.3,0,.59-.02.88-.07,2.92-.44,5.83-5.07,6.56-8.06l-1.94-.47c-.62,2.58-3.16,6.29-4.91,6.55-1.26.19-2.67-.24-3.87-1.19-1.47-1.16-2.41-2.94-2.57-4.89l-.87.07c2.32-.95,4.5-4.21,5.42-6.83.59.13,1.2.2,1.8.2.36,0,.71-.03,1.06-.08.42,2.08,1.53,3.95,3.17,5.24,1.37,1.08,2.97,1.66,4.52,1.66.3,0,.59-.02.88-.07,2.92-.44,5.83-5.07,6.56-8.06l-1.94-.47c-.62,2.58-3.17,6.29-4.91,6.55-1.27.19-2.67-.24-3.87-1.19-1.29-1.02-2.17-2.52-2.48-4.19,3.14-1.27,5.33-4.43,5.42-8.09l-2-.05c-.08,3.28-2.42,6.14-5.43,6.65-1.7.29-3.53-.18-5.05-1.29-1.65-1.2-2.71-2.97-2.98-4.98l-1.98.28c.35,2.55,1.7,4.79,3.78,6.32.49.36,1.02.66,1.55.91-.88,2.48-3.09,5.5-4.66,5.74-1.27.19-2.67-.24-3.87-1.19-1.47-1.16-2.41-2.95-2.57-4.89l-1.99.17c.21,2.49,1.42,4.79,3.32,6.29v.04Z"/><path d="m204.6,391.23l-1.98-.27c-.48,3.58,1.48,6.99,4.55,7.95,1.91.59,3.65.05,4.77-.5,1.03,2.61,3.56,4.4,6.41,4.4h.3c3.33-.15,6.07-2.67,6.52-6.01l-1.98-.27c-.32,2.37-2.26,4.17-4.62,4.28-2.46.11-4.61-1.66-5.03-4.1l-.28-1.62-1.31.99c-.21.16-2.13,1.55-4.18.91-2.15-.67-3.51-3.15-3.16-5.77h-.01Z"/><path d="m325.28,530c.75,0,1.49-.13,2.2-.41,1.85-.73,2.88-2.24,3.41-3.37,2.52,1.45,5.75,1.19,7.99-.77,2.5-2.2,3.06-5.89,1.32-8.77l-1.71,1.03c1.24,2.05.85,4.67-.93,6.23-1.84,1.62-4.63,1.59-6.49-.05l-1.23-1.09-.4,1.59c-.06.26-.69,2.54-2.69,3.33-2.09.83-4.71-.25-6.08-2.52l-1.71,1.03c1.43,2.36,3.9,3.76,6.33,3.76h-.01Z"/><path d="m198.01,376.99c1.01.51,2.11.75,3.21.75,2.57,0,5.15-1.33,6.66-3.68l-1.68-1.08c-1.6,2.5-4.8,3.47-7.28,2.22-2.05-1.04-3.21-3.38-2.89-5.83l-1.98-.26c-.44,3.29,1.16,6.46,3.97,7.88h-.01Z"/><path d="m211.67,426.55c.63-.23,1.25-.53,1.84-.92,2.17-1.46,3.62-3.85,3.95-6.54l-1.98-.25c-.26,2.12-1.39,3.99-3.08,5.13-1.37.92-2.91,1.24-4.24.88-2.18-.59-3.83-3.02-3.97-5.81v-.13l-2,.08v.13c.05,1.7-.6,3.34-1.81,4.53-1.12,1.1-2.57,1.68-3.99,1.59-2.65-.17-4.88-2.58-5.07-5.5l-2,.13c.23,3.63,2.9,6.68,6.2,7.27,1.22,4.3,4.47,7.09,8.16,7.09.4,0,.8-.03,1.21-.1,3.15-.51,5.69-4.65,6.78-7.59h0Zm-14.04.64c1.51-.22,2.98-.94,4.15-2.1.59-.59,1.09-1.26,1.47-1.98.97,1.82,2.52,3.19,4.38,3.69.55.15,1.12.21,1.69.2-1.16,2.51-3.05,4.91-4.76,5.19-2.98.49-5.75-1.57-6.94-4.99h0Z"/><path d="m310.42,621.05c-.16,4.94,2.62,8.88,6.81,9.5.21.03.42.05.63.05,3.01,0,6.33-2.92,8.13-5.24.67-.02,1.35-.12,2.02-.32,2.52-.74,4.61-2.57,5.75-5.04l-1.82-.84c-.89,1.94-2.53,3.38-4.49,3.96-1.58.46-3.15.3-4.31-.44-1.9-1.22-2.74-4.04-2.03-6.74l.04-.13-1.93-.53s-.02.09-.04.13c-.46,1.63-1.59,3-3.09,3.77-1.4.71-2.96.83-4.29.31-2.48-.96-3.87-3.94-3.16-6.77l-1.94-.48c-.88,3.53.74,7.25,3.71,8.81h.01Zm6.59-.08c.74-.38,1.42-.87,2-1.44.37,2.03,1.44,3.8,3.06,4.84.48.31,1,.53,1.55.7-1.86,2.04-4.4,3.75-6.1,3.5-2.98-.44-5-3.24-5.1-6.85,1.51.25,3.12,0,4.59-.75h0Z"/><path d="m342.67,598.03c.77,3.23,3.39,5.62,6.52,5.95.24.02.48.04.71.04,3.5,0,6.7-2.64,7.46-6.29l-1.96-.41c-.61,2.9-3.23,4.97-6.01,4.67-2.29-.24-4.21-2.01-4.78-4.42l-1.95.46h.01Z"/><path d="m272.81,655.51c1.16.72,2.47,1.07,3.8,1.07,2.35,0,4.73-1.09,6.29-3.1l-1.58-1.23c-1.82,2.35-5.09,3.03-7.45,1.57-1.95-1.22-2.9-3.65-2.36-6.07l-1.95-.44c-.73,3.24.58,6.54,3.25,8.2h0Z"/></g><g><path d="m280.66,634.21c1.16,3.02,3.49,5.57,5.69,7.88s4.66,4.43,7.26,6.31c5.28,3.83,11.3,6.69,17.6,8.39,3.55.95,7.19,1.52,10.86,1.72,1.35.07,1.35-2.03,0-2.1-7.82-.43-15.48-2.71-22.3-6.56-3.38-1.91-6.55-4.18-9.42-6.8-1.44-1.32-2.81-2.71-4.09-4.19-1.37-1.58-2.82-3.25-3.58-5.22-.48-1.25-2.51-.71-2.02.56h0Z"/><path d="m285.14,631.39c4.2,6.25,9.91,11.42,16.58,14.93,3.5,1.84,7.2,3.16,11.04,4.08,4.35,1.05,9.02,2.34,13.53,1.92,1.33-.12,1.35-2.22,0-2.1-4.26.39-8.62-.81-12.74-1.79-3.74-.89-7.36-2.13-10.77-3.93-6.35-3.34-11.82-8.22-15.83-14.18-.75-1.12-2.57-.07-1.81,1.06h0Z"/><path d="m289.63,627.33c11.46,11.04,26.59,18.68,42.7,18.91,1.35.02,1.35-2.08,0-2.1-15.56-.22-30.16-7.64-41.22-18.29-.97-.94-2.46.54-1.48,1.48h0Z"/></g><g><path d="m240.27,316.85c6.37,11.03,18.47,18.22,31.2,18.57,1.54.04,1.54-2.36,0-2.4-11.89-.33-23.18-7.09-29.13-17.39-.77-1.34-2.85-.13-2.07,1.21h0Z"/><g><path d="m234.38,319.42c4.9,12.79,17.12,21.4,30.85,21.58,1.54.02,1.55-2.38,0-2.4-12.59-.17-24.03-8.04-28.54-19.82-.55-1.43-2.87-.81-2.31.64h0Z"/><path d="m229.99,322.17c1.76,6.02,5.42,11.38,10.38,15.23,5.82,4.52,12.81,5.95,19.93,7.08,1.51.24,2.16-2.07.64-2.31-6.65-1.05-13.28-2.28-18.79-6.41-4.71-3.53-8.2-8.58-9.85-14.23-.43-1.48-2.75-.85-2.31.64h0Z"/></g></g></g><path d="m143.57,79.39c3.13-1.98,6.08-3.84,5.59-6.65-.38-2.17-2.6-3.1-4.55-3.93-1.42-.6-3.03-1.28-3.15-2.13-.11-.78.87-1.84,1.74-2.78,1.27-1.37,2.71-2.92,2.05-4.88-.59-1.73-2.36-2.23-3.79-2.64-.79-.22-1.86-.52-2-.91-.11-.33.4-1.05.82-1.63.73-1.03,1.65-2.31,1.11-3.83-.83-2.36-4.05-2.45-7.45-2.54-2.24-.06-5.62-.15-6.12-1.17-.28-.56.48-1.86,1.09-2.9.99-1.69,2.21-3.79,1.14-5.81-1-1.88-2.46-2.55-3.87-3.19-.91-.42-1.84-.84-2.83-1.65,1.99-2.06,4.13-3.35,5.76-4.11l2.81-1.31-2.77-1.39c-3.36-1.69-6.06-3.91-8.03-6.62-1.99-2.72-3.37-6.06-4.13-9.95.03-2.31-.19-4.8-.67-7.46-.02-.09-.03-.17-.04-.24-.03-.5-.12-.86-.51-1.22l-.49-.44-1.31.12-.4.52c-.32.42-.34.8-.28,1.29v.25c.03,2.64.26,5.12.69,7.44-.07,3.24-.7,6.05-1.87,8.4-2.08-.78-4.08.98-5.39,2.14-2.09,1.84-2.6,1.96-3.25,1.4-.75-.65-.89-1.59-1.05-3.07-.17-1.52-.35-3.25-1.71-4.65-2.63-2.71-5.84-.84-7.97.4-.56.33-1.09.63-1.53.83-1.27.56-2.26.69-2.96.4-.75-.32-1.42-1.24-1.99-2.75l-.15-.41c-.69-1.89-1.85-5.07-5.58-4.06-1,.27-1.98,1.06-2.92,1.82-.3.25-.73.59-1.09.84,0-.06,0-.13-.01-.2,0-.17.1-.75.18-1.17.37-2,.98-5.35-1.6-5.87-1.81-.36-3.18,1.56-5.54,6-.21.4-.37.7-.46.84-3.62,5.65-8.33,11.3-15.78,10.32-2.92-.38-5.32-1.85-7.87-3.41-2.38-1.45-4.83-2.95-7.79-3.57-2.14-.45-3.79-.09-4.94,1.05-2.36,2.37-1.34,7.2-.66,10.39l.18.84c.34,1.66.51,3.91-.56,5.15-.77.9-2.2,1.3-4.27,1.2-.59-.03-1.2-.08-1.81-.13-2.72-.24-5.53-.48-6.88,1.37-.88,1.19-.85,2.88.09,5.16l.25.6c.61,1.45,1.63,3.89,1.12,4.68-.2.32-.88.52-1.85.56-.47.02-.98,0-1.52,0-2.49-.03-5.32-.06-6.69,1.89-.82,1.17-.86,2.77-.12,4.75.42,1.13,1.13,2.27,1.82,3.37,1.09,1.75,2.21,3.55,1.86,4.76-.18.64-.85,1.24-1.97,1.79-.55.27-1.97.44-3.22.58-3.51.41-8.81,1.03-8.47,5.5.2,2.55,2.89,4.51,5.05,6.08.58.42,1.14.83,1.49,1.14,2.56,2.26,4.11,4.22,3.4,6.4-.24.74-1.78,2.1-3.03,3.2-2.71,2.39-5.77,5.1-4,7.9,1.56,2.46,4.6,2.64,7.55,2.83,2.51.16,4.88.3,6,1.71,1.64,2.06.6,4.09-1.23,7.23-1.16,1.99-2.36,4.04-2.43,6.26-.06,1.77.46,3.23,1.55,4.34,2.42,2.48,6.88,2.45,10.12,2.43h.78c.32,0,.64,0,.97-.01,1.51-.02,3.06-.03,4.41.28-1.48,1.63-3.32,3.03-5.48,4.14l-3,1.55,3.16,1.19c3.64,1.37,6.4,3.3,8.22,5.77,1.9,2.57,2.7,5.57,3,8.15-.19,2.41-.02,4.43.07,5.52v.12c-.03.64,0,1.07.41,1.51l.46.48h1.31l.44-.5c.4-.44.43-.88.38-1.52v-.09c.07-1.07.19-3.11-.07-5.56.26-2.86,1.07-6.21,3.31-8.9.15-.18.3-.34.46-.51,1.48,1.27,3.08,3.28,4.64,5.23,2.19,2.75,4.08,5.12,5.9,5.88,1.94.82,3.71-.79,5.42-2.34,1.33-1.2,2.98-2.71,4.11-2.41,1.05.27,1.67,2.15,2.22,3.81.73,2.19,1.48,4.46,3.64,4.89.22.04.44.07.65.07,2.49,0,4.25-2.97,6.26-6.37,1.87-3.15,4.19-7.08,6.62-7.17,2.43-.08,4.85,3.54,7,6.74,2.43,3.62,4.52,6.75,7.43,6.08,2.42-.56,2.99-3.22,3.61-6.03.59-2.71,1.26-5.78,3.5-6.96,2.16-1.13,5.09-.25,7.67.53,2.68.81,5.21,1.57,6.64-.31,1.12-1.47.46-3.22-.12-4.77-.44-1.17-.89-2.38-.46-3.03.26-.4.78-.48,1.99-.57,1.26-.1,2.83-.22,4.16-1.36,2.58-2.21,1.59-5.89.64-9.45-.83-3.1-1.69-6.32-.16-8.06,2.94-3.35,9.1-3.3,14.05-3.27,4.48.03,7.71.06,8.44-2.44.65-2.26-1.62-3.9-4.26-5.8-2.42-1.75-5.43-3.92-5.33-6.12.1-2.19,3.22-4.16,5.96-5.89h.04Zm-27.58-63.05c.75,1.72,1.64,3.3,2.69,4.74,1.75,2.4,4,4.47,6.69,6.17-2.13,1.34-4.52,3.33-6.51,6.25-1.23,1.81-2.08,3.64-2.66,5.4-.77-1.86-1.82-3.79-3.26-5.68-1.72-2.25-3.86-4.22-6.26-5.79,3.1-1.64,5.51-3.79,7.19-6.42.9-1.41,1.61-2.96,2.12-4.67Zm-6.88,5.72c-.33.31-.68.61-1.04.9.22-.19.44-.38.63-.55.15-.14.28-.24.41-.35Zm-1.25,1.07s.07-.05.1-.08c-.03.03-.07.06-.1.08ZM40.57,127.1c-1.15,1.39-1.99,2.91-2.6,4.44-.51-1.2-1.17-2.39-2-3.52-1.67-2.26-3.96-4.13-6.84-5.59,1.51-1.03,2.85-2.21,4-3.52,2.52-2.88,3.92-6.13,4.72-9.11.68,2.53,1.8,5.28,3.69,7.83,1.36,1.84,3.06,3.49,5.06,4.92-2.46,1.15-4.48,2.67-6.03,4.54h0Zm65.38-19.53c-.54.08-1.09.16-1.66.24-4.16.57-8.46,1.15-12.79,5.66-1.57,1.64-2.86,3.33-3.6,4.73-3.88,1.15-7.98,1.77-12.23,1.77h-.24c-1.13,0-2.98,0-5.32-.35.57-10.91,10.94-19.33,13.93-20.78,7.63-3.71,11.52-5.06,15.64-6.49,1.76-.61,3.58-1.24,5.75-2.08,4.69-1.8,8.86-4.93,13.35-9.98-.88,10.65-5.62,20.21-12.83,27.28Zm-1.26,1.19c-4.4,3.98-9.62,7.07-15.37,8.99.72-1.12,1.73-2.38,2.89-3.58,4.09-4.25,8.22-4.82,12.2-5.36.09-.01.18-.03.27-.04h.01Zm14.2-30.12c-4.77,5.59-8.92,8.8-13.82,10.68-2.16.83-3.97,1.46-5.72,2.07-4.15,1.44-8.07,2.8-15.75,6.54-2.19,1.06-13.81,9.42-14.49,21.51-6.91-1.27-15.21-5.16-22.17-11.4.03,0,.06.01.09.01.22,0,.42-.14.48-.36,5.1-18.19,13.24-21.16,24.49-25.27,6.46-2.36,13.75-5.02,21.87-11.1.35.8.61,1.54.85,2.24.6,1.75,1.18,3.41,2.94,5.53.53.63,4.74,5.56,8.76,5.56.55,0,1.09-.09,1.62-.3,4.01-1.55,4.13-8.19,4.17-10.37.07-3.83-.77-9.08-4.29-15.02,1.2-1.36,2.92-3.9,3.6-6.47,4.68,6.91,7.42,15.24,7.42,24.2,0,.66-.02,1.31-.05,1.95h0Zm-41.46-23.84c-2.51-.56-4.5-1.01-6.84-3.17h0c-1.85-1.72-4.52-5.14-3.8-7.04.72-1.88,4.85-2.65,9.05-2.65.77,0,1.55.03,2.31.08,7.42.49,14.45,4.02,20.89,10.49,8.58,8.61,10.26,16.4,10.17,21.41-.12,6.14-1.62,7.38-2.26,7.63-1.73.67-5.19-2.22-6.98-4.38-1.41-1.7-1.85-2.98-2.41-4.59-.43-1.26-.93-2.68-1.93-4.5-2.15-3.87-5.34-7.18-9.5-9.86-3.51-2.25-6.27-2.87-8.71-3.42h.01Zm29.94,3.26c-1.56-2.47-3.57-5.04-6.2-7.68-1.84-1.85-3.74-3.47-5.68-4.88,1.1-1.29,2.71-3.32,3.27-5.39,4.67,2.96,8.74,6.79,11.97,11.26-.39,2.55-2.19,5.26-3.37,6.68h.01Zm-12.69-13.13c-5.16-3.55-10.62-5.53-16.33-5.91-.49-.03-1.06-.06-1.7-.08.44-.54.9-1.08,1.17-1.39.36-.42.64-.75.71-.86.56-.83,1-1.7,1.36-2.4.11-.21.22-.44.33-.64,6.4.67,12.39,2.75,17.65,5.91-.41,1.98-2.14,4.13-3.19,5.37Zm-15.68-11.08c-.34.67-.77,1.51-1.29,2.29-.07.1-.32.39-.64.77-.76.88-1.3,1.53-1.69,2.03-4.2.04-9.94.81-11.38,4.58-.4,1.05-.39,2.14-.14,3.21-1.84,1.05-2.81,1.35-3.75,1.65-.44.14-.86.27-1.33.46-3.62,1.49-7.2,2.36-10.08,3.06-2.17.52-3.88.94-4.95,1.46-3.27,1.59-5.41,3.17-6.92,4.61,7.12-14.38,22.05-24.55,38.84-24.55,1.17,0,2.32.06,3.47.15-.05.09-.09.17-.14.28Zm-43.51,27.13c1.4-1.85,3.65-4.28,8.7-6.73.97-.47,2.64-.87,4.75-1.38,2.91-.71,6.54-1.58,10.23-3.1.44-.18.84-.31,1.25-.43.91-.28,1.94-.61,3.75-1.62,1.08,2.91,3.69,5.46,4.4,6.13,2.93,2.71,5.5,3.29,8.22,3.9,1.17.26,2.36.53,3.66.99-8.06,5.11-15.08,7.26-21.32,9.16-10.33,3.15-18.57,5.68-25.12,20.05-1.01-3.49-1.59-7.25-1.59-11.25,0-5.51,1.11-10.81,3.08-15.71h-.01Zm23.91,7.85c6.46-1.97,13.75-4.21,22.17-9.67.92.4,1.89.89,2.94,1.57,3.73,2.4,6.59,5.36,8.5,8.79.16.3.3.57.44.85-8.07,6.08-15.34,8.74-21.78,11.09-11.1,4.05-19.87,7.25-25.11,25.94-.03.09-.02.18,0,.27-5.24-4.8-9.67-10.94-12.12-18.29,6.43-14.88,14.22-17.27,24.96-20.55Zm81.78,24.98c1.05.76,2.59,1.87,3.02,2.49-.87.35-3.47.33-5.42.32-5.27-.04-12.49-.09-16.33,4.29-2.58,2.95-1.46,7.13-.48,10.81.71,2.66,1.45,5.42.31,6.39-.59.51-1.45.57-2.44.65-1.41.11-3.16.24-4.26,1.92-1.26,1.93-.44,4.12.16,5.73.22.58.57,1.52.54,1.87-.53.14-2.24-.37-3.38-.72-2.98-.9-6.69-2.02-9.93-.32-3.48,1.83-4.35,5.79-5.04,8.98-.31,1.44-.79,3.62-1.35,3.75-.9.21-3-2.94-4.26-4.83-2.58-3.85-5.49-8.2-9.6-8.07-4.07.15-6.74,4.66-9.09,8.64-.97,1.64-2.98,5.01-3.74,4.89-.45-.09-1.05-1.91-1.38-2.89-.75-2.27-1.69-5.09-4.33-5.77-2.69-.69-5,1.41-6.87,3.1-.69.63-1.84,1.67-2.31,1.77-1.12-.53-3-2.88-4.65-4.96-1.53-1.92-3.1-3.88-4.68-5.33,1.35-.91,2.92-1.67,4.72-2.24l3.31-1.05-3.03-1.69c-2.78-1.54-5.03-3.46-6.69-5.71-3.22-4.35-3.88-9.34-4.14-12.55,7.64,9.82,18.86,16.48,29.6,18.22,2.47.4,4.43.43,5.7.43h.54c24.96,0,45.27-20.31,45.27-45.27s-20.31-45.27-45.27-45.27-45.27,20.73-45.27,45.27c0,8.33,2.49,15.94,6.53,22.46-.69.54-.81,1.75-.92,3.1-.21,2.68-.63,7.82-3.43,12.36-2.04-.76-4.31-.74-6.37-.72h-1.74c-2.55.04-6.42.06-7.95-1.51-.51-.52-.73-1.21-.7-2.15.05-1.46,1.01-3.1,2.02-4.85,1.78-3.05,3.99-6.84.98-10.61-1.95-2.45-5.25-2.66-8.16-2.84-2.3-.14-4.47-.28-5.2-1.44-.4-.64,2.4-3.11,3.45-4.04,1.75-1.54,3.4-3,3.89-4.52,1.46-4.51-2.41-7.93-4.27-9.58-.46-.41-1.07-.85-1.71-1.32-1.4-1.02-3.73-2.71-3.82-3.89-.11-1.47,2.57-1.91,5.82-2.29,1.7-.2,3.17-.37,4.18-.86,1.92-.93,3.11-2.16,3.54-3.65.72-2.49-.83-4.98-2.2-7.17-.64-1.02-1.24-1.99-1.55-2.84-.42-1.11-.39-1.75-.23-1.98.46-.65,2.8-.63,4.2-.61.58,0,1.15,0,1.66,0,2.06-.08,3.5-.73,4.27-1.94,1.35-2.11.16-4.95-.88-7.45l-.24-.59c-.73-1.78-.45-2.24-.45-2.24.36-.49,2.96-.27,4.21-.16.65.06,1.3.11,1.93.14,3.03.14,5.28-.61,6.69-2.24,1.49-1.73,1.9-4.32,1.22-7.7l-.18-.87c-.44-2.09-1.36-6.43-.15-7.65.47-.47,1.46-.39,2.2-.23,2.46.51,4.59,1.82,6.85,3.2,2.7,1.65,5.49,3.35,9.04,3.82,9.17,1.2,14.81-5.61,18.7-11.68.11-.17.32-.55.58-1.05.67-1.25,1.23-2.25,1.7-2.99-.06.35-.12.68-.16.91-.14.77-.25,1.38-.23,1.86.03.63.13,2.53,1.59,3.19,1.51.68,2.98-.5,4.39-1.64.6-.49,1.43-1.15,1.82-1.26.85-.23,1.11-.19,1.98,2.19l.16.42c.88,2.35,2.06,3.81,3.63,4.47,1.51.64,3.26.5,5.34-.42.6-.27,1.2-.61,1.83-.98,2.44-1.42,3.46-1.77,4.3-.9.63.65.75,1.69.88,2.88.17,1.59.39,3.56,2.07,5.02,1.54,1.33,3.05,1.21,4.38.6-.93.53-1.93,1.02-3.02,1.44l-3.17,1.23,3.04,1.51c3.07,1.53,5.78,3.75,7.83,6.43,3.18,4.15,4.21,8.6,4.51,11.59.02.67.06,1.28.11,1.8l2.99-.19c-.01-.52-.05-1.12-.11-1.78-.06-2.87.47-7.14,3.28-11.27.03-.04.06-.08.09-.13,1.28,1.05,2.47,1.6,3.48,2.06,1.31.6,1.97.93,2.47,1.87.29.55-.47,1.85-1.08,2.89-.97,1.67-2.18,3.74-1.19,5.75,1.31,2.63,5.08,2.73,8.73,2.83,1.53.04,4.04.11,4.67.54-.1.27-.46.78-.69,1.09-.77,1.08-1.83,2.57-1.21,4.36.65,1.87,2.6,2.41,4.02,2.81.5.14,1.68.47,1.76.71.02.34-.91,1.34-1.41,1.88-1.26,1.36-2.83,3.05-2.51,5.25.37,2.53,2.91,3.61,4.96,4.47,1.12.47,2.67,1.12,2.76,1.68.15.83-2.49,2.49-4.23,3.59-3.37,2.13-7.18,4.54-7.36,8.29-.18,3.82,3.56,6.52,6.57,8.69h0Z"/></g></g></g></svg>