<?xml version="1.0" encoding="UTF-8"?><svg id="Layer_2" xmlns="http://www.w3.org/2000/svg" viewBox="0 0 397.73 854.42"><defs><style>.cls-1{fill:#f7931e;}.cls-2{fill:#fffdae;}.cls-3{fill:#fffeaf;}.cls-4{fill:#fffeae;}.cls-5{fill:#a3262a;}</style></defs><path d="m315.62,117.49c-.93.25-2.08.47-3.25.47-.54,0-1.08-.05-1.6-.16-1.19-.25-2.83-.8-4.03-1.36l-.49,3.45c1.06.67,2.86,1.62,4.36,1.72,1.7.11,3.98-.48,5.27-.93-.13-1.05-.21-2.12-.26-3.19Zm-91.19,44.86c-2.72.16-4.94.12-6.75-.04.67,1.8,1.31,4.44,1.31,6.91.01,1.87-.1,3.25-.26,4.29h.66s.36,3.25,2.65,4.34c1.05.49,2.38.48,3.67,0,.32-2.71.66-8.43.23-10.57-.27-1.33-.96-3.52-1.51-4.93Zm173.31,45.89l-8.73-.35c-.04,2.05-.69,4.39-2.01,5.14-1.04.6-2.37.67-3.65.2-.55-.2-1.06-.5-1.51-.86.28,1.45,1.18,2.73,2.54,3.4,1.91.94,4.26.44,5.72-1.21l1.59,1.2c-5.29,8.33-10.15,12.39-14.82,12.39-.24,0-.49-.01-.74-.03-4.5-.42-7.98-4.61-10.78-7.98-1.44-1.74-3.43-4.13-4.17-3.82-.34.14-.54,1.11-.73,2.04-.36,1.78-.86,4.21-2.97,6.27-1.48,1.45-3.44,2.4-5.82,2.84l-2.03.37,1.02-1.85c3.59-6.49,3.45-12.04,1.25-13.66-1.08-.8-3.13-1.01-4.87-.51-1.09.32-1.87.87-2.12,1.52-.41,1.05.46,2.51.86,3.09l.81,1.18-1.39.35c-2.45.63-4.92.54-7.13-.13.02,1.9.75,4.56,1.79,6.17.61.94,1.05,1.1,1.17,1.12,1.36.28,2.87-.46,3.76-1.83l2.41-3.73-.58,4.4c-.02.12-.26,2.08.55,4.13.38.98,1.01,1.97,2.01,2.8,2.47,2.06,6.22,2.2,9.11.36l1.11,1.66c-.45.32-4.37,3.22-4.29,8.17.06,3.46,2.03,5.81,2.88,6.66l1.17,1.17-1.58.49c-4.33,1.35-7.49,5.04-8.05,9.4-.63,4.85,2.13,9.71,6.71,11.82l-.67,1.88c-2.98-.76-5.96-.45-7.97.84-.84.54-1.4,1.21-1.51,1.8-.27,1.51,1.94,4.42,6.17,5.72l-.44,1.94c-3.64-.55-8.48,1.1-9.89,4.41-.53,1.25-.58,2.02.15,7.35l.19,1.43-1.41-.32c-.97-.23-1.81-.57-2.55-.87-1.98-.8-3.28-1.33-5.88.66-3.45,2.65-4.28,7.71-1.9,11.53l1.68,2.68-2.91-1.23c-5.28-2.23-11.38-.56-14.19,3.9-1.52,2.42-1.91,5.53-1.08,8.54.69,2.48,2.15,4.67,4.15,6.26.79.41,1.55.89,2.27,1.46l-1.07,1.68c-.81-.41-1.57-.89-2.28-1.44-3.99-1.98-8.75-1.55-12.04,1.3-3.11,2.7-4.33,7.17-3.12,11.4l-1.92.58c-.57-1.83-1.84-3.3-3.55-4.15-.7-.35-1.46-.57-2.21-.66l.08-.89c.41.03.81.07,1.22.1.19.02.19-.28,0-.3-1.66-.14-3.33-.28-4.99-.43.05-.02.1-.04.16-.06,2.09-.75,4.49-.59,6.58.44.79.39,1.5.89,2.13,1.47.16-3.48,1.66-6.76,4.26-9.01,2.89-2.51,6.73-3.45,10.44-2.82-.94-1.33-1.65-2.81-2.09-4.4-.98-3.55-.5-7.24,1.32-10.13.44-.7.94-1.34,1.51-1.92,3.17-3.28,8.13-4.63,12.87-3.51-1.49-4.29-.19-9.2,3.43-11.98,3.5-2.69,5.71-1.79,7.85-.92.28.11.55.22.83.33-.5-3.93-.5-5.21.2-6.85.7-1.66,2-2.97,3.58-3.91,1.76-.35,3.52-.7,5.28-1.04.19-.04.11-.33-.08-.29-1.43.28-2.85.56-4.28.84,1.02-.5,2.14-.86,3.25-1.08-2.57-1.74-4.1-4.11-3.72-6.18.21-1.16,1.07-2.27,2.4-3.12,1.48-.95,3.36-1.47,5.37-1.55-3.19-2.92-4.9-7.24-4.35-11.56.59-4.65,3.69-8.64,8.03-10.53-1.09-1.43-2.42-3.79-2.47-6.9-.05-2.78.94-5.02,2.07-6.66-2.6.34-5.27-.34-7.28-2.01-2.27-1.89-3.03-4.37-3.25-6.22-1.22.81-2.66,1.14-4.03.86-.89-.18-1.71-.85-2.45-1.99l-.04.04c-1.39-2.16-2.27-5.68-2.08-8.05-1.62-.82-3.01-2.01-4.03-3.5-2.01-2.94-2.2-6.07-2.06-7.98l-3.88-.15c3.67,5.49,11.56,18.85,13.84,35.28l.08.6c.92,6.55,2.62,18.74-2.86,31.61-1.69,3.99-3.76,8.07-5.78,11.69-.8.15-1.61.31-2.41.47-.1.02-.13.11-.1.19l-1.71.64c-1.15.18-2.75.36-4.69.36-4.15,0-9.83-.81-15.76-4.1-7.43-4.12-11.31-9.89-13.08-13.33-.9,1.5-1.92,3.02-3.07,4.58,1.09,2.6,4.65,9.47,13.04,14.12,3.49,1.94,6.88,2.96,9.87,3.46l-.29,1.97c-3.21-.52-6.83-1.61-10.54-3.67-8-4.44-11.88-10.79-13.45-14.08-.58.72-1.18,1.45-1.81,2.18.14.11.27.24.34.42.84,2.16,4.29,9.61,13.22,14.56,6.65,3.68,12.92,4.06,16.82,3.78l.11,1.98c-.66.05-1.38.08-2.16.08-4.15,0-9.82-.81-15.75-4.1-9.06-5.02-12.84-12.49-13.96-15.2-6.99,7.63-17.29,15.79-32.33,24.06,1.7,1.62,3.68,2.99,5.93,4.08l2.44,1.18-2.29,1.44c-2.34,1.47-4.37,3.3-6.05,5.44-2.41,3.08-3.1,6.95-3.41,9.78-2.2-1.82-4.18-3.91-5.86-6.22-.55-1.16-1.17-2.21-1.87-3.13h0c-.05.02-.09.05-.14.08h0c-.77-1.35-2.85-.14-2.07,1.2h0c.02.05.04.08.07.12-1.05.7-2.21,1.48-3.44,2.35-.07-.17-.14-.35-.21-.53-.55-1.43-2.87-.81-2.31.64.17.44.35.88.53,1.31-.75.55-1.52,1.12-2.32,1.71-.1-.3-.2-.6-.29-.91-.28-.97-1.38-1.03-1.98-.54l-.24-.38c4.09-3.1,7.69-5.56,10.4-7.32-1.34-1.17-2.94-2.12-4.76-2.85l-2.85-1.14,2.65-1.55c2.47-1.45,4.46-3.27,5.91-5.42,2.7-4,3.19-8.44,3.48-11.1.1-.94.19-1.72.41-2.3.23-.59.59-.97,1.25-1.11.46-.1.94,0,1.34.27.91.62,1.11,1.89,1.52,4.43.38,2.42.95,5.91,2.23,8.13.14-.08.27-.16.43-.24,35.34-19.39,43.74-37.79,44.56-49.8.66-9.65-9.6-27.15-15.11-36.55-1.11-1.89-2.04-3.49-2.72-4.73l-42.11,20.29c1.24,1.44,2.06,2.96,1.4,4.37-.83,1.78-3.17,1.76-5.45,1.73-.47,0-1.11-.01-1.65.02.13.14.26.28.37.39.86.91,1.93,2.04,1.25,3.37-.77,1.51-2.58,1.1-4.49.67-.92-.21-3.37-.77-3.78-.33-.17.27.2,1.55.37,2.17.5,1.77,1.12,3.96-.28,5.77-1.01,1.3-2.76,1.88-4.45,1.88-.87,0-1.72-.15-2.44-.44-3.45-1.37-5.29-6.13-4.87-12.07-1.23.46-2.73.7-4.33.23-1.7-.5-4.16-2.02-3.96-4.15.14-1.42,1.32-2.01,2.27-2.49.63-.32,1.33-.67,1.98-1.28-.96.26-2.04.38-3.22.27-2.78-.25-6.86-1.94-6.83-4.72.03-2.35,2.84-3.52,5.57-4.64.31-.13.69-.28,1.05-.44-1.44-.32-3.14-.86-3.66-2.48-.36-1.13-.01-2.51,1-3.86,1.12-1.5,3.31-3.24,5.82-3.24h.1c1.69.04,3.01.9,3.94,1.59v-.08c-.15-1.38-.35-3.1.9-4.08,1.6-1.26,4.09-.36,8.73,3.21l.83-.52c-.05-.1-.09-.21-.1-.33l-.79-7.88,8.14,2.23,1.41-9.45,9.83,3.78,3.23-2.04c-.08-.21-.11-.45-.03-.68l2.24-6.66,5.87,1.86c.13.04.23.1.33.18l10.43-6.57-14.53.41c-.04.1-.09.2-.16.29l-2.67,3.22-4.8,5.79-6.87-7.29-6.97,10.72-9.42-10.27-8.63,10.36-6.94-11.36c-.02-.05-.05-.15-.05-.15l-1.14.03c-1.47,2.22-3.3,4.09-5.47,5.55-2.11,1.42-4.5,3.03-6.62,2.04-2.16-1.01-2.58-4.04-2.36-7.16-.91.5-1.94.8-3.01.87-3.58.22-6.92-2.12-7.67-5.34-.42-1.79-.01-3.77,1.12-5.43.15-.22.32-.43.49-.64-1.03-.38-1.85-.99-2.38-1.81-1.97-3.06.81-7.61,3.56-9.72,1.33-1.02,2.48-1.35,3.33-1.6.82-.24.97-.31,1.12-.56.32-.53.09-1.22-.47-2.57-.6-1.44-1.35-3.24-.61-5.21.79-2.1,3.11-3.83,6.22-4.63,2.51-.65,5.94-.69,8.06,1.12,1.18,1.01,1.6,2.26,1.97,3.37.43,1.27.71,2.02,1.68,2.59.81.48,1.49.64,2.03.49.44-.13.69-.47,1.13-1.12.49-.74,1.12-1.66,2.34-2.07,1.8-.6,3.9.25,6.25,2.51l.08.07c2.02,1.92,8.44,3.43,27.35-.03-1.11-2.81-2.4-7.86-.56-13.49,1.67-5.13,5.38-9.21,10.73-11.81,1.95-.95,4.02-1.59,6.19-1.91.03-2.14.54-4.1,1.51-5.83,3.51-6.25,12.45-8.05,19.08-6.17,7.39,2.09,10.93,8.4,12.15,11.15l13.45-.55,2.27-15.88-15.24-11.33,4.26-.16c3.34-.13,5.46-.85,6.12-2.1.84-1.6-.45-4.42-1.3-6.28-.81-1.76-1.5-3.28-.17-4.21,1.41-1,2.61.28,4.26,2.04,1.58,1.67,4.2,4.47,5.97,4.14,1.82-.34,3.23-4.17,4.07-6.46.88-2.42,1.53-4.15,3.24-3.83,1.77.33,1.76,2.27,1.76,5.78-.01,1.86-.02,6.22.78,6.84h.01c.6,0,2.5-1.72,3.31-2.46,1.72-1.56,3.21-2.91,4.67-1.9,1.37.95.77,2.6.13,4.36-.54,1.48-1.35,3.72-.69,4.74.3.47,1.51,1.48,6.28.93l6.56-.76-19.69,12.41c-.09,6.12,1.06,11.9,3.42,17.19,9.13,20.46,32.53,25.36,37.13,26.13l7.74,1.3-9.19,1.97c-1.36,1.54-2.23,3.82-2.23,5.92,0,1.42.43,2.58,1.2,3.27,2.07,1.83,5.43,1.69,7.67-.32l1.93-1.73-.26,2.58c-.37,3.62-2.69,6.67-5.7,7.89-.84.34-1.74.54-2.66.56-2.87.1-5.06-1.57-6.29-2.86-.3,1.28-.22,2.61.26,3.8.51,1.26,1.44,2.23,2.48,2.58,1.71.59,4.02-.35,5.47-2.23l1.17-1.52.1-.13.49,2.02c.62,2.57-.12,5.11-1.94,6.63-.47.39-1.08.88-1.72,1.33,9.76,6.24,20.34,11.58,31.67,15.95l8.44,3.26Zm-10.08,9.91c-1.39.25-2.85.09-4.16-.56-2.99-1.47-4.45-5.03-3.4-8.28l.56-1.73-48.71-1.93c-.11,1.58.01,4.29,1.71,6.77,2.01,2.93,5.78,4.4,9.67,3.87-.52-1.11-.82-2.42-.33-3.67s1.71-2.21,3.43-2.71c2.36-.68,5.02-.35,6.61.82v.02c3.07,2.27,3.14,8.03.35,14.18,1.06-.41,1.96-.99,2.7-1.71,1.67-1.64,2.07-3.55,2.41-5.24.31-1.51.6-2.94,1.92-3.49,2.1-.88,4.03,1.45,6.48,4.39,2.56,3.09,5.75,6.93,9.42,7.27,3.39.31,7.19-2.38,11.34-8Zm-.63-10.32l-5.65-.22.61,1.66c.37.99,1.12,1.76,2.06,2.1.71.26,1.45.24,1.97-.06.48-.27.99-1.93,1.01-3.48Zm-18.24-3.73l11.57.46c-3.92-1.72-7.74-3.56-11.47-5.52h-.01c.1,1.14.13,2.28.09,2.92-.06.9-.12,1.59-.18,2.14Zm-1.81-2.26c.07-1.18-.08-2.89-.24-3.93-2.3-1.25-4.55-2.54-6.77-3.87.11,1.58.11,3.39,0,4.73-.18,2.1-.41,3.75-.69,4.96l7.51.3c.06-.48.12-1.17.19-2.19Zm-9.42-24.42c2.52-.06,4.79-1.85,5.84-4.37-2.72,1.18-5.92.82-8.09-1.11h.02c-1.21-1.07-1.88-2.76-1.88-4.76-.01-1.82.51-3.7,1.39-5.32l-24.48,5.25c.84.85,1.7,1.69,2.56,2.52,7,6.73,14.65,12.81,22.9,18.24.57-.37,1.4-.99,2.25-1.69.75-.62,1.23-1.56,1.38-2.6-1.85,1.4-4.12,1.91-6.04,1.26-1.61-.55-2.95-1.91-3.69-3.73-.89-2.22-.75-4.77.39-7l.81-1.57.93,1.5s2.2,3.43,5.71,3.38Zm.42,21.18c.18-2.04.05-4.51-.15-5.88-3.18-1.97-6.27-4.03-9.27-6.19.29,2.33.45,5.1.49,6.55.1,3.55-.69,7.57-1.53,10.18l9.73.39c.25-.96.52-2.59.73-5.05Zm-15.37-37.19l9.42-2.02c-2.78-.82-6.13-2.02-9.65-3.7.06.51.13,1.11.2,1.82.05.49.11,2.32.03,3.9Zm2.83,41.77c.76-2.17,1.72-6.26,1.61-10.04-.07-2.44-.37-6.26-.76-8.27-2.88-2.15-5.67-4.38-8.39-6.69h-.01c.9,3.81,1.65,8.97,1.51,13.04-.13,3.86-.58,8.67-1.3,11.67l7.34.29Zm-4.85-41.34c.07-1.16.11-3.02,0-4.13-.16-1.58-.28-2.52-.37-3.11-1.65-.88-3.32-1.86-4.98-2.97.19.79.35,1.59.43,2.34h0c.24,2.19.08,6.31-.26,8.98l5.17-1.11Zm-3.2,29.3c.18-5.32-1.2-12.18-2.25-15.35-1.47-1.3-2.92-2.63-4.33-3.99-1.53-1.47-3.06-3-4.54-4.54l-1.87-1.94,8.92-1.91c.32-2.11.63-6.68.35-9.21-.17-1.57-.66-3.31-1.16-4.5-5.22-4.03-10.07-9.42-13.28-16.62-.72-1.61-1.32-3.27-1.83-4.96-1.56.7-3.89,1.5-5.98,1.5-.18,0-.35-.01-.53-.02-2.01-.14-4.21-1.14-5.75-2.03l-.58,4.09-3.07.13-15.02.61-.38-1.02c-.5-1.37-3.38-8.29-10.57-10.33-5.38-1.53-12.9-.15-15.64,4.75-.89,1.58-1.26,3.46-1.1,5.58l.11,1.48-1.48.13c-2.31.19-4.51.79-6.54,1.78-4.59,2.24-7.77,5.71-9.19,10.05-2,6.14.4,11.49,1.19,12.98h.02l.94,1.79-1.99.38c-1.84.36-3.57.66-5.2.93,1.03,1.4,2.27,3.4,2.82,5.05.67,2,.68,5.5.5,8.3l.55-2.57,1.29,2.43s1.73,3.19,4.63,3.33c2.6.14,5.66-2.32,6.03-6.17l2,.13c-.1,3.12,1.83,5.41,3.67,5.73,1.06.19,2.33-.23,3.39-1.13,1.41-1.2,2.2-3,2.19-4.95l-.04-5.3,1.97,4.92c.37.93,1.81,4.01,4.81,4.88,3.36.98,8.28-1.22,10.36-6.48l.56-1.42,1.08,1.08c.79.79,3.32,3.66,2.86,7.57-.34,2.92-2.24,5.47-4.95,6.95,1.3.48,2.66,1.27,3.76,2.58,3.11,3.72,2.69,9.66-.98,13.84l-1.02,1.16-.64-1.41c-1-2.23-2.95-3.76-4.95-3.92-2.87-.23-6.2,2.33-6.64,6.5l-.26,2.4-1.52-1.88c-1.87-2.32-5.18-2.92-7.7-1.38-2.59,1.57-3.55,4.96-2.2,7.7.43.86.07,1.33-.18,1.54-.71.59-1.34.1-2.48-.78-1.17-.89-3.59-2.76-4.81-2.54-1.13.21-2.22,1.9-3.08,4.77l-.68,2.28-1.15-2.08c-1.06-1.91-2.66-3.18-3.82-3.03-.6.07-1.27.57-1.8,1.33-1.08,1.55-1.41,3.84-.89,6.13l.94,4.12-2.69-3.26c-.08-.11-2.18-2.6-4.87-2.22-2.17.31-3.68,2.3-4.19,3.44.45-.17,1-.4,1.39-.57,1.65-.71,2.84-1.22,3.49-.23s-.3,1.94-1.73,3.38c-.28.27-.63.63-.95.97.47-.13,1-.29,1.43-.42,2.55-.77,4.97-1.51,6.02-.13.71.94.09,2.76-.79,4.46l52.11-25.11-.5,2.87c-.32,1.86.18,3.75,1.37,5.19,1.04,1.26,2.51,2.03,3.93,2.06,1.38.01,2.79-.62,3.88-1.77,1.2-1.26,1.83-2.98,1.75-4.73-.01-.06-.01-.13-.01-.19l2.99-.18c.01.06.01.12.01.18.1,1.39.73,2.65,1.77,3.57.96.84,2.14,1.27,3.28,1.18,1.22-.1,2.4-.79,3.22-1.91.68-.92,1.03-2.03,1.03-3.15-.07-.45-.12-.9-.16-1.36l2.96-.45c.12.51.18,1.03.2,1.54.5,2.84,1.77,4.77,2.89,5.69.61.51,1.1.65,1.37.62.87-.11,2.62-2.37,2.86-6.32l.09-1.47,13.64.54c.7-2.66,1.2-7.68,1.34-11.66Zm-.78,73.72c2.29-9.39,1.13-17.75.37-23.16l-.08-.6c-1.74-12.52-7.31-24.62-12.53-32.75-1,2.62-2.68,4.44-4.57,4.67-1.16.15-2.45-.31-3.63-1.27-.95-.78-1.77-1.82-2.43-3.04-.05.08-.1.15-.16.23-1.34,1.82-3.31,2.96-5.4,3.12-1.94.14-3.93-.56-5.49-1.93-.32-.28-.61-.58-.88-.9-.4.75-.89,1.44-1.48,2.06-1.67,1.76-3.88,2.76-6.11,2.7-2.32-.05-4.57-1.19-6.19-3.15-1.17-1.43-1.89-3.14-2.09-4.94l-4.46,2.15c.65,1.17,1.55,2.71,2.61,4.52,6.07,10.36,16.23,27.7,15.51,38.27v.02c-.33,4.55-1.64,9.94-4.85,15.91,1.28,2.86,4.88,9.27,12.85,13.69,9.87,5.47,18.91,3.64,20.62,3.22h.16c.76-1.36,1.54-2.79,2.3-4.26-.85-.76-1.75-1.84-2.38-2.85-1.03-1.65-1.58-5.63-1.7-7.33-2.36-1.77-2.88-4.88-2.94-5.27l1.98-.29c.02.13.5,3.28,2.86,4.38,2.27,1.05,5.85.05,7.7-3.42l.41.22Zm-2.25,6.85c.45-1.07.84-2.14,1.2-3.2-1.53,1.24-3.37,1.94-5.16,1.94-.56,0-1.12-.08-1.66-.22.22,1.69.65,4.24,1.29,5.27.52.84,1.11,1.54,1.62,2.05.96-1.93,1.88-3.9,2.71-5.84Zm-18.76-158.74l11.12-7.01c-1.82-.34-3.09-1.09-3.84-2.26-1.21-1.87-.69-4.21-.03-6.19-1.88,1.69-3.97,3.39-6,2.6-2.43-.93-2.66-4.6-2.67-8.41-1.14,2.81-2.74,5.72-5.51,6.24-2.39.45-4.64-1.06-6.54-2.83.57,1.85.8,3.85-.12,5.6-.84,1.58-2.42,2.63-4.81,3.21h-.01s-.01,0-.01,0h.02l10.25,7.62-.4,2.81c.73.41,2.52,1.15,4.14,1.49,1.44.31,3.23-.07,4.39-.42,0-.55-.02-1.1,0-1.65l.02-.8Zm1.27,13.21c-.29-1.14-.51-2.31-.7-3.48-1.47.47-3.5.93-5.17.93-.18,0-.35-.01-.52-.02-1.62-.11-3.3-.86-4.54-1.57h0s-.48,3.4-.48,3.4c1.23.78,3.59,2.04,5.59,2.18,1.97.13,4.45-.8,5.82-1.44Zm-33.58,49.9c.23-1.99-.6-3.69-1.34-4.77-2.58,4.8-7.63,7.46-12.09,6.17-2.17-.63-3.69-2.09-4.68-3.46-.48,1.37-1.3,2.58-2.41,3.52-1.5,1.28-3.38,1.87-5.02,1.58-1.96-.34-3.62-1.82-4.54-3.82-1.48,2.6-4.09,4.29-6.91,4.16-2.34-.11-4.05-1.52-5.1-2.71-.66,1.36-1.69,2.5-2.97,3.25-1.03.6-2.15.92-3.22.92-.51,0-1.01-.07-1.48-.22-1.58-.48-2.87-1.74-3.62-3.42-2.44,2.85-6.18,3.62-8.74,2.4-1.34-.64-2.22-1.7-2.78-2.75-.53.91-1.25,1.71-2.12,2.33-1.6,1.15-3.5,1.56-5.2,1.13-2.35-.6-4.42-2.92-4.76-5.88-3.4,3.11-5.42,4.03-6.78,3.18-1.31-.83-1.03-2.67-.73-4.62.14-.93.44-2.85.05-3.12-.69-.48-3.9,1.79-5.27,2.76-2.58,1.82-4.28,3.02-5.44,1.98-1.25-1.13.06-3.8,1.17-5.22,1.48-1.89,3.47-2.73,4.79-3.2-1.25-.72-3.86-1.64-8.33-1.62-.78,1.1-1.84,1.42-2.7,1.67-.72.21-1.47.43-2.35,1.1-2.08,1.59-3.58,4.58-2.86,5.71.44.69,2.05,1.12,4.11.78.27-.07.55-.13.83-.17l.58,2.94c-.26.06-.52.11-.78.16-1.18.33-2.22,1.06-2.89,2.05-.66.96-.91,2.08-.68,3.06.42,1.8,2.47,3.15,4.55,3.02,1.91-.12,3.57-1.5,4.12-3.42l2.9.76c-1.5,6.31-.65,9-.18,9.22.59.27,2.83-1.24,3.67-1.81,2.03-1.37,3.72-3.16,5.02-5.32l.42-.7,35.53-1,39.23-1.11-52.47,33.06-.83-.66c-3.47-2.76-5.07-3.49-5.72-3.68,0,.36.06.86.1,1.2.16,1.37.36,3.09-1.06,3.89-1.32.75-2.52-.16-3.4-.83-.78-.59-1.58-1.2-2.51-1.22-.99,0-2.24.64-3.16,1.67-.69.76-.87,1.38-.85,1.54.19.17,1.37.43,1.94.55,1.36.3,3.05.66,3.26,2.26.25,1.9-1.86,2.77-4.31,3.78-1.07.44-3.27,1.35-3.69,1.94.27.44,2.09,1.47,4.08,1.66,2.68.25,4.73-1.37,5.29-1.87l3.28-2.94-.8,4.33c-.4,2.18-1.31,3.97-2.68,5.3-.99.96-2.03,1.48-2.78,1.86-.13.06-.28.14-.41.21.32.29.91.68,1.6.88,2.08.62,4.15-1.1,4.38-1.3l3.27-2.83-.82,4.25c-1.2,6.27.39,10.93,2.62,11.82,1.16.46,2.85.22,3.4-.49.48-.62.12-1.89-.23-3.12-.47-1.68-1.01-3.59.32-5.02,1.46-1.58,3.96-1.16,6.11-.68-.58-.77-1-1.68-.63-2.68.66-1.77,2.89-1.74,5.06-1.72l-.02.04c.69,0,1.86.02,2.5-.1-.21-.39-.74-1.13-2.04-2.36l-1.58-1.5,2.57-1.24c1.37-2,2.33-4.1,2.38-4.84-.6-.11-2.73.54-3.78.86-2.36.72-3.92,1.19-4.58.02-.58-1.02.32-2.09,1.6-3.4-1.33.53-2.45.81-3.11,0-.41-.51-.43-1.28-.04-2.27.8-2.04,2.96-4.42,5.82-4.82,1.87-.27,3.48.38,4.65,1.14.01-1.91.52-3.68,1.5-5.08.87-1.25,2.01-2.02,3.19-2.17,1.56-.2,3.27.68,4.66,2.33,1.05-2.56,2.36-3.96,3.98-4.25,1.6-.29,3.45.77,5.28,2.1-.36-3.04,1.02-6.13,3.7-7.76,2.82-1.71,6.36-1.45,8.91.48,1.2-3.94,4.65-6.7,8.41-6.41,2.29.18,4.42,1.55,5.84,3.68,2.19-3.31,2.28-7.44.06-10.08-2.2-2.63-5.86-2.58-6.57-2.54l-.15-1.99c3.93-.39,7.06-3.13,7.46-6.51Zm-32.01,137.23c1.38-1.76,2.97-3.34,4.75-4.7-2.28-1.37-4.29-3.03-5.98-4.96-1.6-1.82-2.45-4.52-3-7.11-.55,2.33-1.49,4.99-3.18,7.5h0c-1.23,1.83-2.77,3.44-4.61,4.83,1.81,1.01,3.37,2.25,4.68,3.72,1.98,2.23,3.29,4.86,4.16,7.29.59-2.18,1.55-4.49,3.18-6.57Zm-4.35-118.02l3.92-2.47-2.79-.88-1.13,3.35Zm-5.77-3.69l5.15-6.21-10.72.3,5.57,5.91Zm-9.06,13.03l7.13-4.49-6.11-2.35-1.02,6.84Zm6.56-27.66c.33-2.34.73-8.04-.17-10.72-.59-1.75-2.01-3.91-2.99-5.18-3.91.62-7.22,1-10.02,1.2.57,1.51,1.18,3.55,1.44,4.81h0c.42,2.06.16,7.22-.16,10.25,1.03-.63,1.97-1.59,2.63-2.9l1.46-2.92.42,3.24c.25,1.95,1.39,3.55,2.83,3.99.94.29,2.07.1,3.1-.51.55-.33,1.04-.76,1.45-1.26Zm-11.52,17.82l5.88-9.03-13.8.39,7.92,8.64Zm-2.47,14.51l4.69-2.95-5.12-1.4h-.01s.44,4.35.44,4.35Zm-6.97-35.78c.16-1.02.28-2.39.28-4.31,0-2.66-.79-5.45-1.43-7.03-3.71-.48-5.5-1.56-6.59-2.59l-.09-.09c-2.13-2.05-3.05-1.88-3.22-1.83h-.01c-.12.04-.24.14-.37.3,1.18,1.04,2.47,2.54,3.36,4.62,1.3,3.03,1.31,9.34.01,12.5-.2.48-.43.88-.68,1.19.61,1.09,1.57,1.88,2.59,2.14,1.12.28,2.44-.03,3.55-.82,1.32-.94,2.15-2.43,2.28-4.08h.32Zm-8.08,21.18l7.06-8.48-12.04.34,4.98,8.14Zm-.36-25.9l-.83,3.44c-.25,1.05-.19,2.05.07,2.94.08-.14.15-.29.22-.46,1.2-2.92,1.2-8.94,0-11.73-.8-1.87-1.95-3.23-3.02-4.19-.53.77-1.26,1.71-2.64,2.11-1.36.4-2.84.13-4.39-.79-1.98-1.17-2.54-2.86-3-4.22-.29-.88-.53-1.57-1.07-2.04-1.01-.87-3.17-1.07-5.36-.5-2.07.53-3.74,1.64-4.16,2.77h-.01c-.3.79.01,1.66.57,3,.43,1.02.91,2.23.83,3.48.87.02,1.68.06,2.43.14-.14-.38-.22-.8-.22-1.25,0-1.67,1.08-3.03,2.4-3.03s2.4,1.36,2.4,3.03c0,.79-.24,1.51-.64,2.05,2.79.91,3.96,2.23,4.03,2.87.1.95-.78,1.25-1.63,1.54-1.14.39-3.05,1.04-4.37,2.72-.59.75-.98,1.58-1.15,2.14.74-.38,1.88-1.19,2.7-1.77,2.81-1.98,5.72-4.04,7.56-2.77,1.42.98,1.1,3.06.79,5.07-.14.87-.36,2.33-.14,2.66,0-.04,1.24.14,6.12-4.72l2.51-2.49Z"/><path d="m337.96,825.93c-2.77,1.26-7.91,4.07-14.37,8.54l-.18.49c.25,8.13.56,12.57.82,14.99.48-1.29,1.21-2.58,2.56-2.95,2.06-.57,3.98,1.34,5.66,3.03.44.45,1.05,1.06,1.49,1.4-.03-.29-.08-.65-.13-.95-.26-1.62-.64-4.07.55-6.35,1.24-2.38,3.54-3.42,5.22-4.18.56-.25,1.3-.59,1.54-.81-.25-.19-1.26-.52-1.95-.74-1.86-.61-4.18-1.36-5.01-3.4-1.22-3.01,1.78-6.63,3.77-9.02.01-.02.02-.03.03-.05Zm50.45-232.34l-4.22-.51c-3.57-.43-6.98,1.49-7.93,4.46-.6,1.9.89,3.41,3.41,5.67,1.29,1.17,2.63,2.36,3.55,3.77l1.25,1.92-2.26-.39c-1.23-.21-2.49-.57-3.83-.95-3.69-1.04-7.5-2.12-10.15.09-3.1,2.58-4.27,7.05-2.91,11.13l.53,1.58-1.64-.28c-2.31-.39-4.45.22-5.47,1.55-.69.91-.95,2.24-.69,3.67.36,2.04,1.69,3.92,3.64,5.16l-.9,1.78c-3.68-1.44-7.72-.76-9.81,1.65-1.3,1.5-1.87,3.7-1.57,6.03.38,2.9,2.05,5.55,4.59,7.28l-1.05,1.7c-4.15-2.31-9.32-1.84-12.31,1.12-1.75,1.73-2.71,4.3-2.63,7.04.09,3.11,1.5,6.11,3.88,8.22l-1.26,1.55c-4.08-3.02-9.66-3.03-13.58,0-4.21,3.25-5.48,9.34-2.94,14.17l3.49,6.64-5.11-5.49c-3.01-3.23-6.91-3.63-8.27-2.49-.6.51-.98,1.53-1.02,2.74-.07,1.89.67,3.9,2,5.6.39.37.75.77,1.09,1.2l-1.47,1.34c-.41-.39-.78-.8-1.12-1.22-1.86-1.77-4.27-2.85-6.81-3.01-2.64-.16-5.1.67-6.76,2.29-2.84,2.76-3.3,7.67-1.11,11.66l.72,1.31-1.48.17c-2.94.34-5.27,2.66-5.55,5.53-.3,3.08.55,4.7,4.53,8.68l2.69,2.69-3.66-1.02c-.71-.2-1.63-.61-2.7-1.08-3.32-1.47-8.35-3.7-10.74-.99-2.89,3.27-2.88,8.52.04,12.22l1.1,1.4-1.77.21c-5.2.63-9.43,4.59-10.06,9.42-.72,5.55,6.18,11.36,10.19,12.4l3.92,1.02-3.95.92c-3.24.75-6.7,3.12-8.23,5.63-.44.72-.92,1.8-.67,2.79.55,2.18,3.69,4.4,8.02,4.38l2.47-.02-1.76,1.74c-.1.1-2.39,2.41-1.66,5.49.54,2.28,2.53,4.04,4.95,4.38l1.83.26-1.22,1.39c-.1.12-2.51,2.91-1.72,5.48.33,1.08,1.37,2.1,2.86,2.82,2.17,1.04,4.75,1.19,6.75.4l.88,1.79c-3.41,2.02-5.42,5.69-4.68,8.53.43,1.63,1.84,3.16,3.78,4.09,2.67,1.28,5.86,1.26,8.77-.04l4.23-1.9-3.07,3.47c-2.16,2.44-2.71,5.77-1.37,8.3.83,1.58,2.41,2.78,4.32,3.3,2.03.56,4.2.31,6.11-.71l1.95-1.03-.51,2.15c-.4,1.71-.87,5.13.6,8.83,1.92,4.84,5.96,7.18,7.75,8.01,4.11-2.84,8.3-5.41,11.83-7.27,5.63-2.96,6.08-2.4,6.52-1.87.77.93-.05,1.92-1.54,3.71-1.58,1.9-4.22,5.09-3.45,6.99.48,1.18,2.23,1.75,3.77,2.25,1.7.55,3.3,1.07,3.37,2.58.07,1.42-1.3,2.04-2.75,2.69-1.49.67-3.35,1.51-4.27,3.28-.88,1.7-.59,3.6-.35,5.12.22,1.42.43,2.77-.73,3.35-1.3.66-2.56-.61-4.02-2.07-1.17-1.18-2.77-2.79-3.71-2.52-.87.24-1.38,2.12-1.69,3.25-.33,1.21-.61,2.25-1.62,2.25h-.05c-1.12-.04-1.93-.08-2.53-18.25-57.61-15.82-97.98-63.94-96.17-114.91,1.44-40.51,29.17-68.21,41.03-78.24l.21-.15c4.97-2.93,9.58-6.31,13.77-10.08l.48.53c-.18.22-.25.53-.11.9h0c.21.55.45,1.07.73,1.58-4.08,3.58-8.51,6.8-13.28,9.62h-.02c-2.93,2.48-6.84,6.06-11.06,10.65,1.8,3.28,6.82,10.93,17.19,16.92,11.71,6.77,22.51,7.29,25.83,7.27l.5-.5.63.62c-.07.09-.03.25.11.24,1-.12,2-.23,2.99-.33-2.68,2.7-5.23,5.2-7.63,7.57-13.79,13.54-23.75,23.32-27.98,41.55-.41,1.76-.75,3.53-1.01,5.33-.66.19-1.33.39-1.99.6-.18.06-.11.35.08.29.62-.19,1.24-.38,1.86-.55-2.56,17.42,1.16,36.68,10.7,54.87,8.36,15.94,21.16,29.49,36.59,38.96-.72-1.01-1.38-2.15-1.9-3.47-1.24-3.12-1.27-6.07-1.02-8.17-1.89.6-3.9.65-5.81.13-2.44-.67-4.47-2.23-5.56-4.29-1.29-2.45-1.25-5.44,0-8.08-2.62.53-5.31.24-7.66-.89-2.5-1.19-4.27-3.16-4.85-5.39-.71-2.72.35-5.86,2.61-8.33-1.52-.05-3.08-.42-4.48-1.09-1.99-.96-3.41-2.43-3.9-4.04-.73-2.39.32-4.72,1.2-6.11-2.51-.88-4.46-2.96-5.07-5.53-.57-2.41.21-4.46,1-5.78-4.02-.53-7.33-2.83-8.07-5.78-.33-1.32-.01-2.81.91-4.32,1.39-2.28,4.01-4.39,6.85-5.65-4.49-2.37-9.82-7.79-9.07-13.55.21-1.66.78-3.24,1.64-4.65.11-.03.23-.06.34-.09.19-.05.11-.34-.08-.29-.01,0-.03.01-.04.01,1.85-2.85,4.86-5.01,8.36-5.85-2.56-4.32-2.24-9.86.95-13.46,2.93-3.3,7.73-1.78,11.47-.2-1.75-2.28-2.34-4.17-2.07-6.95.32-3.35,2.74-6.14,5.96-7.06-1.91-4.52-1.13-9.75,2.05-12.85,2.07-2.02,5.09-3.05,8.28-2.86,1.62.1,3.18.52,4.63,1.2-.32-1.05-.48-2.13-.44-3.19.03-1,.25-1.92.62-2.69.35-.03.71-.06,1.06-.08.19-.01.19-.31,0-.3-.3.02-.6.04-.9.07.25-.48.58-.88.96-1.2,1.72-1.44,5.04-1.44,8.14.35-1.07-4.91.67-10.08,4.75-13.23,3.39-2.61,7.82-3.32,11.83-2.11-1.01-1.84-1.58-3.9-1.64-6.01-.09-3.29,1.08-6.39,3.22-8.51,1.59-1.58,3.62-2.58,5.83-2.99h.01l4.5.15c.19,0,.19-.29,0-.3h-.1c-1.08-1.58-1.8-3.39-2.04-5.28-.38-2.9.37-5.67,2.04-7.6,1.91-2.2,5.04-3.28,8.31-3.05-.86-1.17-1.45-2.49-1.7-3.88-.36-1.98.03-3.89,1.06-5.24,1.23-1.62,3.4-2.48,5.88-2.45-.92-4.44.56-9.06,3.92-11.85,3.45-2.87,7.98-1.6,11.97-.47.21.05.41.11.62.17-.4-.37-.81-.74-1.22-1.11-2.35-2.11-5.02-4.5-3.97-7.77.96-3.01,3.8-5.19,7.13-5.76-1.74-1.57-3.71-3.89-4.95-7.1-.08-.21-.16-.43-.24-.65-1.97-5.72-.5-10.92.79-13.89-4.03,1.14-7.98.44-9.66-1.93-.91-1.3-1.17-3.21-.7-5.26.64-2.77,2.41-5.33,4.98-7.23-4.45-1.59-8.72-4.11-8.31-6.88.21-1.42,1.64-2.38,3.31-3.03-2.46-1.17-4.33-3.32-4.91-5.93-.49-2.22.01-4.66,1.38-6.69.79-1.17,1.84-2.15,3.05-2.88-2.23-.74-4.98-2.24-6.59-5.28-2.22-4.2-1.37-9.49,1.88-13.3h-.13c-5.28,0-10.1-2.75-12.37-7.3-2.1-4.2-1.18-8.38-.27-10.8-3.04.51-6.15-.37-8.22-2.44-2.54-2.54-3.22-6.37-2.03-9.81-4.59,1.88-9.94,1.06-13.4-2.41-2.88-2.9-3.98-7.17-3.06-11.27.11-.19.21-.39.32-.58.09-.17-.17-.32-.26-.15-.01.03-.03.05-.05.08-2.04.5-5.03.75-7.95-.76-4.17-2.15-6.52-6.95-6.15-12.07-1.67,1.12-3.63,1.78-5.67,1.85-2.85.1-5.54-.93-7.4-2.83-2.14-2.2-3.01-5.37-2.55-8.45-1.17.76-2.46,1.32-3.85,1.64-2.72.63-5.48.24-7.56-1.08-3.07-1.95-5.31-6.66-5.1-10.71.07-1.25.37-2.39.87-3.38-5.67,1.36-13.95,1.69-16.42-2.18-1.56-2.44-1.32-5.45-.79-7.65-5.15,1.86-11.07.13-13.79-4.37-1.15-1.89-1.62-4.16-1.37-6.48,1.11-2.46,2.22-4.91,3.33-7.37.06-.12-.05-.23-.15-.23l-.16-.92c1.25-.22,2.6-.62,4-1.22.15-.06.29-.13.44-.19l.8,1.83c-.14.07-.28.13-.42.19-2.55,1.2-4.5,3.39-5.37,6.07-.84,2.57-.6,5.24.66,7.32,2.27,3.76,8.12,5.72,13.2,2.66l2.52-1.52-1.08,2.74c-.6,1.54-1.82,5.4-.09,8.1,2.26,3.53,13.74,2.18,18,.07l.89,1.79c-2.35,1.16-2.94,3.29-3.02,4.88-.17,3.34,1.7,7.34,4.18,8.91,1.64,1.03,3.84,1.33,6.04.82,2.29-.54,4.3-1.85,5.75-3.74.22-.35.45-.7.71-1.03l1.64,1.13c-.22.35-.45.69-.7,1.02-1.91,3.25-1.59,7.44.88,9.97,1.46,1.5,3.61,2.3,5.9,2.23,2.48-.09,4.83-1.23,6.44-3.14l2.93-3.47-1.2,4.38c-1.43,5.22.52,10.54,4.64,12.67,3.58,1.85,7.38.44,8.46-.03l2.44-1.07-1.13,2.41c-1.9,4.07-1.21,8.78,1.73,11.73,3.63,3.65,9.82,3.76,14.08.25l1.4,1.42c-2.69,3.15-2.71,7.88-.05,10.54,2,2.01,5.31,2.57,8.24,1.39l2.7-1.08-1.46,2.51c-.13.23-3.23,5.69-.61,10.95,2.27,4.57,7.89,7.06,13.36,5.9l4.49-.95-3.69,2.73c-4.26,3.15-5.79,8.68-3.57,12.87,2.46,4.63,8.42,4.93,8.48,4.93l9.67.39-9.55,1.59c-2.14.36-3.97,1.53-5.17,3.3-1.06,1.58-1.46,3.45-1.08,5.14.67,3.03,3.64,5.27,7.07,5.32.04,0,.07.02.1.02.07.01.15.02.22.05.04.02.09.04.13.06.07.04.13.08.19.13.04.04.08.08.11.12.04.05.08.11.11.17s.05.12.07.18c0,.03.04.06.04.1v.09s.02.06.02.09c0,.04-.02.07-.02.11-.01.07-.02.13-.04.19s-.05.11-.08.17c-.04.05-.07.1-.11.15s-.09.09-.14.13c-.04.04-.09.07-.15.1s-.12.05-.19.07c-.04.01-.07.04-.11.04-3.49.58-5.49,1.66-5.6,2.38-.14.91,2.34,3.4,8.93,5.32l2.32.68-2.12,1.16c-3.01,1.65-5.2,4.31-5.84,7.11-.33,1.47-.19,2.83.39,3.65,1.28,1.8,5.47,2.36,9.68.32l3.12-1.51-1.84,2.94c-.74,1.18-4.29,7.43-1.83,14.57,1.59,4.61,4.87,7.3,6.68,8.49l3.55,2.34Zm-93.79,92.07c1.12-1.11,2.28-2.25,3.47-3.42-5.16-.25-14.91-1.78-24.84-7.52-10.19-5.89-15.45-13.37-17.6-17.09-1.29,1.46-2.62,3.02-3.94,4.66,1.73,3.2,6.75,10.98,17.27,17.06,12.42,7.18,23.21,6.56,25.64,6.31Zm-2.16,2.13h-.64c-4.79,0-13.85-.93-23.85-6.71-10.2-5.9-15.47-13.38-17.61-17.1-.63.81-1.26,1.64-1.89,2.49,1.26,2.54,6.21,11.19,17.66,17.81,11.49,6.64,19.85,7.11,22.78,7.03h0c1.15-1.15,2.33-2.32,3.55-3.52Zm17.76,141.63c-14.48-9.62-26.48-22.81-34.51-38.12-.53-1.01-1.03-2.02-1.52-3.04-.04.09-.06.18-.1.27-.17.41-.39.78-.63,1.13.63,2.51,1.11,7.04-1.01,9.02-1.13,1.05-2.53,1.56-4.04,1.56-2.02,0-4.22-.94-6.15-2.72-.54.2-1.1.3-1.68.33,13.38,13.43,30.29,24.41,49.64,31.57Zm-23.24-136.17c-4.16-.23-11.94-1.54-21.84-7.26-10.83-6.26-16.09-14.29-17.97-17.73-2.76,3.89-5.44,8.16-7.88,12.8.9,1.72,3.55,3.37,5.44,3.94,2.47.73,5.29-.56,6.54-3.03l1.78.91c-1.19,2.35-3.46,3.9-5.89,4.25-1.01,2.93-4.83,6.1-7.5,6.1-.1,0-.2-.01-.29-.01-1.72-.16-3.59-.67-4.89-1.63-3.47,8.91-5.83,18.87-6.22,29.79v-.03c-.16,4.93.1,9.82.71,14.67,2.5,1.87,9.91,6.47,17.89,6.48h.04c8.31,0,15.22-4.49,17.59-6.41.32-2.5.76-4.98,1.32-7.41.41-1.79.9-3.47,1.41-5.11-.79,1.06-1.81,1.91-2.99,2.47-.5.23-1,.4-1.51.51-1.35,2.5-4.09,5.85-6.89,5.91h-.13c-3.66,0-6.54-3.08-7.07-7.47-2.76-1-4.62-4.08-4.33-7.35l1.99.18c-.22,2.57,1.31,4.95,3.48,5.43,1.11.24,2.34-.05,3.39-.81,1.22-.88,2.02-2.27,2.21-3.82.01-.04.01-.12.01-.12l1.99.22s-.01.08-.01.12c-.26,2.46.8,4.79,2.53,5.57,1.01.45,2.27.38,3.48-.19,1.63-.76,2.86-2.28,3.38-4.17l1.52.42c4.05-10.89,10.45-18.76,18.71-27.22Zm-14.73,94.48c.36-.8.51-1.68.48-2.58-5.03-11.18-7.96-22.64-8.68-33.78-2.31,2.17-8.36,6.88-17.27,6.88h-.05c-5.96-.01-10.61-2.11-13.64-4.06,1.52,4.59,3.38,9.08,5.56,13.46l.19-.12c1.29,2.11,3.67,3.2,5.92,2.71,2.71-.59,4.58-3.36,4.25-6.31l1.99-.22c.44,3.96-2.12,7.69-5.82,8.49-.5.11-1,.16-1.5.16-.98,0-1.95-.21-2.86-.59,4.65,8.39,10.47,16.32,17.31,23.58,1.29.64,2.72.73,3.84.12.9-.49,1.54-1.4,1.81-2.57.36-1.54.02-3.22-.94-4.62-.02-.03-.07-.1-.07-.1l1.64-1.14s.05.07.07.1c1.47,2.09,3.79,3.24,5.54,2.74.93-.27,1.74-1.05,2.23-2.15Zm-1.16,9.5c.96-.9,1.09-3.53.67-5.95-.38.22-.77.4-1.18.52-1.49.42-3.15.13-4.68-.72.06.76,0,1.53-.17,2.27-.29,1.24-.88,2.3-1.71,3.08,2.47,2.06,5.32,2.43,7.06.8h0Zm-7.18-52.95c.04-1.84.15-3.67.31-5.49-3.4,2.35-9.77,5.73-17.32,5.73h-.04c-7.18-.01-13.95-3.52-17.54-5.83.35,2.26.8,4.51,1.32,6.74,2.32,1.73,8.46,5.28,16.1,5.29h.04c8.65,0,15.04-4.69,17.12-6.44h.01Zm.03,4.59c-.02-.67-.05-1.35-.05-2.02-3.27,2.41-9.53,5.87-17.11,5.87h-.05c-6.63-.03-12.14-2.46-15.39-4.43.24.9.47,1.79.73,2.68,2.42,1.98,7.51,5.25,14.66,5.26h.04c9.59,0,15.57-5.9,16.67-7.09.14-.15.32-.23.5-.27Zm-3.58-22.23h-.01c-.44-.07-.87-.2-1.28-.38-1.47-.67-2.6-2-3.22-3.66-.43.56-.94,1.06-1.52,1.48-1.1.8-2.37,1.24-3.63,1.27.56,3.04,2.54,5.13,5,5.13h.09c1.42-.03,3.27-1.83,4.57-3.84Zm-15.38-39.53c-.28-.04-.56-.1-.83-.18h-.01c-1.89-.58-4.41-1.99-5.91-3.84-1.04,2.1-2.03,4.28-2.96,6.52.81.91,2.63,1.47,4.27,1.62,1.54.17,4.38-2.13,5.44-4.12Z"/><path d="m361.41,595.92c.6-2.17,1.55-4.48,3.18-6.55,1.38-1.76,2.97-3.34,4.75-4.7-2.28-1.37-4.29-3.03-5.98-4.96-1.6-1.82-2.45-4.52-3-7.11-.55,2.33-1.49,4.99-3.18,7.5-1.23,1.82-2.77,3.43-4.61,4.82,1.81,1.01,3.37,2.25,4.68,3.72,1.98,2.22,3.29,4.85,4.16,7.28Zm13.87-11.58l-2.3,1.44c-2.34,1.47-4.37,3.3-6.05,5.44-2.86,3.65-3.29,8.39-3.55,11.22-.06.6-.11,1.13-.17,1.56l-.18,1.29-1.32.08c-1.32,0-1.5-1.24-1.6-1.91-.12-.75-.25-1.47-.39-2.18-7.24,15.29-15.8,29.96-25.55,43.67-.29-.01-.57-.02-.86-.04-.1-.41-.42-.75-.97-.76-.43-.01-.85-.02-1.28-.04,10.59-14.77,19.81-30.68,27.44-47.29-.9-2.5-2.07-4.58-3.51-6.2-1.55-1.75-3.58-3.13-6.02-4.1l-2.85-1.14,2.65-1.55c2.47-1.45,4.46-3.27,5.91-5.42,2.7-4,3.19-8.44,3.48-11.1.1-.88.18-1.62.38-2.19-.54-2.36-1.11-5.61-1.77-9.34-2.4-13.61-6.02-34.17-13.64-45.77-5.11-7.78-10.77-14.38-16.73-20.12-.19.86-.47,1.94-.89,3.19l-1.91-.52c.64-1.91.95-3.42,1.1-4.29-.73-.67-1.45-1.33-2.18-1.97-1,4.28-3.84,12.34-11.82,19.91-4.22,4-8.52,6.55-12.18,8.17l-.79-1.83c3.48-1.54,7.57-3.98,11.59-7.79,8.39-7.96,10.82-16.65,11.47-19.96-1.36-1.16-2.74-2.28-4.12-3.37-1.22,4.47-4.22,11.8-11.52,18.73-5.54,5.26-11.23,8.01-15.44,9.44l-.64-1.89c3.98-1.37,9.38-3.99,14.66-9,7.45-7.06,10.19-14.67,11.17-18.62-11.37-8.66-23.31-15.09-34.47-21.09-4.72-2.54-9.3-5-13.66-7.53.05,2.7-1.25,5.31-3.58,6.69-1.13.66-2.39.99-3.67.99-1.8,0-3.63-.65-5.11-1.9l1.29-1.53c1.89,1.59,4.49,1.88,6.47.71,2.07-1.23,3.02-3.82,2.43-6.24-6.33-3.76-12.15-7.71-17.21-12.27l-1.91-.4c.11-.42.2-.8.28-1.15-.75-.71-1.47-1.45-2.18-2.2-1.18,4.45-4.15,11.92-11.58,18.97-6.26,5.95-12.71,8.68-17,9.94l-.56-1.91c4.05-1.19,10.19-3.79,16.18-9.48h0c7.9-7.5,10.51-15.63,11.33-19.32-1.34-1.53-2.6-3.14-3.77-4.83-1.07,4.36-3.96,12.18-11.73,19.55-5.7,5.41-11.54,8.17-15.78,9.56l-.6-1.89c4.01-1.34,9.56-3.96,14.98-9.11,8.38-7.97,10.82-16.64,11.47-19.95l.3.05c0,.14.21.24.28.08.49-1.08.97-2.17,1.46-3.25,9.03,15.35,25.15,24.02,43.32,33.8,10.98,5.91,22.71,12.23,33.96,20.66.11-.08.24-.13.38-.16l-.48.87c-.09.17.17.32.26.15l.57-1.02c.52.09.9.58.82,1.12-.01.05-.03.13-.03.19,10.18,7.83,19.91,17.47,28.27,30.2,7.96,12.11,11.65,33.04,14.09,46.89.65,3.68,1.21,6.88,1.73,9.16.67.69.87,1.94,1.23,4.18.45,2.82,1.14,7.09,2.92,9.12,1.95,2.22,4.38,4.04,7.24,5.42l2.44,1.18Z"/><path d="m355.41,597.33l1.96.41c-.76,3.65-3.96,6.29-7.46,6.29-.23,0-.47-.02-.71-.04-3.13-.33-5.75-2.72-6.52-5.95l1.94-.46c.57,2.41,2.49,4.18,4.78,4.42,2.78.3,5.4-1.77,6.01-4.67Z"/><path d="m349.52,645.47c.19.01.19.3,0,.3l-4.5-.15c1.45-.27,2.97-.27,4.49-.01-.03-.05-.06-.09-.09-.14h.1Z"/><path d="m349.42,645.47s.06.09.09.14c-1.52-.26-3.04-.26-4.49.01h-.01c-3.68-.12-7.36-.25-11.05-.38.08-.09.15-.19.21-.29,5.09.19,10.16.36,15.25.52Z"/><path d="m348.83,281.19c.19-.04.27.25.08.29-1.76.34-3.52.69-5.28,1.04.3-.18.6-.35.92-.49,1.43-.28,2.85-.56,4.28-.84Z"/><path d="m345.08,560.87l1.94.47c-.73,2.99-3.64,7.62-6.56,8.06-.29.05-.58.07-.88.07-.6,0-1.21-.09-1.81-.26-.95-.27-1.87-.74-2.71-1.4-1.64-1.29-2.75-3.16-3.17-5.24-.35.05-.7.08-1.06.08-.6,0-1.21-.07-1.8-.2-.92,2.62-3.1,5.88-5.42,6.83l.87-.07c.16,1.95,1.1,3.73,2.57,4.89,1.2.95,2.61,1.38,3.87,1.19,1.75-.26,4.29-3.97,4.91-6.55l1.94.47c-.73,2.99-3.64,7.62-6.56,8.06-.29.05-.58.07-.88.07-1.55,0-3.15-.58-4.52-1.66-1.86-1.47-3.05-3.7-3.3-6.12-.21.03-.42.05-.63.05-1.55,0-3.15-.58-4.52-1.66v-.04c-1.9-1.5-3.11-3.8-3.32-6.29l1.99-.17c.16,1.94,1.1,3.73,2.57,4.89,1.2.95,2.6,1.38,3.87,1.19,1.57-.24,3.78-3.26,4.66-5.74-.53-.25-1.06-.55-1.55-.91-2.08-1.53-3.43-3.77-3.78-6.32l1.98-.28c.27,2.01,1.33,3.78,2.98,4.98,1.52,1.11,3.35,1.58,5.05,1.29,3.01-.51,5.35-3.37,5.43-6.65l2,.05c-.09,3.66-2.28,6.82-5.42,8.09.31,1.67,1.19,3.17,2.48,4.19,1.2.95,2.6,1.38,3.87,1.19,1.74-.26,4.29-3.97,4.91-6.55Z"/><path d="m331.31,284.63c4.42-.87,8.83-1.74,13.24-2.6-.32.14-.62.31-.92.49-4.18.81-8.35,1.63-12.52,2.45.07-.11.13-.22.2-.34Z"/><path class="cls-1" d="m333.96,645.24c3.69.13,7.37.26,11.05.38-2.21.41-4.24,1.41-5.83,2.99-2.14,2.12-3.31,5.22-3.22,8.51.06,2.11.63,4.17,1.64,6.01-4.01-1.21-8.44-.5-11.83,2.11-4.08,3.15-5.82,8.32-4.75,13.23-3.1-1.79-6.42-1.79-8.14-.35-.38.32-.71.72-.96,1.2-2.44.17-4.87.38-7.31.63,8.46-8.57,18.15-19.12,28.55-33.58.27-.37.54-.75.8-1.13Z"/><path d="m340.21,516.69c1.74,2.88,1.18,6.57-1.32,8.77-2.24,1.96-5.47,2.22-7.99.77-.53,1.13-1.56,2.64-3.41,3.37-.71.28-1.45.41-2.2.41h.01c-2.43-.01-4.9-1.41-6.33-3.77l1.71-1.03c1.37,2.27,3.99,3.35,6.08,2.52,2-.79,2.63-3.07,2.69-3.33l.4-1.59,1.23,1.09c1.86,1.64,4.65,1.67,6.49.05,1.78-1.56,2.17-4.18.93-6.23l1.71-1.03Z"/><path d="m334.17,644.95c-.06.1-.13.2-.21.29-.2,0-.41-.02-.61-.02,0-.1-.01-.21-.04-.31.29.02.57.03.86.04Z"/><path d="m333.96,645.24c-.26.38-.53.76-.8,1.13-10.4,14.46-20.09,25.01-28.55,33.58-1.1.11-2.21.23-3.31.36-.05,0-.08.03-.11.06l-.63-.62c5.93-5.94,12.51-12.83,19.55-21.38.65.07,1.31.11,1.97.15,1.35.07,1.35-2.03,0-2.1-.12-.01-.24-.01-.36-.02,1.04-1.29,2.1-2.62,3.16-4,.48,0,.95-.02,1.42-.07,1.24-.11,1.34-1.96.24-2.09,1.01-1.33,2.03-2.7,3.06-4.1.91.06,1.82.1,2.74.11.68.01,1.01-.51,1.01-1.03.2,0,.41.01.61.02Z"/><path d="m331.95,619.17l1.82.84c-1.14,2.47-3.23,4.3-5.75,5.04-.67.2-1.35.3-2.02.32-1.8,2.32-5.12,5.24-8.13,5.24-.21,0-.42-.02-.63-.05-4.19-.62-6.97-4.56-6.81-9.5h0c-2.97-1.56-4.59-5.28-3.71-8.81l1.94.48c-.71,2.83.68,5.81,3.16,6.77,1.33.52,2.89.4,4.29-.31,1.5-.77,2.63-2.14,3.09-3.77.02-.04.04-.13.04-.13l1.93.53-.04.13c-.71,2.7.13,5.52,2.03,6.74,1.16.74,2.73.9,4.31.44,1.96-.58,3.6-2.02,4.49-3.96Zm-8.32,5.91c-.55-.17-1.07-.39-1.55-.7-1.62-1.04-2.69-2.81-3.06-4.84-.58.57-1.26,1.06-2,1.44-1.47.75-3.08,1-4.59.75.1,3.61,2.12,6.41,5.1,6.85,1.7.25,4.24-1.46,6.1-3.5Z"/><path d="m333.35,645.22c-.34-.02-.67-.03-1.01-.04-.19-.01-.19-.3,0-.3.32.01.65.02.97.03.03.1.04.21.04.31Z"/><path d="m332.34,645.18c.34.01.67.02,1.01.04,0,.52-.33,1.04-1.01,1.03-.92-.01-1.83-.05-2.74-.11.38-.52.75-1.04,1.13-1.56.11-.16.22-.31.33-.47.43.02.85.03,1.28.04.55,0,.87.35.97.76-.32,0-.65-.02-.97-.03-.19,0-.19.29,0,.3Z"/><path d="m331.31,284.63c-.07.12-.13.23-.2.34l-2.13.42c-.09.02-.15-.03-.18-.1-.03-.08,0-.17.1-.19.8-.16,1.61-.32,2.41-.47Z"/><path d="m328.98,285.39l2.13-.42c-1.72,3.07-3.4,5.78-4.79,7.81-3.88,5.68-8.32,10.76-13.1,15.38-11.14,10.75-24.15,19.01-36.36,26.47-1.41-.13-2.81-.25-4.22-.36,0-.19-.04-.38-.11-.55,15.64-9.52,32.97-20.18,45.94-35.61-.22.02-.44.04-.67.05l-.11-1.98c1.05-.07,1.92-.19,2.59-.31h.01c.7-.88,1.39-1.79,2.06-2.71-1.07.14-2.43.26-4.02.26s-3.31-.11-5.22-.43l.29-1.97c5.28.87,9.33.1,10.61-.2.92-1.36,1.97-3.02,3.08-4.89l1.71-.64c.03.07.09.12.18.1Z"/><path d="m331.06,644.11c-.11.16-.22.31-.33.47-.38.52-.75,1.04-1.13,1.56-15.03-1-29.06-8.34-39.85-18.7.46-.52.91-1.05,1.36-1.59h.01c10.76,10.37,24.86,17.67,39.94,18.26Z"/><path class="cls-3" d="m329.6,646.14c-1.03,1.4-2.05,2.77-3.06,4.1-.07-.02-.15-.02-.24,0-4.26.39-8.62-.81-12.74-1.79-3.74-.89-7.36-2.13-10.77-3.93-6.32-3.32-11.76-8.17-15.77-14.09.93-.97,1.84-1.97,2.73-2.98,10.79,10.36,24.82,17.7,39.85,18.7Z"/><path d="m326.54,650.24c1.1.13,1,1.98-.24,2.09-.47.05-.94.07-1.42.07.55-.71,1.11-1.43,1.66-2.16Z"/><path d="m326.3,650.23c.09-.01.17-.01.24,0-.55.73-1.11,1.45-1.66,2.16-4.06.08-8.21-1.05-12.11-1.99-3.84-.92-7.54-2.24-11.04-4.08-6.48-3.41-12.05-8.38-16.2-14.39.5-.5,1-1.01,1.49-1.52,4.01,5.92,9.45,10.77,15.77,14.09,3.41,1.8,7.03,3.04,10.77,3.93,4.12.98,8.48,2.18,12.74,1.79Z"/><path d="m323.6,492.56l1.91.52c-1.46,4.45-4.56,11-11.01,17.13-7.59,7.21-15.45,9.71-19.41,10.56,7.94,10.76,14.58,24.75,16.08,42.28,1.96,22.86-5.58,45.41-20.06,62.8-.97-.92-2.45.55-1.47,1.49.04.03.07.07.11.1-.89,1.01-1.8,2.01-2.73,2.98l-.06-.09c-.75-1.12-2.57-.07-1.81,1.06h0c.12.19.25.37.38.55-.83.82-1.67,1.63-2.53,2.42-.12-.24-.22-.47-.31-.71-.34-.88-1.45-.87-1.91-.34l-.48-.53c19.49-17.52,30.18-43.31,27.93-69.5-3.93-45.9-44.38-66.73-47.27-68.16-18.35-5.58-34.42-15.17-47.16-27.35-.01-.01-.02-.03-.03-.03-3.29-3.14-6.36-6.46-9.18-9.93-.21-.13-.38-.33-.45-.58-15.19-18.92-23.27-42.17-21.26-65.86,2.71-32,29.51-57.34,47.21-70.75l.24.38c-.31.26-.48.67-.33,1.18.18.61.37,1.21.6,1.8-6.03,4.64-13,10.62-19.63,17.72,1.25,2.95,4.31,8.39,10.85,12.02,6.85,3.8,13.44,3.3,16.75,2.67l.35,1.97c-1.28.25-3,.47-5.03.47-3.66,0-8.29-.72-13.03-3.35-6.47-3.59-9.79-8.84-11.35-12.16-1.12,1.24-2.22,2.5-3.3,3.79.05.07.1.13.13.22.68,2.07,3.5,9.14,11.42,13.53,3.85,2.14,7.61,2.91,10.75,3.08l-.08,1.98c-3.41-.17-7.49-1.01-11.64-3.31-7.63-4.23-10.88-10.78-12.02-13.74-.69.86-1.38,1.73-2.05,2.62l-.96,1.28c-8.27,11.22-14.72,24.37-15.95,38.9h-.02c-1.95,23.04,5.96,45.65,20.84,64.03.93-.2,2.1-.5,3.44-.94l.6,1.89c-.95.32-1.82.57-2.59.76,1.26,1.48,2.56,2.94,3.91,4.37.69-.14,1.51-.34,2.45-.61l.56,1.91c-.49.15-.94.27-1.37.38h-.01s-.01,0-.01,0h.02c.76.77,1.51,1.53,2.3,2.28,3.71-.78,11.21-3.14,18.5-10.06,7.16-6.8,9.97-14.1,11.05-18.16l1.91.4c-1.13,4.3-4.09,12.05-11.63,19.21-6.82,6.47-13.87,9.15-18.1,10.25,8.8,8.02,19.13,14.81,30.65,19.9l.77-1.03c2.35,1.74,5.62,1.61,7.47-.31.99-1.03,1.49-2.51,1.37-4.08-.12-1.69-.95-3.25-2.28-4.31-.03-.02-.1-.08-.1-.08l1.23-1.58s.07.05.11.08c2.22,1.7,5.14,2.01,7,.73,1.13-.78,1.89-2.16,2.07-3.8.23-2.03-.47-4.1-1.92-5.67l1.47-1.35c1.83,2,2.72,4.64,2.43,7.24-.08.71-.25,1.37-.48,2,1.54,2.73,3.05,7.35,1.41,10.08-1.44,2.4-3.98,3.67-6.83,3.67-1.47,0-3.01-.36-4.54-1.05-1.11.93-2.51,1.47-3.97,1.61,2.72,1.06,5.49,2.02,8.33,2.88l.22.09c.89.43,11.45,5.69,22.58,16.49,1.08-.21,2.6-.56,4.42-1.18l.64,1.89c-1.26.43-2.38.74-3.33.97,1.35,1.37,2.69,2.81,4.02,4.34,1.66-.33,4.26-1,7.33-2.36l.79,1.83c-2.63,1.17-4.94,1.86-6.66,2.26.64.77,1.27,1.56,1.89,2.36,3.29-.59,11.46-2.73,19.38-10.24,6.13-5.81,9.07-11.99,10.47-16.2Zm-56.45-8.39c.89-1.48.28-4.47-.89-6.97-.36.45-.78.84-1.24,1.16-1.58,1.1-3.62,1.4-5.64.96.31.76.5,1.57.56,2.4.12,1.64-.27,3.22-1.08,4.52,3.37,1.3,6.73.51,8.29-2.07Z"/><path class="cls-3" d="m312.77,650.41c3.9.94,8.05,2.07,12.11,1.99-1.06,1.38-2.12,2.71-3.16,4-7.7-.48-15.23-2.75-21.94-6.54-3.38-1.91-6.55-4.18-9.42-6.8-1.44-1.32-2.81-2.71-4.09-4.19-1.2-1.39-2.47-2.85-3.27-4.51.86-.79,1.7-1.6,2.53-2.42,4.15,6.01,9.72,10.98,16.2,14.39,3.5,1.84,7.2,3.16,11.04,4.08Z"/><path d="m315.1,140.53c9.22,9.26,8.99,19.32,8.47,23.21-.07.51-.5.87-.99.87h-.13c-.55-.07-.93-.57-.86-1.12.49-3.6.69-12.91-7.9-21.53-3.32-3.33-7.61-5.76-12.4-7.02v-.03c-.54-.14-.86-.69-.72-1.22.12-.45.53-.74.97-.74.08,0,.17.01.25.03,5.14,1.36,9.74,3.97,13.31,7.55Z"/><path d="m323.44,219.27c.22,2.61-.87,7.14-3.09,8.3-.62.32-1.32.5-2.05.56.17,2.64-.93,7-3.1,8.13-.75.39-1.62.59-2.51.59-.73,0-1.48-.13-2.22-.4-1.84-.66-3.36-2.09-4.23-3.93-.65.28-1.38.43-2.13.43v.02c-.72,0-1.47-.13-2.21-.4-1.94-.7-3.53-2.24-4.37-4.23l1.84-.78c.63,1.47,1.79,2.61,3.21,3.12,1.11.4,2.25.37,3.12-.09.99-.52,1.97-3.29,2.04-5.53-.43-.06-.86-.15-1.28-.28-2.06-.66-3.79-2.16-4.74-4.12l1.8-.87c.73,1.49,1.99,2.59,3.55,3.09,1.4.45,2.88.34,4.07-.31,2.14-1.17,3.18-3.99,2.41-6.55l1.92-.58c.88,2.94.02,6.05-2.07,7.94.66,1.17,1.69,2.06,2.9,2.5,1.11.41,2.24.38,3.12-.08,1.13-.59,2.23-4.03,2.03-6.36l1.99-.17Zm-7.13,8.85l.61-.05c-.43-.06-.86-.16-1.29-.31-1.62-.58-2.99-1.76-3.89-3.28-.63.29-1.3.5-2,.59-.07,2.19-.83,5.05-2.2,6.55l.41-.17c.63,1.47,1.79,2.61,3.21,3.12,1.11.4,2.25.37,3.12-.09,1.13-.59,2.23-4.03,2.03-6.36Z"/><path d="m322.08,656.42c1.35.07,1.35,2.17,0,2.1-.66-.04-1.32-.08-1.97-.15.53-.65,1.07-1.3,1.61-1.97.12,0,.24,0,.36.02Z"/><path d="m322.03,466.37c.09-.17.35-.02.26.15-.11.19-.21.39-.32.58.05-.23.11-.45.17-.68-.05.01-.11.03-.16.03.02-.03.04-.05.05-.08Z"/><path d="m322.14,466.42c-.06.23-.12.45-.17.68-1.79,3.27-3.59,6.52-5.4,9.78-.01-.01-.02-.01-.03-.01-.11-.02-.22-.01-.32.01,1.94-3.47,3.85-6.95,5.76-10.43.05,0,.11-.02.16-.03Z"/><path d="m321.72,656.4c-.54.67-1.08,1.32-1.61,1.97-3-.27-5.98-.79-8.89-1.57-6.3-1.7-12.32-4.56-17.6-8.39-2.6-1.88-5.06-4-7.26-6.31-1.81-1.9-3.7-3.96-4.96-6.31.54-.47,1.08-.94,1.6-1.43.8,1.66,2.07,3.12,3.27,4.51,1.28,1.48,2.65,2.87,4.09,4.19,2.87,2.62,6.04,4.89,9.42,6.8,6.71,3.79,14.24,6.06,21.94,6.54Z"/><path d="m317.67,102.8c.23.15.3.46.15.69h-.01s-5.22,8.02-5.22,8.02l-5.57-7.83c-.16-.23-.1-.54.12-.7.23-.16.54-.11.7.12l4.72,6.63,4.42-6.78c.15-.23.46-.3.69-.15Z"/><path d="m317.76,191.37l.07,2.35-1.74-1.58c-.52-.48-3.34-2.85-6.89-2.32-3.8.57-6.87,4.16-7.3,8.54l-1.99-.2c.52-5.28,4.3-9.62,8.99-10.32,2.75-.41,5.09.51,6.66,1.45-.79-4.97-3.79-8.15-6.62-8.46-.79-.08-2.43,0-4.43,1.52l-2.42,1.83.85-2.91c.54-1.85,1.21-5.56-.4-9.64-.67-1.7-1.58-3.07-2.5-4.14.01,2.33-.53,5.64-3.14,8.33-2.29,2.35-5.1,3.07-6.57,3.29l-.29-1.98c1.22-.18,3.55-.78,5.43-2.71h0c3.62-3.73,2.37-9.14,2.32-9.37l-.69-2.88,2.29,1.87c1.56,1.28,3.69,3.5,5.01,6.84,1.29,3.29,1.29,6.36.96,8.62,1.65-.73,3.01-.75,3.79-.67,4.72.51,8.42,5.9,8.61,12.54Z"/><path d="m316.57,476.88l-.57,1.02c-.09.17-.35.02-.26-.15l.48-.87c.1-.02.21-.03.32-.01.01,0,.02,0,.03.01Z"/><path class="cls-5" d="m320.11,658.37c-7.04,8.55-13.62,15.44-19.55,21.38l-.5.5c-3.32.02-14.12-.5-25.83-7.27-10.37-5.99-15.39-13.64-17.19-16.92,4.22-4.59,8.13-8.17,11.06-10.66h.02c4.77-2.81,9.2-6.03,13.28-9.61,1.26,2.35,3.15,4.41,4.96,6.31,2.2,2.31,4.66,4.43,7.26,6.31,5.28,3.83,11.3,6.69,17.6,8.39,2.91.78,5.89,1.3,8.89,1.57Zm-37.2-4.88l-1.58-1.23c-1.82,2.35-5.09,3.03-7.45,1.57-1.95-1.22-2.9-3.65-2.36-6.07l-1.95-.44c-.73,3.24.58,6.54,3.25,8.2,1.16.72,2.47,1.07,3.8,1.07,2.35,0,4.73-1.09,6.29-3.1Z"/><path class="cls-1" d="m313.01,825.43c.52,1.32,1.18,2.46,1.9,3.47-15.43-9.47-28.23-23.02-36.59-38.96-9.54-18.19-13.26-37.45-10.7-54.87,1.36-.42,2.74-.8,4.11-1.16-.86,1.41-1.43,2.99-1.64,4.65-.75,5.76,4.58,11.18,9.07,13.55-2.84,1.26-5.46,3.37-6.85,5.65-.92,1.51-1.24,3-.91,4.32.74,2.95,4.05,5.25,8.07,5.78-.79,1.32-1.57,3.37-1,5.78.61,2.57,2.56,4.65,5.07,5.53-.88,1.39-1.93,3.72-1.2,6.11.49,1.61,1.91,3.08,3.9,4.04,1.4.67,2.96,1.04,4.48,1.09-2.26,2.47-3.32,5.61-2.61,8.33.58,2.23,2.35,4.2,4.85,5.39,2.35,1.13,5.04,1.42,7.66.89-1.25,2.64-1.29,5.63,0,8.08,1.09,2.06,3.12,3.62,5.56,4.29,1.91.52,3.92.47,5.81-.13-.25,2.1-.22,5.05,1.02,8.17Z"/><path d="m312.82,679.25c.19-.01.19.29,0,.3-.35.02-.71.05-1.06.08.04-.11.09-.21.16-.31.3-.03.6-.05.9-.07Z"/><path d="m311.92,679.32c-.07.1-.12.2-.16.31-2.49.17-4.98.39-7.47.65.1-.11.21-.22.32-.33,2.44-.25,4.87-.46,7.31-.63Z"/><path class="cls-1" d="m311.76,679.63c-.37.77-.59,1.69-.62,2.69-.04,1.06.12,2.14.44,3.19-1.45-.68-3.01-1.1-4.63-1.2-3.19-.19-6.21.84-8.28,2.86-3.18,3.1-3.96,8.33-2.05,12.85-3.22.92-5.64,3.71-5.96,7.06-.27,2.78.32,4.67,2.07,6.95-3.74-1.58-8.54-3.1-11.47.2-3.19,3.6-3.51,9.14-.95,13.46-3.5.84-6.51,3-8.36,5.85-1.43.37-2.86.77-4.28,1.19.26-1.8.6-3.57,1.01-5.33,4.23-18.23,14.19-28.01,27.98-41.55,2.4-2.37,4.95-4.87,7.63-7.57,2.49-.26,4.98-.48,7.47-.65Z"/><path d="m304.61,679.95c-.11.11-.22.22-.32.33-.99.1-1.99.21-2.99.33-.14.01-.18-.15-.11-.24.03-.03.06-.05.11-.06,1.1-.13,2.21-.25,3.31-.36Z"/><path d="m303.11,186.64c.02.28-.18.52-.46.54l-12.15.94,5.69-8.78c.15-.23.46-.3.69-.15s.3.46.15.69l-4.59,7.08,10.13-.78c.26-.03.52.18.54.46Z"/><path d="m298.22,304.64l1.29,1.53c-1.55,1.32-4.51,2.66-6.8,2.66-.65,0-1.25-.11-1.75-.36-.63-.32-1.18-.78-1.65-1.34-1.58,1.28-4.43,2.55-6.66,2.55-.65,0-1.25-.11-1.75-.36-1.37-.7-2.43-2.06-2.9-3.74-.53-1.88-.25-3.95.75-5.72v-.03c-1.2-.74-2.12-2-2.55-3.53-.55-1.98-.22-4.18.91-6.01l1.7,1.05c-.84,1.36-1.09,2.97-.68,4.42.32,1.14,1,2.05,1.88,2.5,1,.51,3.81-.3,5.68-1.54-.2-.38-.38-.78-.51-1.2-.65-2.06-.43-4.34.61-6.25l1.76.96c-.8,1.45-.96,3.12-.46,4.68.45,1.4,1.41,2.54,2.62,3.13,2.2,1.07,5.09.28,6.73-1.83l1.58,1.23c-1.54,1.99-3.86,3.09-6.16,3.09-.51,0-1.01-.05-1.51-.16-.57,1.22-.71,2.57-.36,3.81.32,1.14,1,2.05,1.88,2.5,1.13.58,4.57-.53,6.35-2.04Zm-10.05.86l.36.43c-.19-.38-.34-.78-.46-1.2-.46-1.65-.3-3.45.42-5.06-.61-.34-1.16-.78-1.64-1.3-1.64,1.1-4.05,2.06-5.99,2.06-.23,0-.44-.03-.65-.06l.41.25c-.84,1.36-1.09,2.97-.68,4.42.32,1.14,1,2.05,1.88,2.5,1.13.58,4.57-.53,6.35-2.04Z"/><path d="m297.19,103.91h.01s-.01.01-.02.01h.01Z"/><path class="cls-3" d="m298.09,682.24c-1.19,1.17-2.35,2.31-3.47,3.42-2.43.25-13.22.87-25.64-6.31-10.52-6.08-15.54-13.86-17.27-17.06,1.32-1.64,2.65-3.2,3.94-4.66,2.15,3.72,7.41,11.2,17.6,17.09,9.93,5.74,19.68,7.27,24.84,7.52Z"/><path d="m295.96,153.87c.12.44-.23.59-.75.81-.84.35-2.6,1.09-3.59,2.14-1.16,1.23-1.54,3.23-1.13,5.96l.09.6-13.38-.65c-2.08,1.65-4.71,2.64-7.56,2.64-1.86,0-3.63-.42-5.21-1.17-3.01-1.43-5.35-4.06-6.39-7.27-.26-.13-.76-.39-1.8-.94-.6-.32-1.24-.65-1.73-.91s-.85-.45-.89-.47c-.16-.06-.52-.22-1.44-.63-.83-.37-1.75-.77-1.99-.88l-1.1-.14.92-.74c.55-.44,1.85-1.67,1.96-3.5h.02c.13-2.09-1.37-4.16-3.62-5.08-.29-.1-.49-.18-.57-.21l.34-.94c.2.06.39.13.58.21,1.26.4,4.37,1.06,7.36-.8,4.08-2.54,4.05-7.3,4.05-7.5l-.02-1.08.83.68c.74.61,2.76,2.01,5.43,1.82,2.98-.21,5.68-2.36,6.85-5.46l.96.27c-.47,2.58.47,5.13,2.35,6.35,1.17.76,2.73.99,4.27.64,1.61-.37,3.07-1.35,4.09-2.72.12-.19.25-.39.39-.58l.83.56c-.12.2-.25.39-.39.58-1.36,2.28-1.24,5.16.36,7.21,1.51,1.93,4.08,2.79,6.56,2.18l.29.96c-1.84.66-3.12,2.23-3.1,3.81,0,.98.52,1.97,1.39,2.73,1.08.93,2.55,1.36,4.04,1.16.48-.07.65.16.7.36Zm-5.07,2.24c.67-.71,1.6-1.27,2.44-1.7-1.03-.2-1.99-.65-2.77-1.33-1.09-.94-1.73-2.21-1.74-3.47-.01-1.33.66-2.64,1.77-3.6-2.07-.12-4.01-1.1-5.3-2.74-1.35-1.72-1.8-3.95-1.34-6.04-.87.65-1.87,1.12-2.93,1.36-1.81.41-3.64.13-5.04-.78-1.64-1.06-2.67-2.94-2.89-5.05-1.56,2.34-4,3.87-6.66,4.06-2.35.18-4.26-.74-5.38-1.48-.19,1.7-1.01,5.26-4.46,7.41v-.03c-2.01,1.24-4.04,1.47-5.66,1.37,1.34,1.25,2.12,2.94,2.02,4.66-.1,1.69-1.02,2.95-1.74,3.68.31.14.74.33,1.35.6.74.33,1.45.65,1.45.65.2.09.76.39,2.68,1.39.35.19.69.36.99.52-.16-.79-.25-1.6-.25-2.44,0-6.73,5.47-12.2,12.2-12.2s12.2,5.47,12.2,12.2c0,3.36-1.36,6.4-3.56,8.61l11.15.54c-.31-2.74.18-4.83,1.47-6.19Zm-11.05-2.94c0-5.63-4.57-10.2-10.2-10.2s-10.2,4.58-10.2,10.2,4.57,10.2,10.2,10.2,10.2-4.57,10.2-10.2Z"/><path d="m295.55,336.22c.19.02.19.32,0,.3-.41-.03-.81-.07-1.22-.1-1.44-.13-2.89-.25-4.33-.37.18-.1.37-.18.56-.26,1.66.15,3.33.29,4.99.43Z"/><path d="m294.33,336.42l-.08.89c-.96-.11-1.92-.01-2.8.31-2.92,1.05-4.34,5.54-4.38,7.07l-.06,1.91-1.54-1.14c-.07-.05-6.89-5.05-11.03-2.77-3.52,1.94-5.02,6.47-3.42,10.31l1.2,2.88-2.65-1.64c-1.31-.81-2.78-1.15-4.09-.99l-.15-.85c1.02-.18,2.05-.35,3.07-.53.18-.03.12-.29-.05-.29v-.04c.06,0,.1.03.15.04-.74-4.2,1.19-8.58,4.93-10.65,4-2.2,9.36.5,11.84,2.02.56-2.35,2.09-5.54,4.73-6.9,1.44.12,2.89.24,4.33.37Z"/><path class="cls-3" d="m291.82,687.79h.64c-1.22,1.2-2.4,2.37-3.55,3.53h0c-2.93.07-11.29-.4-22.78-7.04-11.45-6.62-16.4-15.27-17.66-17.81.63-.85,1.26-1.68,1.89-2.49,2.14,3.72,7.41,11.2,17.61,17.1,10,5.78,19.06,6.71,23.85,6.71Z"/><path class="cls-5" d="m275.71,791.3c8.03,15.31,20.03,28.5,34.51,38.12-19.35-7.16-36.26-18.14-49.64-31.57.58-.03,1.14-.13,1.68-.33,1.93,1.78,4.13,2.72,6.15,2.72,1.51,0,2.91-.51,4.04-1.56,2.12-1.98,1.64-6.51,1.01-9.02.24-.35.46-.72.63-1.13.04-.09.06-.18.1-.27.49,1.02.99,2.03,1.52,3.04Z"/><path d="m289.64,627.34c-.98-.94.5-2.41,1.47-1.49-.45.54-.9,1.07-1.36,1.59-.04-.03-.07-.07-.11-.1Z"/><path d="m276.86,334.63c4.57.38,9.13.78,13.7,1.16-.19.08-.38.16-.56.26-4.52-.39-9.05-.77-13.57-1.16.14-.08.29-.17.43-.26Z"/><path d="m286.96,630.33l.06.09c-.49.51-.99,1.02-1.49,1.52-.13-.18-.26-.36-.38-.54h0c-.76-1.14,1.06-2.19,1.81-1.07Z"/><path d="m282.69,633.65c.09.24.19.47.31.71-.52.49-1.06.96-1.6,1.43-.28-.51-.52-1.03-.73-1.57h0c-.14-.38-.07-.69.11-.91.46-.53,1.57-.54,1.91.34Z"/><path d="m281.33,652.26l1.58,1.23c-1.56,2.01-3.94,3.1-6.29,3.1-1.33,0-2.64-.35-3.8-1.07-2.67-1.66-3.98-4.96-3.25-8.2l1.95.44c-.54,2.42.41,4.85,2.36,6.07,2.36,1.46,5.63.78,7.45-1.57Z"/><path class="cls-5" d="m265.14,685.99c9.9,5.72,17.68,7.03,21.84,7.26-8.26,8.46-14.66,16.33-18.71,27.22l-1.52-.42c-.52,1.89-1.75,3.41-3.38,4.17-1.21.57-2.47.64-3.48.19-1.73-.78-2.79-3.11-2.53-5.57,0-.04,0-.08.01-.12l-1.99-.22s0,.08-.01.12c-.19,1.55-.99,2.94-2.21,3.82-1.05.76-2.28,1.05-3.39.81-2.17-.48-3.7-2.86-3.48-5.43l-1.99-.18c-.29,3.27,1.57,6.35,4.33,7.35.53,4.39,3.41,7.47,7.07,7.47h.13c2.8-.06,5.54-3.41,6.89-5.91.51-.11,1.01-.28,1.51-.51,1.18-.56,2.2-1.41,2.99-2.47-.51,1.64-1,3.32-1.41,5.11-.56,2.43-1,4.91-1.32,7.41-2.37,1.92-9.28,6.41-17.59,6.41h-.04c-7.98-.01-15.39-4.61-17.89-6.48-.61-4.85-.87-9.74-.7-14.67v.03c.38-10.92,2.74-20.88,6.21-29.79,1.3.96,3.17,1.47,4.89,1.63.09,0,.19.01.29.01,2.67,0,6.49-3.17,7.5-6.1,2.43-.35,4.7-1.9,5.89-4.25l-1.78-.91c-1.25,2.47-4.07,3.76-6.54,3.03-1.89-.57-4.54-2.22-5.44-3.94,2.44-4.64,5.12-8.91,7.88-12.8,1.88,3.44,7.14,11.47,17.97,17.73Z"/><path d="m272.64,334.27c1.41.11,2.81.23,4.22.36-.14.09-.29.18-.43.26-1.28-.11-2.55-.22-3.83-.33.03-.09.04-.19.04-.29Z"/><path d="m272.6,334.56c1.28.11,2.55.22,3.83.33-1.05.64-2.09,1.28-3.13,1.91-4.18,2.54-8.22,5-12.02,7.45.73-.57.8-1.89-.33-2.07-.55-.09-1.09-.17-1.64-.27.62-.4,1.25-.8,1.89-1.2,1.33.18,2.68.28,4.04.3,1.54.02,1.55-2.38,0-2.4-.22,0-.44-.01-.66-.02,1.72-1.08,3.48-2.15,5.27-3.24.54.04,1.09.07,1.63.08.64.02,1.01-.39,1.12-.87Z"/><circle cx="269.54" cy="153.36" r="6.03"/><path class="cls-5" d="m272.73,785.15c.03.9-.12,1.78-.48,2.58-.49,1.1-1.3,1.88-2.23,2.15-1.75.5-4.07-.65-5.54-2.74-.02-.03-.05-.07-.07-.1l-1.64,1.14s.05.07.07.1c.96,1.4,1.3,3.08.94,4.62-.27,1.17-.91,2.08-1.81,2.57-1.12.61-2.55.52-3.84-.12-6.84-7.26-12.66-15.19-17.31-23.58.91.38,1.88.59,2.86.59.5,0,1-.05,1.5-.16,3.7-.8,6.26-4.53,5.82-8.49l-1.99.22c.33,2.95-1.54,5.72-4.25,6.31-2.25.49-4.63-.6-5.92-2.71l-.19.12c-2.18-4.38-4.04-8.87-5.56-13.46,3.03,1.95,7.68,4.05,13.64,4.06h.05c8.91,0,14.96-4.71,17.27-6.88.72,11.14,3.65,22.6,8.68,33.78Z"/><path d="m272.53,333.72c.07.17.11.36.11.55-.3-.03-.59-.06-.89-.08.26-.16.52-.31.78-.47Z"/><path d="m271.75,334.19c.3.02.59.05.89.08,0,.1-.01.2-.04.29-.43-.03-.85-.07-1.28-.11.14-.08.29-.17.43-.26Z"/><path d="m271.32,334.45c.43.04.85.08,1.28.11-.11.48-.48.89-1.12.87-.54,0-1.09-.04-1.63-.08l1.47-.9Z"/><path d="m272.53,333.72c-.26.16-.52.31-.78.47-.55-.05-1.09-.09-1.64-.14-.19-.02-.19.28,0,.3.4.03.81.07,1.21.1l-1.47.9c-7.23-.53-14.18-3.25-19.91-7.6.05-.39.1-.85.14-1.38.04-.44.08-.93.14-1.45,5.94,4.92,13.47,7.89,21.26,8.11.53.01.88.31,1.05.69Z"/><path d="m271.99,733.53c.19-.05.27.24.08.29-.11.03-.23.06-.34.09.07-.13.14-.25.22-.37.01,0,.03-.01.04-.01Z"/><path d="m271.95,733.54c-.08.12-.15.24-.22.37-1.37.36-2.75.74-4.11,1.16.01-.11.03-.23.05-.34,1.42-.42,2.85-.82,4.28-1.19Z"/><path class="cls-1" d="m271.76,791.28c.42,2.42.29,5.05-.67,5.95h0c-1.74,1.63-4.59,1.26-7.06-.8.83-.78,1.42-1.84,1.71-3.08.17-.74.23-1.51.17-2.27,1.53.85,3.19,1.14,4.68.72.41-.12.8-.3,1.18-.52Z"/><path d="m271.75,334.19c-.14.09-.29.18-.43.26-.4-.03-.81-.07-1.21-.1-.19-.02-.19-.32,0-.3.55.05,1.09.09,1.64.14Z"/><path d="m268.35,351.58c.17,0,.23.26.05.29-1.02.18-2.05.35-3.07.53-1.29.23-2.59.45-3.88.67.12-.13.26-.26.41-.37,2.15-.37,4.31-.75,6.46-1.12h.03Z"/><path d="m268.36,351.54v.04h-.04c-2.15.37-4.31.75-6.46,1.12.26-.24.54-.44.83-.61,1.61-.95,3.68-1.13,5.67-.55Z"/><path d="m265.68,735.33c.66-.21,1.33-.41,1.99-.6-.02.11-.04.23-.05.34-.62.17-1.24.36-1.86.55-.19.06-.26-.23-.08-.29Z"/><path d="m265.24,338.61c1.55.02,1.54,2.42,0,2.4-1.36-.02-2.71-.12-4.04-.3,1.11-.71,2.23-1.42,3.38-2.12.22,0,.44.02.66.02Z"/><path d="m265.33,352.4l.15.85c-.63.07-1.21.26-1.73.57-1.05.63-1.86,1.78-2.21,3.17-.44,1.74-.13,3.68.85,5.32l.77,1.29-1.49.21c-2.37.34-4.28,1.61-4.75,3.16-.52,1.72.1,2.73.96,4.12.33.54.68,1.1.98,1.75l.67,1.44-1.59-.02c-.62,0-1.24-.04-1.87-.07-3.17-.17-6.15-.33-9.29,2.98-3.23,3.41-2.9,7.78.91,12l.89.98-1.19.58c-6.12,3-8.45,7.78-7.68,9.38.56,1.16,3.55,2.1,7.56,1.35l.16.92s-.09.02-.11.08c-.16.36-.33.73-.49,1.09-4.43.65-7.96-.51-8.97-2.6-1.36-2.83,1.4-8.05,7.48-11.46-3.73-4.74-3.78-9.81-.06-13.73,3.77-3.99,7.54-3.78,10.85-3.6h.03s-.02-.03-.03-.05c-.92-1.48-1.95-3.16-1.18-5.74.6-1.98,2.52-3.58,5.06-4.28-.74-1.8-.91-3.78-.45-5.61.34-1.35.99-2.52,1.89-3.41,1.29-.22,2.59-.44,3.88-.67Z"/><path class="cls-3" d="m264.22,738.79c-.16,1.82-.27,3.65-.31,5.49h-.01c-2.08,1.75-8.47,6.44-17.12,6.44h-.04c-7.64-.01-13.78-3.56-16.1-5.29-.52-2.23-.97-4.48-1.32-6.74,3.59,2.31,10.36,5.82,17.54,5.83h.04c7.55,0,13.92-3.38,17.32-5.73Z"/><path class="cls-3" d="m263.89,746.85c0,.67.03,1.35.05,2.02-.18.04-.36.12-.5.27-1.1,1.19-7.08,7.09-16.67,7.09h-.04c-7.15-.01-12.24-3.28-14.66-5.26-.26-.89-.49-1.78-.73-2.68,3.25,1.97,8.76,4.4,15.39,4.42h.01s.04.01.04.01c7.58,0,13.84-3.46,17.11-5.87Z"/><path d="m264.58,338.59c-1.15.7-2.27,1.41-3.38,2.12-11.58-1.57-21.6-9.15-26.28-19.97.68-.49,1.35-.97,1.99-1.42,4.57,11.28,15.53,18.85,27.67,19.27Z"/><path d="m246.15,355.4c5.24-.89,10.47-1.8,15.71-2.7-.15.11-.29.24-.41.37-5.24.91-10.47,1.81-15.71,2.71.13-.13.27-.25.41-.38Z"/><path d="m260.95,342.18c1.13.18,1.06,1.5.33,2.07-.07.05-.14.1-.22.14-.21.1-.47.14-.75.1-1.3-.21-2.6-.43-3.88-.67.94-.64,1.9-1.27,2.88-1.91.55.1,1.09.18,1.64.27Z"/><path d="m260.31,344.49c.28.04.54,0,.75-.1-5.62,3.62-10.7,7.21-14.91,11.01-1.63.29-3.27.57-4.9.85l-.05-.28c.41-.43.85-.86,1.29-1.28-.94.42-1.89.68-2.81.68-.31,0-.61-.03-.9-.09-4.14-.85-6.7-4.94-6.27-9.86-2.89-1.72-4.29-5.52-3.22-9l1.91.59c-.86,2.79.36,5.84,2.78,6.94,1.3.59,2.86.56,4.3-.07,1.55-.68,2.74-1.99,3.3-3.59,0-.05.04-.13.04-.13l1.9.63c-.01.05-.03.09-.04.13-.86,2.66-.18,5.52,1.65,6.84,1.11.81,2.66,1.05,4.27.68.26-.06.52-.14.77-.23,1.03-.76,2.08-1.53,3.16-2.29.29-.37.56-.76.78-1.18l.53.28c.59-.4,1.18-.81,1.79-1.2,1.28.24,2.58.46,3.88.67Zm-14.81,5.68c-.54-.2-1.06-.45-1.52-.78-1.56-1.13-2.53-2.95-2.79-5-.62.54-1.32.99-2.08,1.33-1.51.66-3.14.82-4.63.49-.1,3.62,1.77,6.53,4.72,7.13,1.7.34,4.33-1.23,6.3-3.17Z"/><path class="cls-4" d="m260.35,726.64h.01c-1.3,2.01-3.15,3.81-4.57,3.84h-.09c-2.46,0-4.44-2.09-5-5.13,1.26-.03,2.53-.47,3.63-1.27.58-.42,1.09-.92,1.52-1.48.62,1.66,1.75,2.99,3.22,3.66.41.18.84.31,1.28.38Z"/><path d="m259.31,341.91c-.98.64-1.94,1.27-2.88,1.91-5.75-1.08-11.29-2.72-16.05-6.41-4.46-3.46-7.87-8.14-9.78-13.43.68-.53,1.35-1.04,2-1.53,1.74,5.28,5.11,9.98,9.56,13.32,5.06,3.79,11.06,5.14,17.15,6.14Z"/><path d="m250.22,324.92c-.06.52-.1,1.01-.14,1.45-.04.53-.09.99-.14,1.38-1.28-.96-2.49-2.01-3.63-3.13-.49-2.22-1.14-4.2-1.95-5.92,1.68,2.31,3.66,4.4,5.86,6.22Z"/><path d="m249.94,327.75c0,.06-.01.12-.02.18l-.18,1.29-1.32.08c-1.32,0-1.5-1.24-1.6-1.91-.15-.96-.32-1.89-.51-2.77,1.14,1.12,2.35,2.17,3.63,3.13Z"/><path d="m247.43,402.38c.1,0,.21.11.15.23-1.11,2.46-2.22,4.91-3.33,7.37.03-.36.08-.73.16-1.09.76-1.69,1.52-3.37,2.29-5.06l.24-.3s-.07.01-.11.02c.16-.36.33-.73.49-1.09.02-.06.07-.08.11-.08Z"/><path d="m246.94,403.53l-.24.3c.04-.09.08-.19.13-.28.04,0,.07,0,.11-.02Z"/><path d="m246.7,403.83c-.77,1.69-1.53,3.37-2.29,5.06.08-.47.21-.94.36-1.4.44-1.34,1.1-2.57,1.93-3.66Z"/><path d="m241.25,356.25c1.63-.28,3.27-.56,4.9-.85-.14.13-.28.25-.41.38-1.51.26-3.01.52-4.52.78-.19.03-.27-.26-.08-.29.04-.01.07-.01.11-.02Z"/><path d="m241.22,356.56c1.51-.26,3.01-.52,4.52-.78-4.44,4.07-7.87,8.39-9.91,13.23-.92,2.18-8.79,21.99-1.88,43.31,1.17,3.62,2.66,6.92,4.43,9.95-.52,1.14-1.03,2.27-1.54,3.41,0,.02-.02.04-.02.07l-.3-.05c.03-.18.06-.35.09-.5-2.22-3.6-4.09-7.56-5.52-11.98-6.06-18.71-1.27-36.29,1.02-42.87-1.28.23-2.97.45-4.97.45-3.66,0-8.29-.72-13.03-3.35-8.55-4.74-11.62-12.41-12.35-14.65v-.03l.96-1.28c.42,0,.81.25.95.67.68,2.07,3.5,9.14,11.42,13.53,7.74,4.29,15.14,3.1,17.86,2.43.05-.12.1-.23.13-.31h-.01c.32-.74.67-1.47,1.04-2.19-1.18.19-2.63.34-4.29.34-.45,0-.91-.01-1.39-.04l.08-1.98c3.03.15,5.49-.27,6.9-.6,1.06-1.73,2.27-3.39,3.64-5-.04,0-.08.02-.13.02l-.35-1.97c.93-.18,1.59-.37,1.94-.47.24-.07.48-.04.69.05l.05.28s-.07,0-.11.02c-.19.03-.11.32.08.29Z"/><path d="m244.36,318.7c.81,1.72,1.46,3.7,1.95,5.92-2.31-2.26-4.33-4.83-5.96-7.65.71-.48,1.38-.92,2-1.32.62,1.06,1.28,2.08,2.01,3.05Z"/><path class="cls-1" d="m244.15,686.93c.27.08.55.14.83.18-1.06,1.99-3.9,4.29-5.44,4.12-1.64-.15-3.46-.71-4.27-1.62.93-2.24,1.92-4.42,2.96-6.52,1.5,1.85,4.02,3.26,5.91,3.83h.01Z"/><path d="m244.41,408.89c-.08.36-.13.73-.16,1.09-1.9,4.2-3.8,8.4-5.69,12.6-.07-.1-.13-.2-.18-.31,2-4.46,4.01-8.92,6.03-13.38Z"/><path d="m242.35,315.64h0c-.62.41-1.29.85-2,1.33-.03-.04-.05-.07-.07-.11h0c-.78-1.35,1.3-2.56,2.07-1.22Z"/><path d="m238.56,422.58c-.49,1.08-.97,2.17-1.46,3.25-.07.16-.28.06-.28-.08,0-.03.01-.05.02-.07.51-1.14,1.02-2.27,1.54-3.41.05.11.11.21.18.31Z"/><path d="m236.7,318.79c.07.18.14.36.21.53-.64.45-1.31.93-1.99,1.42-.18-.43-.36-.87-.53-1.31-.56-1.45,1.76-2.07,2.31-.64Z"/><path d="m232.31,321.54c.09.31.19.61.29.91-.65.49-1.32,1-2,1.53-.23-.59-.42-1.19-.6-1.8-.15-.51.02-.92.33-1.18.6-.49,1.7-.43,1.98.54Z"/><path d="m223.2,396.54l1.98.27c-.45,3.34-3.19,5.86-6.52,6.01h-.3c-2.85,0-5.38-1.79-6.41-4.4-1.12.55-2.86,1.09-4.77.5-3.07-.96-5.03-4.37-4.55-7.95l1.98.27h.01c-.35,2.61,1.01,5.09,3.16,5.76,2.05.64,3.97-.75,4.18-.91l1.31-.99.28,1.62c.42,2.44,2.57,4.21,5.03,4.1,2.36-.11,4.3-1.91,4.62-4.28Z"/><path d="m211.68,426.56c-1.1,2.94-3.63,7.07-6.78,7.58-.41.07-.81.1-1.21.1-3.69,0-6.94-2.79-8.16-7.09-3.3-.59-5.97-3.64-6.2-7.27l2-.13c.19,2.92,2.42,5.33,5.07,5.5,1.42.09,2.87-.49,3.99-1.59,1.21-1.19,1.86-2.83,1.81-4.53v-.13l2-.08v.13c.14,2.79,1.79,5.22,3.97,5.81,1.33.36,2.87.04,4.24-.88,1.69-1.14,2.82-3.01,3.08-5.13l1.98.25c-.33,2.69-1.78,5.08-3.95,6.54-.59.39-1.21.69-1.84.92Zm-2.35.44c-.57,0-1.14-.05-1.69-.2-1.86-.5-3.41-1.87-4.38-3.69-.38.72-.88,1.39-1.47,1.98-1.17,1.16-2.64,1.88-4.15,2.1h-.01c1.19,3.43,3.96,5.49,6.94,5,1.71-.28,3.6-2.68,4.76-5.19Z"/><path d="m213.63,463.46h-.02.01s.01,0,.01,0Z"/><path d="m206.21,372.99l1.68,1.08c-1.51,2.35-4.09,3.68-6.66,3.68-1.1,0-2.2-.24-3.21-.75-2.8-1.43-4.4-4.59-3.96-7.88l1.98.26c-.32,2.45.84,4.79,2.89,5.83,2.48,1.25,5.68.28,7.28-2.22Z"/><path d="m104.69,108.77c-.09.01-.18.03-.27.04-3.98.54-8.11,1.11-12.2,5.36-1.16,1.2-2.17,2.46-2.89,3.58,5.75-1.92,10.96-5.01,15.36-8.98Zm3.72-86.08c.25-.2.48-.41.71-.62-.13.11-.26.21-.41.35-.09.08-.2.18-.3.27Zm40.76,50.06c.49,2.81-2.46,4.67-5.59,6.65h-.04c-2.74,1.73-5.86,3.7-5.96,5.89-.1,2.2,2.91,4.37,5.33,6.12,2.64,1.9,4.91,3.54,4.26,5.8-.73,2.5-3.96,2.47-8.44,2.44-4.95-.03-11.11-.08-14.05,3.27-1.53,1.74-.67,4.96.16,8.06.95,3.56,1.94,7.24-.64,9.45-1.33,1.14-2.9,1.26-4.16,1.36-1.21.09-1.73.17-1.99.57-.43.65.02,1.86.46,3.03.58,1.55,1.24,3.3.12,4.77-1.43,1.88-3.96,1.12-6.64.31-2.58-.78-5.51-1.66-7.67-.53-2.24,1.18-2.91,4.25-3.5,6.96-.62,2.81-1.19,5.47-3.61,6.03-2.91.67-5-2.46-7.43-6.08-2.15-3.2-4.57-6.82-7-6.74-2.43.09-4.75,4.02-6.62,7.17-2.01,3.4-3.77,6.37-6.26,6.37-.21,0-.43-.03-.65-.07-2.16-.43-2.91-2.7-3.64-4.89-.55-1.66-1.17-3.54-2.22-3.81-1.13-.3-2.78,1.21-4.11,2.41-1.71,1.55-3.48,3.16-5.42,2.34-1.82-.76-3.71-3.13-5.9-5.88-1.56-1.95-3.16-3.96-4.64-5.23-.16.17-.31.33-.46.51-2.24,2.69-3.05,6.04-3.31,8.9.26,2.45.14,4.49.07,5.56v.09c.05.64.02,1.08-.38,1.52l-.44.5h-1.31l-.46-.48c-.41-.44-.44-.87-.41-1.51v-.12c-.09-1.09-.26-3.11-.07-5.52-.3-2.58-1.1-5.58-3-8.15-1.82-2.47-4.58-4.4-8.22-5.77l-3.16-1.19,3-1.55c2.16-1.11,4-2.51,5.48-4.14-1.35-.31-2.9-.3-4.41-.28-.33.01-.65.01-.97.01h-.78c-3.24.02-7.7.05-10.12-2.43-1.09-1.11-1.61-2.57-1.55-4.34.07-2.22,1.27-4.27,2.43-6.26,1.83-3.14,2.87-5.17,1.23-7.23-1.12-1.41-3.49-1.55-6-1.71-2.95-.19-5.99-.37-7.55-2.83-1.77-2.8,1.29-5.51,4-7.9,1.25-1.1,2.79-2.46,3.03-3.2.71-2.18-.84-4.14-3.4-6.4-.35-.31-.91-.72-1.49-1.14-2.16-1.57-4.85-3.53-5.05-6.08-.34-4.47,4.96-5.09,8.47-5.5,1.25-.14,2.67-.31,3.22-.58,1.12-.55,1.79-1.15,1.97-1.79.35-1.21-.77-3.01-1.86-4.76-.69-1.1-1.4-2.24-1.82-3.37-.74-1.98-.7-3.58.12-4.75,1.37-1.95,4.2-1.92,6.69-1.89.54.01,1.05.02,1.52,0,.97-.04,1.65-.24,1.85-.56.51-.79-.51-3.23-1.12-4.68l-.25-.6c-.94-2.28-.97-3.97-.09-5.16,1.35-1.85,4.16-1.61,6.88-1.37.61.05,1.22.1,1.81.13,2.07.1,3.5-.3,4.27-1.2,1.07-1.24.9-3.49.56-5.15l-.18-.84c-.68-3.19-1.7-8.02.66-10.39,1.15-1.14,2.8-1.5,4.94-1.05,2.96.62,5.41,2.12,7.79,3.57,2.55,1.56,4.95,3.03,7.87,3.41,7.45.98,12.16-4.67,15.78-10.32.09-.14.25-.44.46-.84,2.36-4.44,3.73-6.36,5.54-6,2.58.52,1.97,3.87,1.6,5.87-.08.42-.18,1-.18,1.17.01.07.01.14.01.2.36-.25.79-.59,1.09-.84.94-.76,1.92-1.55,2.92-1.82,3.73-1.01,4.89,2.17,5.58,4.06l.15.41c.57,1.51,1.24,2.43,1.99,2.75.7.29,1.69.16,2.96-.4.44-.2.97-.5,1.53-.83,2.13-1.24,5.34-3.11,7.97-.4,1.36,1.4,1.54,3.13,1.71,4.65.16,1.48.3,2.42,1.05,3.07.65.56,1.16.44,3.25-1.4,1.31-1.16,3.31-2.92,5.39-2.14,1.17-2.35,1.8-5.16,1.87-8.4-.43-2.32-.66-4.8-.69-7.44v-.25c-.06-.49-.04-.87.28-1.29l.4-.52,1.31-.12.49.44c.39.36.48.72.51,1.22.01.07.02.15.04.24.48,2.66.7,5.15.67,7.46.76,3.89,2.14,7.23,4.13,9.95,1.97,2.71,4.67,4.93,8.03,6.62l2.77,1.39-2.81,1.31c-1.63.76-3.77,2.05-5.76,4.11.99.81,1.92,1.23,2.83,1.65,1.41.64,2.87,1.31,3.87,3.19,1.07,2.02-.15,4.12-1.14,5.81-.61,1.04-1.37,2.34-1.09,2.9.5,1.02,3.88,1.11,6.12,1.17,3.4.09,6.62.18,7.45,2.54.54,1.52-.38,2.8-1.11,3.83-.42.58-.93,1.3-.82,1.63.14.39,1.21.69,2,.91,1.43.41,3.2.91,3.79,2.64.66,1.96-.78,3.51-2.05,4.88-.87.94-1.85,2-1.74,2.78.12.85,1.73,1.53,3.15,2.13,1.95.83,4.17,1.76,4.55,3.93Zm-7.18,4.09c1.74-1.1,4.38-2.76,4.23-3.59-.09-.56-1.64-1.21-2.76-1.68-2.05-.86-4.59-1.94-4.96-4.47-.32-2.2,1.25-3.89,2.51-5.25.5-.54,1.43-1.54,1.41-1.88-.08-.24-1.26-.57-1.76-.71-1.42-.4-3.37-.94-4.02-2.81-.62-1.79.44-3.28,1.21-4.36.23-.31.59-.82.69-1.09-.63-.43-3.14-.5-4.67-.54-3.65-.1-7.42-.2-8.73-2.83-.99-2.01.22-4.08,1.19-5.75.61-1.04,1.37-2.34,1.08-2.89-.5-.94-1.16-1.27-2.47-1.87-1.01-.46-2.2-1.01-3.48-2.06-.03.05-.06.09-.09.13-2.81,4.13-3.34,8.4-3.28,11.27.06.66.1,1.26.11,1.78l-2.99.19c-.05-.52-.09-1.13-.11-1.8-.3-2.99-1.33-7.44-4.51-11.59-2.05-2.68-4.76-4.9-7.83-6.43l-3.04-1.51,3.17-1.23c1.09-.42,2.09-.91,3.02-1.44-1.33.61-2.84.73-4.38-.6-1.68-1.46-1.9-3.43-2.07-5.02-.13-1.19-.25-2.23-.88-2.88-.84-.87-1.86-.52-4.3.9-.63.37-1.23.71-1.83.98-2.08.92-3.83,1.06-5.34.42-1.57-.66-2.75-2.12-3.63-4.47l-.16-.42c-.87-2.38-1.13-2.42-1.98-2.19-.39.11-1.22.77-1.82,1.26-1.41,1.14-2.88,2.32-4.39,1.64-1.46-.66-1.56-2.56-1.59-3.19-.02-.48.09-1.09.23-1.86.04-.23.1-.56.16-.91-.47.74-1.03,1.74-1.7,2.99-.26.5-.47.88-.58,1.05-3.89,6.07-9.53,12.88-18.7,11.68-3.55-.47-6.34-2.17-9.04-3.82-2.26-1.38-4.39-2.69-6.85-3.2-.74-.16-1.73-.24-2.2.23-1.21,1.22-.29,5.56.15,7.65l.18.87c.68,3.38.27,5.97-1.22,7.7-1.41,1.63-3.66,2.38-6.69,2.24-.63-.03-1.28-.08-1.93-.14-1.25-.11-3.85-.33-4.21.16,0,0-.28.46.45,2.24l.24.59c1.04,2.5,2.23,5.34.88,7.45-.77,1.21-2.21,1.86-4.27,1.94-.51.01-1.08,0-1.66,0-1.4-.02-3.74-.04-4.2.61-.16.23-.19.87.23,1.98.31.85.91,1.82,1.55,2.84,1.37,2.19,2.92,4.68,2.2,7.17-.43,1.49-1.62,2.72-3.54,3.65-1.01.49-2.48.66-4.18.86-3.25.38-5.93.82-5.82,2.29.09,1.18,2.42,2.87,3.82,3.89.64.47,1.25.91,1.71,1.32,1.86,1.65,5.73,5.07,4.27,9.58-.49,1.52-2.14,2.98-3.89,4.52-1.05.93-3.85,3.4-3.45,4.04.73,1.16,2.9,1.3,5.2,1.44,2.91.18,6.21.39,8.16,2.84,3.01,3.77.8,7.56-.98,10.61-1.01,1.75-1.97,3.39-2.02,4.85-.03.94.19,1.63.7,2.15,1.53,1.57,5.4,1.55,7.95,1.51h1.74c2.06-.02,4.33-.04,6.37.72,2.8-4.54,3.22-9.68,3.43-12.36.11-1.35.23-2.56.92-3.1-4.04-6.52-6.53-14.13-6.53-22.46,0-24.54,20.31-45.27,45.27-45.27s45.27,20.31,45.27,45.27-20.31,45.27-45.27,45.27h-.54c-1.27,0-3.23-.03-5.7-.43-10.74-1.74-21.96-8.4-29.6-18.22.26,3.21.92,8.2,4.14,12.55,1.66,2.25,3.91,4.17,6.69,5.71l3.03,1.69-3.31,1.05c-1.8.57-3.37,1.33-4.72,2.24,1.58,1.45,3.15,3.41,4.68,5.33,1.65,2.08,3.53,4.43,4.65,4.96.47-.1,1.62-1.14,2.31-1.77,1.87-1.69,4.18-3.79,6.87-3.1,2.64.68,3.58,3.5,4.33,5.77.33.98.93,2.8,1.38,2.89.76.12,2.77-3.25,3.74-4.89,2.35-3.98,5.02-8.49,9.09-8.64,4.11-.13,7.02,4.22,9.6,8.07,1.26,1.89,3.36,5.04,4.26,4.83.56-.13,1.04-2.31,1.35-3.75.69-3.19,1.56-7.15,5.04-8.98,3.24-1.7,6.95-.58,9.93.32,1.14.35,2.85.86,3.38.72.03-.35-.32-1.29-.54-1.87-.6-1.61-1.42-3.8-.16-5.73,1.1-1.68,2.85-1.81,4.26-1.92.99-.08,1.85-.14,2.44-.65,1.14-.97.4-3.73-.31-6.39-.98-3.68-2.1-7.86.48-10.81,3.84-4.38,11.06-4.33,16.33-4.29,1.95,0,4.55.03,5.42-.32-.43-.62-1.97-1.73-3.02-2.49-3.01-2.18-6.74-4.87-6.56-8.69.18-3.75,3.99-6.16,7.36-8.29Zm-23.12-43.33c1.99-2.92,4.38-4.91,6.51-6.25-2.69-1.7-4.94-3.77-6.69-6.17-1.05-1.44-1.94-3.02-2.69-4.74-.51,1.71-1.22,3.26-2.12,4.67-1.68,2.63-4.09,4.78-7.19,6.42,2.4,1.57,4.54,3.54,6.26,5.79,1.44,1.89,2.49,3.82,3.26,5.68.58-1.76,1.43-3.59,2.66-5.4Zm.03,45.14c.03-.64.05-1.29.05-1.95,0-8.96-2.74-17.29-7.42-24.2-.64,2.41-2.19,4.79-3.37,6.2l-.78-.63s0-.01-.01-.01c1.18-1.42,2.98-4.13,3.37-6.68-3.23-4.47-7.3-8.3-11.97-11.26-.56,2.07-2.17,4.1-3.27,5.39l-.81-.58c1.05-1.24,2.78-3.39,3.19-5.37-5.26-3.16-11.25-5.24-17.65-5.91-.11.2-.22.43-.33.64-.09.17-.18.36-.29.55l-.87-.46c.09-.18.18-.36.27-.53.05-.11.09-.19.14-.28-1.15-.09-2.3-.15-3.47-.15-16.79,0-31.72,10.17-38.84,24.55,1.51-1.44,3.65-3.02,6.92-4.61.28-.14.61-.27.98-.39l.31.94c-.32.11-.61.22-.85.34-5.05,2.45-7.3,4.88-8.7,6.73h0c-1.97,4.91-3.08,10.21-3.08,15.72,0,4,.58,7.76,1.59,11.25,6.55-14.37,14.79-16.9,25.12-20.05,5.85-1.78,12.39-3.78,19.82-8.23l.49.82c-7.53,4.52-14.13,6.55-20.04,8.35-10.74,3.28-18.53,5.67-24.96,20.55,2.45,7.35,6.88,13.49,12.12,18.29l.38.37c6.96,6.24,15.26,10.13,22.17,11.4.68-12.09,12.3-20.45,14.49-21.51,7.68-3.74,11.6-5.1,15.75-6.54,1.75-.61,3.56-1.24,5.72-2.07,4.9-1.88,9.05-5.09,13.82-10.68Zm-12.94,28.92c7.21-7.07,11.95-16.63,12.83-27.28-4.49,5.05-8.66,8.18-13.35,9.98-2.17.84-3.99,1.47-5.75,2.08-4.12,1.43-8.01,2.78-15.64,6.49-2.99,1.45-13.36,9.87-13.93,20.78,2.34.35,4.19.35,5.32.35h.24c4.25,0,8.35-.62,12.23-1.77.74-1.4,2.03-3.09,3.6-4.73,4.33-4.51,8.63-5.09,12.79-5.66.57-.08,1.12-.16,1.66-.24Zm-59.35,14.99c-2-1.43-3.7-3.08-5.06-4.92-1.89-2.55-3.01-5.3-3.69-7.83-.8,2.98-2.2,6.23-4.72,9.11-1.15,1.31-2.49,2.49-4,3.52,2.88,1.46,5.17,3.33,6.84,5.59.83,1.13,1.49,2.32,2,3.52.61-1.53,1.45-3.05,2.6-4.44h0c1.55-1.88,3.57-3.4,6.03-4.55Z"/><path class="cls-1" d="m146.22,73.25c.15.83-2.49,2.49-4.23,3.59-3.37,2.13-7.18,4.54-7.36,8.29-.18,3.82,3.55,6.51,6.56,8.69,1.05.76,2.59,1.87,3.02,2.49-.87.35-3.47.33-5.42.32-5.27-.04-12.49-.09-16.33,4.29-2.58,2.95-1.46,7.13-.48,10.81.71,2.66,1.45,5.42.31,6.39-.59.51-1.45.57-2.44.65-1.41.11-3.16.24-4.26,1.92-1.26,1.93-.44,4.12.16,5.73.22.58.57,1.52.54,1.87-.53.14-2.24-.37-3.38-.72-2.98-.9-6.69-2.02-9.93-.32-3.48,1.83-4.35,5.79-5.04,8.98-.31,1.44-.79,3.62-1.35,3.75-.9.21-3-2.94-4.26-4.83-2.58-3.85-5.49-8.2-9.6-8.07-4.07.15-6.74,4.66-9.09,8.64-.97,1.64-2.98,5.01-3.74,4.89-.45-.09-1.05-1.91-1.38-2.89-.75-2.27-1.69-5.09-4.33-5.77-2.69-.69-5,1.41-6.87,3.1-.69.63-1.84,1.67-2.31,1.77-1.12-.53-3-2.88-4.65-4.96-1.53-1.92-3.1-3.88-4.68-5.33,1.35-.91,2.92-1.67,4.72-2.24l3.31-1.05-3.03-1.69c-2.78-1.54-5.03-3.46-6.69-5.71-3.22-4.35-3.88-9.34-4.14-12.55,7.64,9.82,18.86,16.48,29.6,18.22,2.47.4,4.43.43,5.7.43h.54c24.96,0,45.27-20.31,45.27-45.27s-20.31-45.27-45.27-45.27-45.27,20.73-45.27,45.27c0,8.33,2.49,15.94,6.53,22.46-.69.54-.81,1.75-.92,3.1-.21,2.68-.63,7.82-3.43,12.36-2.04-.76-4.31-.74-6.37-.72h-1.74c-2.55.04-6.42.06-7.95-1.51-.51-.52-.73-1.21-.7-2.15.05-1.46,1.01-3.1,2.02-4.85,1.78-3.05,3.99-6.84.98-10.61-1.95-2.45-5.25-2.66-8.16-2.84-2.3-.14-4.47-.28-5.2-1.44-.4-.64,2.4-3.11,3.45-4.04,1.75-1.54,3.4-3,3.89-4.52,1.46-4.51-2.41-7.93-4.27-9.58-.46-.41-1.07-.85-1.71-1.32-1.4-1.02-3.73-2.71-3.82-3.89-.11-1.47,2.57-1.91,5.82-2.29,1.7-.2,3.17-.37,4.18-.86,1.92-.93,3.11-2.16,3.54-3.65.72-2.49-.83-4.98-2.2-7.17-.64-1.02-1.24-1.99-1.55-2.84-.42-1.11-.39-1.75-.23-1.98.46-.65,2.8-.63,4.2-.61.58,0,1.15.01,1.66,0,2.06-.08,3.5-.73,4.27-1.94,1.35-2.11.16-4.95-.88-7.45l-.24-.59c-.73-1.78-.45-2.24-.45-2.24.36-.49,2.96-.27,4.21-.16.65.06,1.3.11,1.93.14,3.03.14,5.28-.61,6.69-2.24,1.49-1.73,1.9-4.32,1.22-7.7l-.18-.87c-.44-2.09-1.36-6.43-.15-7.65.47-.47,1.46-.39,2.2-.23,2.46.51,4.59,1.82,6.85,3.2,2.7,1.65,5.49,3.35,9.04,3.82,9.17,1.2,14.81-5.61,18.7-11.68.11-.17.32-.55.58-1.05.67-1.25,1.23-2.25,1.7-2.99-.06.35-.12.68-.16.91-.14.77-.25,1.38-.23,1.86.03.63.13,2.53,1.59,3.19,1.51.68,2.98-.5,4.39-1.64.6-.49,1.43-1.15,1.82-1.26.85-.23,1.11-.19,1.98,2.19l.16.42c.88,2.35,2.06,3.81,3.63,4.47,1.51.64,3.26.5,5.34-.42.6-.27,1.2-.61,1.83-.98,2.44-1.42,3.46-1.77,4.3-.9.63.65.75,1.69.88,2.88.17,1.59.39,3.56,2.07,5.02,1.54,1.33,3.05,1.21,4.38.6-.93.53-1.93,1.02-3.02,1.44l-3.17,1.23,3.04,1.51c3.07,1.53,5.78,3.75,7.83,6.43,3.18,4.15,4.21,8.6,4.51,11.59.02.67.06,1.28.11,1.8l2.99-.19c-.01-.52-.05-1.12-.11-1.78-.06-2.87.47-7.14,3.28-11.27.03-.04.06-.08.09-.13,1.28,1.05,2.47,1.6,3.48,2.06,1.31.6,1.97.93,2.47,1.87.29.55-.47,1.85-1.08,2.89-.97,1.67-2.18,3.74-1.19,5.75,1.31,2.63,5.08,2.73,8.73,2.83,1.53.04,4.04.11,4.67.54-.1.27-.46.78-.69,1.09-.77,1.08-1.83,2.57-1.21,4.36.65,1.87,2.6,2.41,4.02,2.81.5.14,1.68.47,1.76.71.02.34-.91,1.34-1.41,1.88-1.26,1.36-2.83,3.05-2.51,5.25.37,2.53,2.91,3.61,4.96,4.47,1.12.47,2.67,1.12,2.76,1.68Z"/><path class="cls-2" d="m118.95,76.7c0,.66-.02,1.31-.05,1.95-4.77,5.59-8.92,8.8-13.82,10.68-2.16.83-3.97,1.46-5.72,2.07-4.15,1.44-8.07,2.8-15.75,6.54-2.19,1.06-13.81,9.42-14.49,21.51-6.91-1.27-15.21-5.16-22.17-11.4.03,0,.06.01.09.01.22,0,.42-.14.48-.36,5.1-18.19,13.24-21.16,24.49-25.27,6.46-2.36,13.75-5.02,21.87-11.1.35.8.61,1.54.85,2.24.6,1.75,1.18,3.41,2.94,5.53.53.63,4.74,5.56,8.76,5.56.55,0,1.09-.09,1.62-.3,4.01-1.55,4.13-8.19,4.17-10.37.07-3.83-.77-9.08-4.29-15.02.07-.09.15-.17.23-.27,1.18-1.41,2.73-3.79,3.37-6.2,4.68,6.91,7.42,15.24,7.42,24.2Z"/><path class="cls-5" d="m118.79,80.29c-.88,10.65-5.62,20.21-12.83,27.28-.54.08-1.09.16-1.66.24-4.16.57-8.46,1.15-12.79,5.66-1.57,1.64-2.86,3.33-3.6,4.73-3.88,1.15-7.98,1.77-12.23,1.77h-.24c-1.13,0-2.98,0-5.32-.35.57-10.91,10.94-19.33,13.93-20.78,7.63-3.71,11.52-5.06,15.64-6.49,1.76-.61,3.58-1.24,5.75-2.08,4.69-1.8,8.86-4.93,13.35-9.98Z"/><path d="m107.93,58.97c3.52,5.94,4.36,11.19,4.29,15.02-.04,2.18-.16,8.82-4.17,10.37-.53.21-1.07.3-1.62.3-4.02,0-8.23-4.93-8.76-5.56-1.76-2.12-2.34-3.78-2.94-5.53-.24-.7-.5-1.44-.85-2.24-8.12,6.08-15.41,8.74-21.87,11.1-11.25,4.11-19.39,7.08-24.49,25.27-.06.22-.26.36-.48.36-.03,0-.06-.01-.09-.01l-.38-.37c-.02-.09-.03-.18,0-.27,5.24-18.69,14.01-21.89,25.11-25.94,6.44-2.35,13.71-5.01,21.78-11.09-.14-.28-.28-.55-.44-.85-1.91-3.43-4.77-6.39-8.5-8.79-1.05-.68-2.02-1.17-2.94-1.57-.72.47-1.43.91-2.13,1.32l-.49-.82c.5-.3,1-.61,1.5-.93-1.3-.46-2.49-.73-3.66-.99-2.72-.61-5.29-1.19-8.22-3.9-.71-.67-3.32-3.22-4.4-6.13-1.81,1.01-2.84,1.34-3.75,1.62-.41.12-.81.25-1.25.43-3.69,1.52-7.32,2.39-10.23,3.1-1.58.38-2.92.7-3.9,1.04l-.31-.94c1.02-.36,2.37-.69,3.97-1.07,2.88-.7,6.46-1.57,10.08-3.06.47-.19.89-.32,1.33-.46.94-.3,1.91-.6,3.75-1.65-.25-1.07-.26-2.16.14-3.21,1.44-3.77,7.18-4.54,11.38-4.58.39-.5.93-1.15,1.69-2.03.32-.38.57-.67.64-.77.39-.58.73-1.2,1.02-1.76l.87.46c-.3.58-.65,1.23-1.07,1.85-.07.11-.35.44-.71.86-.27.31-.73.85-1.17,1.39.64.02,1.21.05,1.7.08,5.71.38,11.17,2.36,16.33,5.91l.81.58c1.94,1.41,3.84,3.03,5.68,4.88,2.63,2.64,4.63,5.2,6.19,7.67.01,0,.01.01.01.01l.78.63c-.08.1-.16.18-.23.27Zm1.29,14.96c.09-5.01-1.59-12.8-10.17-21.41-6.44-6.47-13.47-10-20.89-10.49-.76-.05-1.54-.08-2.31-.08-4.2,0-8.33.77-9.05,2.65-.08.22-.12.45-.12.71,0,1.95,2.28,4.81,3.92,6.33,2.34,2.16,4.32,2.61,6.83,3.17,2.44.55,5.2,1.17,8.71,3.42,4.16,2.68,7.35,5.99,9.5,9.86,1,1.82,1.5,3.24,1.93,4.5.56,1.61,1,2.89,2.41,4.59,1.79,2.16,5.25,5.05,6.98,4.38.64-.25,2.14-1.49,2.26-7.63Z"/><path class="cls-1" d="m110.74,51.38c-.39,2.55-2.19,5.26-3.37,6.68-1.56-2.47-3.56-5.03-6.19-7.67-1.84-1.85-3.74-3.47-5.68-4.88,1.1-1.29,2.71-3.32,3.27-5.39,4.67,2.96,8.74,6.79,11.97,11.26Z"/><path class="cls-2" d="m104.42,108.81c.09-.01.18-.03.27-.04-4.4,3.97-9.61,7.06-15.36,8.98.72-1.12,1.73-2.38,2.89-3.58,4.09-4.25,8.22-4.82,12.2-5.36Z"/><path class="cls-2" d="m97.88,39.56c-.41,1.98-2.14,4.13-3.19,5.37-5.16-3.55-10.62-5.53-16.33-5.91-.49-.03-1.06-.06-1.7-.08.44-.54.9-1.08,1.17-1.39.36-.42.64-.75.71-.86.42-.62.77-1.27,1.07-1.85.11-.19.2-.38.29-.55.11-.21.22-.44.33-.64,6.4.67,12.39,2.75,17.65,5.91Z"/><path class="cls-1" d="m93.02,69.53c.16.3.3.57.44.85-8.07,6.08-15.34,8.74-21.78,11.09-11.1,4.05-19.87,7.25-25.11,25.94-.03.09-.02.18,0,.27-5.24-4.8-9.67-10.94-12.12-18.29,6.43-14.88,14.22-17.27,24.96-20.55,5.91-1.8,12.51-3.83,20.04-8.35.7-.41,1.41-.85,2.13-1.32.92.4,1.89.89,2.94,1.57,3.73,2.4,6.59,5.36,8.5,8.79Z"/><path class="cls-2" d="m80.46,58.74c-.5.32-1,.63-1.5.93-7.43,4.45-13.97,6.45-19.82,8.23-10.33,3.15-18.57,5.68-25.12,20.05-1.01-3.49-1.59-7.25-1.59-11.25,0-5.51,1.11-10.81,3.08-15.71h0c1.4-1.86,3.65-4.29,8.7-6.74.24-.12.53-.23.85-.34.98-.34,2.32-.66,3.9-1.04,2.91-.71,6.54-1.58,10.23-3.1.44-.18.84-.31,1.25-.43.91-.28,1.94-.61,3.75-1.62,1.08,2.91,3.69,5.46,4.4,6.13,2.93,2.71,5.5,3.29,8.22,3.9,1.17.26,2.36.53,3.66.99Z"/><path class="cls-5" d="m79.15,33.57c-.05.09-.09.17-.14.28-.09.17-.18.35-.27.53-.29.56-.63,1.18-1.02,1.76-.07.1-.32.39-.64.77-.76.88-1.3,1.53-1.69,2.03-4.2.04-9.94.81-11.38,4.58-.4,1.05-.39,2.14-.14,3.21-1.84,1.05-2.81,1.35-3.75,1.65-.44.14-.86.27-1.33.46-3.62,1.49-7.2,2.36-10.08,3.06-1.6.38-2.95.71-3.97,1.07-.37.12-.7.25-.98.39-3.27,1.59-5.41,3.17-6.92,4.61,7.12-14.38,22.05-24.55,38.84-24.55,1.17,0,2.32.06,3.47.15Z"/></svg>